<?xml version="1.0" standalone="no"?>
<!DOCTYPE svg PUBLIC "-//W3C//DTD SVG 1.1//EN" "http://www.w3.org/Graphics/SVG/1.1/DTD/svg11.dtd" >
<svg xmlns="http://www.w3.org/2000/svg" xmlns:xlink="http://www.w3.org/1999/xlink" version="1.1">
<metadata>
Created by FontForge 20190801 at Tue Mar 23 11:33:01 2021
 By www-data
Copyright (c) 2020 by Cosimo Lorenzo Pancini. All rights reserved.
</metadata>
<defs>
<font id="FontsFreeNetStadioNowDisplayBoldtrial" horiz-adv-x="0" >
  <font-face 
    font-family="FontsFreeNetStadioNowDisplayBoldtrial"
    font-weight="730"
    font-stretch="normal"
    units-per-em="1000"
    panose-1="0 0 8 0 0 0 0 0 0 0"
    ascent="800"
    descent="-200"
    x-height="534"
    cap-height="700"
    bbox="-729 -233 1301 960"
    underline-thickness="47"
    underline-position="-69"
    unicode-range="U+0020-F8FF"
  />
<missing-glyph horiz-adv-x="413" 
d="M370 -193h-327v924h327v-924zM117 574q42 1 88 1l89 -1v31l-81 -2l-42 1v7l123 43v47l-88 -1l-89 1v-30q47 1 122 1v-8l-122 -43v-47zM297 489q0 71 -92 71q-91 0 -91 -71t91 -71q92 0 92 71zM176.5 458q-8.5 10 -8.5 31q0 22 8.5 31.5t28.5 9.5q21 0 29.5 -10t8.5 -31
t-9 -31t-29 -10t-28.5 10zM117 281h101v53h-31v-27q-10 0 -16.5 8t-6.5 23q0 19 10.5 29.5t30.5 10.5q19 0 28.5 -11.5t9.5 -29.5q0 -31 -9 -51h51q12 22 12 51q0 35 -24 53.5t-69 18.5q-90 0 -90 -61q0 -31 25 -42l-22 1v-26zM117 162h53v75l124 -1v30l-89 -1l-88 1v-104z
M117 118q28 1 88 1t89 -1v30h-89h-88v-30zM278 -9q16 15 16 44v65q-31 -1 -89 -1l-88 1v-31l59 1v-32q0 -62 58 -62q28 0 44 15zM208 32v38h37v-43q0 -17 -18 -17q-19 0 -19 22zM117 -161h88h89v29q-38 0 -56 -1v68q19 -1 56 -1v30l-89 -1l-88 1v-30l67 1v-68l-67 1v-29z
" />
    <glyph glyph-name=".notdef" horiz-adv-x="413" 
d="M370 -193h-327v924h327v-924zM117 574q42 1 88 1l89 -1v31l-81 -2l-42 1v7l123 43v47l-88 -1l-89 1v-30q47 1 122 1v-8l-122 -43v-47zM297 489q0 71 -92 71q-91 0 -91 -71t91 -71q92 0 92 71zM176.5 458q-8.5 10 -8.5 31q0 22 8.5 31.5t28.5 9.5q21 0 29.5 -10t8.5 -31
t-9 -31t-29 -10t-28.5 10zM117 281h101v53h-31v-27q-10 0 -16.5 8t-6.5 23q0 19 10.5 29.5t30.5 10.5q19 0 28.5 -11.5t9.5 -29.5q0 -31 -9 -51h51q12 22 12 51q0 35 -24 53.5t-69 18.5q-90 0 -90 -61q0 -31 25 -42l-22 1v-26zM117 162h53v75l124 -1v30l-89 -1l-88 1v-104z
M117 118q28 1 88 1t89 -1v30h-89h-88v-30zM278 -9q16 15 16 44v65q-31 -1 -89 -1l-88 1v-31l59 1v-32q0 -62 58 -62q28 0 44 15zM208 32v38h37v-43q0 -17 -18 -17q-19 0 -19 22zM117 -161h88h89v29q-38 0 -56 -1v68q19 -1 56 -1v30l-89 -1l-88 1v-30l67 1v-68l-67 1v-29z
" />
    <glyph glyph-name=".null" 
 />
    <glyph glyph-name="nonmarkingreturn" horiz-adv-x="333" 
 />
    <glyph glyph-name="space" unicode=" " horiz-adv-x="275" 
 />
    <glyph glyph-name="exclam" unicode="!" horiz-adv-x="279" 
d="M178 243h-75l-46 458h166zM69.5 12q-26.5 24 -26.5 66q0 40 26.5 64t70.5 24t70.5 -24t26.5 -64q0 -42 -26.5 -66t-70.5 -24t-70.5 24z" />
    <glyph glyph-name="quotedbl" unicode="&#x22;" horiz-adv-x="420" 
d="M145 700l-9 -274h-83l-10 274h102zM345 700l-9 -274h-83l-10 274h102z" />
    <glyph glyph-name="numbersign" unicode="#" horiz-adv-x="586" 
d="M580 562v-163h-123l-16 -88h119v-163h-148l-18 -104h-84l18 104h-143l-18 -104h-84l18 104h-96v163h125l16 88h-120v163h148l21 118h85l-21 -118h142l21 118h85l-21 -118h94zM214 311h143l16 88h-143z" />
    <glyph glyph-name="dollar" unicode="$" horiz-adv-x="603" 
d="M513 48.5q-72 -51.5 -183 -58.5v-84h-48v83q-61 1 -125 13t-122 32l-6 203q141 -31 253 -33v105h-1q-91 4 -146.5 18.5t-86 52.5t-30.5 110q0 55 26.5 103.5t86 80.5t151.5 36v89h48v-88q58 -3 118 -15t98 -28l7 -213q-36 11 -93.5 20.5t-129.5 11.5v-96q87 -6 141 -22
t84 -54t30 -108q0 -107 -72 -158.5zM175.5 419q8.5 -8 33 -14t73.5 -10v92q-62 -1 -88.5 -12.5t-26.5 -33.5q0 -14 8.5 -22zM330 205q56 3 79.5 15.5t23.5 34.5t-21 34t-82 17v-101z" />
    <glyph glyph-name="percent" unicode="%" horiz-adv-x="937" 
 />
    <glyph glyph-name="ampersand" unicode="&#x26;" horiz-adv-x="638" 
d="M627 311q-6 1 -25 1l-25 1q3 -97 -18.5 -167t-89.5 -114t-198 -44q-61 0 -117.5 18t-94 62t-37.5 116q0 62 29.5 105t89.5 62q-88 42 -88 142t62 159t187 59q100 0 187 -35v-217q-62 17 -98.5 22.5t-89.5 5.5q-72 0 -101 -12.5t-29 -40.5q0 -24 25.5 -36t65.5 -12h59v-74
h-59q-46 0 -78 -14t-32 -47q0 -59 138 -59q97 0 147.5 30t58.5 91q-39 0 -127 -2v76q55 -1 156 -1q83 0 102 1v-76z" />
    <glyph glyph-name="quotesingle" unicode="'" horiz-adv-x="188" 
d="M145 700l-9 -274h-83l-10 274h102z" />
    <glyph glyph-name="parenleft" unicode="(" horiz-adv-x="281" 
d="M187 -193q-86 99 -125.5 209t-39.5 239q0 128 39.5 238t125.5 208h88q-107 -223 -107 -447q0 -223 107 -447h-88z" />
    <glyph glyph-name="parenright" unicode=")" horiz-adv-x="281" 
d="M6 -193q107 224 107 447q0 224 -107 447h88q86 -98 125.5 -208t39.5 -238q0 -129 -39.5 -239t-125.5 -209h-88z" />
    <glyph glyph-name="asterisk" unicode="*" horiz-adv-x="367" 
d="M221 387h-74v78l5 22l-11 -13l-73 -49l-46 80l76 32l25 4l-25 5l-76 31l46 80l73 -50l11 -12l-5 21v79h74v-79l-7 -22l12 13l73 50l46 -80l-76 -31l-26 -5l26 -4l76 -32l-46 -80l-73 49l-12 13l7 -22v-78z" />
    <glyph glyph-name="plus" unicode="+" horiz-adv-x="475" 
d="M432 192q-104 2 -155 2q0 -43 2 -129h-83l2 129q-51 0 -155 -2v135q104 -2 155 -2q0 42 -2 128h83q-2 -86 -2 -128q51 0 155 2v-135z" />
    <glyph glyph-name="comma" unicode="," horiz-adv-x="238" 
d="M109 -14q-41 0 -64 24t-23 67q0 41 26.5 65t70.5 24q48 0 72.5 -24.5t24.5 -69.5q0 -29 -15 -56.5t-40 -61.5l-54 -75h-61z" />
    <glyph glyph-name="hyphen" unicode="-" horiz-adv-x="475" 
d="M432 197q-142 2 -213 2q-58 0 -176 -2v126q130 -2 195 -2q64 0 194 2v-126z" />
    <glyph glyph-name="period" unicode="." horiz-adv-x="237" 
d="M48.5 13q-26.5 24 -26.5 66q0 41 26 64.5t71 23.5t71 -23.5t26 -64.5q0 -42 -26.5 -66t-70.5 -24t-70.5 24z" />
    <glyph glyph-name="slash" unicode="/" horiz-adv-x="447" 
d="M5 -96q164 382 321 796h115q-176 -411 -320 -796h-116z" />
    <glyph glyph-name="zero" unicode="0" horiz-adv-x="1347" 
d="M1301 462v-193h-1254v193h486q4 56 44.5 94t96.5 38t96.5 -38t44.5 -94h486zM759 547q-38 33 -85 33q-49 0 -85 -33h170zM772 371q29 35 29 81q0 48 -32 85l-166 -166h169zM575 533q-29 -35 -29 -81q0 -49 33 -85l167 166h-171zM938 321q19 18 19 46q0 27 -19 45t-47 18
t-46.5 -18t-18.5 -45q0 -28 18.5 -46t46.5 -18t47 18zM138 392h28v35h-96v-35h29v-86h39v86zM235 306h41l-21 46q14 12 14 32q0 18 -13.5 30.5t-32.5 12.5h-50v-121h39v35h8zM282 306h38v121h-38v-121zM407 325l5 -19h42l-41 121h-45l-41 -121h41l5 19h34zM461 306h82v33
h-43v88h-39v-121zM1041 306h40v121h-39v-64l-37 64h-40v-121h39l-1 59zM1093 306h82v33h-43v88h-39v-121zM1236 306v48l41 73h-45l-16 -36l-15 36h-46l42 -73v-48h39zM910.5 387q7.5 -8 7.5 -20q0 -13 -7.5 -21t-19.5 -8q-11 0 -19 8t-8 21q0 12 8 20t19 8q12 0 19.5 -8z
M222 394q3 0 5.5 -3t2.5 -7t-2.5 -7.5t-5.5 -3.5h-10v21h10zM381 357l8 29h1l8 -29h-17zM589 357q37 -32 85 -32t85 32h-170zM530 176q12 -7 26 -7q11 0 18.5 6t7.5 17q0 13 -23 22q-9 3 -12.5 5.5t-3.5 7.5t4 8t10 3q11 0 20 -7v13q-10 5 -20 5q-12 0 -19 -6t-7 -16
q0 -9 5 -13.5t17 -9.5q17 -5 17 -12q0 -12 -14 -12q-13 0 -26 9v-13zM630.5 180.5q11.5 -11.5 28.5 -11.5t28.5 11.5t11.5 28.5t-11.5 28.5t-28.5 11.5t-28.5 -11.5t-11.5 -28.5t11.5 -28.5zM778 168v79h-12v-54l-49 55h-6v-78h12v52l49 -54h6zM96 247h-50v-77h12v29h33v11
h-33v26h38v11zM106 200q0 -13 9 -22t22 -9q14 0 23 8.5t9 22.5v47h-12v-47q0 -8 -6 -14t-14 -6t-13.5 5.5t-5.5 14.5v47h-12v-47zM196 247h-12v-77h47v11h-35v66zM254 247h-12v-77h48v11h-36v66zM362 170l32 77h-14l-22 -57l-22 57h-14l32 -77h8zM454 247h-50v-77h50v11h-38
v23h33v10h-33v22h38v11zM510 170h14l-15 31q12 7 12 21q0 11 -7 18t-18 7h-29v-77h12v28h18zM606 247h-12v-77h12v77zM678 188q-8 -8 -19 -8q-12 0 -20 8t-8 21q0 12 8 20t20 8q11 0 19 -8t8 -20q0 -13 -8 -21zM505 212q-4 -4 -9 -4h-17v28h17q5 0 9 -4t4 -10t-4 -10z
M1265 183l25 24l-25 24l-8 -7l13 -11h-458v-12h458l-13 -11zM526 53.5q17 -16.5 42 -16.5t42 16.5t17 41.5q0 24 -17 40.5t-42 16.5t-42 -16.5t-17 -40.5q0 -25 17 -41.5zM836 47q16 -10 38 -10q19 0 31.5 10t12.5 27q0 27 -36 35q-3 1 -7 2t-5.5 2.5t-1.5 3.5q0 4 11 4
q7 0 16.5 -3t15.5 -8v34q-18 8 -32 8q-21 0 -33 -9t-12 -25q0 -14 7.5 -21.5t24.5 -13.5q3 -1 10 -3t7 -6q0 -6 -9 -6q-13 0 -38 16v-37zM981 53.5q17 -16.5 41 -16.5q12 0 26 7l1 35q-10 -10 -25 -10q-11 0 -18 7.5t-7 18.5t7.5 18t17.5 7t22 -7v33q-10 6 -23 6
q-25 0 -42 -16.5t-17 -40.5q0 -25 17 -41.5zM1069 53.5q17 -16.5 43 -16.5q25 0 42 16.5t17 41.5q0 24 -17 40.5t-42 16.5t-42.5 -16.5t-17.5 -40.5q0 -25 17 -41.5zM47 118h36l-41 -78h95v31h-38l41 78h-93v-31zM226 149h-79v-109h80v30h-45v10h38v30h-38v9h44v30zM231 118
h26v-78h35v78h26v31h-87v-31zM347 57h31l4 -17h38l-37 109h-40l-37 -109h36zM505 149h-79v-109h35v34h37v29h-37v16h44v30zM739 40v109h-35v-58l-33 58h-36v-109h35l-1 53l34 -53h36zM745 118h26v-78h35v78h25v31h-86v-31zM1213 149h-35v-109h35v43l14 -27h25l14 27v-43h34
v109h-35l-26 -50zM585 76.5q-7 -7.5 -17 -7.5t-17 7.5t-7 18.5t7 18t17 7t17 -7t7 -18t-7 -18.5zM1129 76.5q-7 -7.5 -17 -7.5q-11 0 -18 7.5t-7 18.5t7.5 18t17.5 7t17 -7.5t7 -17.5q0 -11 -7 -18.5zM363 112l7 -26h-15l7 26h1zM928 42q5 -5 13 -5q7 0 12 5t5 12t-5 11.5
t-12 4.5q-8 0 -13 -4.5t-5 -11.5t5 -12z" />
    <glyph glyph-name="one" unicode="1" horiz-adv-x="1347" 
d="M1301 462v-193h-1254v193h486q4 56 44.5 94t96.5 38t96.5 -38t44.5 -94h486zM759 547q-38 33 -85 33q-49 0 -85 -33h170zM772 371q29 35 29 81q0 48 -32 85l-166 -166h169zM575 533q-29 -35 -29 -81q0 -49 33 -85l167 166h-171zM938 321q19 18 19 46q0 27 -19 45t-47 18
t-46.5 -18t-18.5 -45q0 -28 18.5 -46t46.5 -18t47 18zM138 392h28v35h-96v-35h29v-86h39v86zM235 306h41l-21 46q14 12 14 32q0 18 -13.5 30.5t-32.5 12.5h-50v-121h39v35h8zM282 306h38v121h-38v-121zM407 325l5 -19h42l-41 121h-45l-41 -121h41l5 19h34zM461 306h82v33
h-43v88h-39v-121zM1041 306h40v121h-39v-64l-37 64h-40v-121h39l-1 59zM1093 306h82v33h-43v88h-39v-121zM1236 306v48l41 73h-45l-16 -36l-15 36h-46l42 -73v-48h39zM910.5 387q7.5 -8 7.5 -20q0 -13 -7.5 -21t-19.5 -8q-11 0 -19 8t-8 21q0 12 8 20t19 8q12 0 19.5 -8z
M222 394q3 0 5.5 -3t2.5 -7t-2.5 -7.5t-5.5 -3.5h-10v21h10zM381 357l8 29h1l8 -29h-17zM589 357q37 -32 85 -32t85 32h-170zM530 176q12 -7 26 -7q11 0 18.5 6t7.5 17q0 13 -23 22q-9 3 -12.5 5.5t-3.5 7.5t4 8t10 3q11 0 20 -7v13q-10 5 -20 5q-12 0 -19 -6t-7 -16
q0 -9 5 -13.5t17 -9.5q17 -5 17 -12q0 -12 -14 -12q-13 0 -26 9v-13zM630.5 180.5q11.5 -11.5 28.5 -11.5t28.5 11.5t11.5 28.5t-11.5 28.5t-28.5 11.5t-28.5 -11.5t-11.5 -28.5t11.5 -28.5zM778 168v79h-12v-54l-49 55h-6v-78h12v52l49 -54h6zM96 247h-50v-77h12v29h33v11
h-33v26h38v11zM106 200q0 -13 9 -22t22 -9q14 0 23 8.5t9 22.5v47h-12v-47q0 -8 -6 -14t-14 -6t-13.5 5.5t-5.5 14.5v47h-12v-47zM196 247h-12v-77h47v11h-35v66zM254 247h-12v-77h48v11h-36v66zM362 170l32 77h-14l-22 -57l-22 57h-14l32 -77h8zM454 247h-50v-77h50v11h-38
v23h33v10h-33v22h38v11zM510 170h14l-15 31q12 7 12 21q0 11 -7 18t-18 7h-29v-77h12v28h18zM606 247h-12v-77h12v77zM678 188q-8 -8 -19 -8q-12 0 -20 8t-8 21q0 12 8 20t20 8q11 0 19 -8t8 -20q0 -13 -8 -21zM505 212q-4 -4 -9 -4h-17v28h17q5 0 9 -4t4 -10t-4 -10z
M1265 183l25 24l-25 24l-8 -7l13 -11h-458v-12h458l-13 -11zM526 53.5q17 -16.5 42 -16.5t42 16.5t17 41.5q0 24 -17 40.5t-42 16.5t-42 -16.5t-17 -40.5q0 -25 17 -41.5zM836 47q16 -10 38 -10q19 0 31.5 10t12.5 27q0 27 -36 35q-3 1 -7 2t-5.5 2.5t-1.5 3.5q0 4 11 4
q7 0 16.5 -3t15.5 -8v34q-18 8 -32 8q-21 0 -33 -9t-12 -25q0 -14 7.5 -21.5t24.5 -13.5q3 -1 10 -3t7 -6q0 -6 -9 -6q-13 0 -38 16v-37zM981 53.5q17 -16.5 41 -16.5q12 0 26 7l1 35q-10 -10 -25 -10q-11 0 -18 7.5t-7 18.5t7.5 18t17.5 7t22 -7v33q-10 6 -23 6
q-25 0 -42 -16.5t-17 -40.5q0 -25 17 -41.5zM1069 53.5q17 -16.5 43 -16.5q25 0 42 16.5t17 41.5q0 24 -17 40.5t-42 16.5t-42.5 -16.5t-17.5 -40.5q0 -25 17 -41.5zM47 118h36l-41 -78h95v31h-38l41 78h-93v-31zM226 149h-79v-109h80v30h-45v10h38v30h-38v9h44v30zM231 118
h26v-78h35v78h26v31h-87v-31zM347 57h31l4 -17h38l-37 109h-40l-37 -109h36zM505 149h-79v-109h35v34h37v29h-37v16h44v30zM739 40v109h-35v-58l-33 58h-36v-109h35l-1 53l34 -53h36zM745 118h26v-78h35v78h25v31h-86v-31zM1213 149h-35v-109h35v43l14 -27h25l14 27v-43h34
v109h-35l-26 -50zM585 76.5q-7 -7.5 -17 -7.5t-17 7.5t-7 18.5t7 18t17 7t17 -7t7 -18t-7 -18.5zM1129 76.5q-7 -7.5 -17 -7.5q-11 0 -18 7.5t-7 18.5t7.5 18t17.5 7t17 -7.5t7 -17.5q0 -11 -7 -18.5zM363 112l7 -26h-15l7 26h1zM928 42q5 -5 13 -5q7 0 12 5t5 12t-5 11.5
t-12 4.5q-8 0 -13 -4.5t-5 -11.5t5 -12z" />
    <glyph glyph-name="two" unicode="2" horiz-adv-x="1347" 
d="M1301 462v-193h-1254v193h486q4 56 44.5 94t96.5 38t96.5 -38t44.5 -94h486zM759 547q-38 33 -85 33q-49 0 -85 -33h170zM772 371q29 35 29 81q0 48 -32 85l-166 -166h169zM575 533q-29 -35 -29 -81q0 -49 33 -85l167 166h-171zM938 321q19 18 19 46q0 27 -19 45t-47 18
t-46.5 -18t-18.5 -45q0 -28 18.5 -46t46.5 -18t47 18zM138 392h28v35h-96v-35h29v-86h39v86zM235 306h41l-21 46q14 12 14 32q0 18 -13.5 30.5t-32.5 12.5h-50v-121h39v35h8zM282 306h38v121h-38v-121zM407 325l5 -19h42l-41 121h-45l-41 -121h41l5 19h34zM461 306h82v33
h-43v88h-39v-121zM1041 306h40v121h-39v-64l-37 64h-40v-121h39l-1 59zM1093 306h82v33h-43v88h-39v-121zM1236 306v48l41 73h-45l-16 -36l-15 36h-46l42 -73v-48h39zM910.5 387q7.5 -8 7.5 -20q0 -13 -7.5 -21t-19.5 -8q-11 0 -19 8t-8 21q0 12 8 20t19 8q12 0 19.5 -8z
M222 394q3 0 5.5 -3t2.5 -7t-2.5 -7.5t-5.5 -3.5h-10v21h10zM381 357l8 29h1l8 -29h-17zM589 357q37 -32 85 -32t85 32h-170zM530 176q12 -7 26 -7q11 0 18.5 6t7.5 17q0 13 -23 22q-9 3 -12.5 5.5t-3.5 7.5t4 8t10 3q11 0 20 -7v13q-10 5 -20 5q-12 0 -19 -6t-7 -16
q0 -9 5 -13.5t17 -9.5q17 -5 17 -12q0 -12 -14 -12q-13 0 -26 9v-13zM630.5 180.5q11.5 -11.5 28.5 -11.5t28.5 11.5t11.5 28.5t-11.5 28.5t-28.5 11.5t-28.5 -11.5t-11.5 -28.5t11.5 -28.5zM778 168v79h-12v-54l-49 55h-6v-78h12v52l49 -54h6zM96 247h-50v-77h12v29h33v11
h-33v26h38v11zM106 200q0 -13 9 -22t22 -9q14 0 23 8.5t9 22.5v47h-12v-47q0 -8 -6 -14t-14 -6t-13.5 5.5t-5.5 14.5v47h-12v-47zM196 247h-12v-77h47v11h-35v66zM254 247h-12v-77h48v11h-36v66zM362 170l32 77h-14l-22 -57l-22 57h-14l32 -77h8zM454 247h-50v-77h50v11h-38
v23h33v10h-33v22h38v11zM510 170h14l-15 31q12 7 12 21q0 11 -7 18t-18 7h-29v-77h12v28h18zM606 247h-12v-77h12v77zM678 188q-8 -8 -19 -8q-12 0 -20 8t-8 21q0 12 8 20t20 8q11 0 19 -8t8 -20q0 -13 -8 -21zM505 212q-4 -4 -9 -4h-17v28h17q5 0 9 -4t4 -10t-4 -10z
M1265 183l25 24l-25 24l-8 -7l13 -11h-458v-12h458l-13 -11zM526 53.5q17 -16.5 42 -16.5t42 16.5t17 41.5q0 24 -17 40.5t-42 16.5t-42 -16.5t-17 -40.5q0 -25 17 -41.5zM836 47q16 -10 38 -10q19 0 31.5 10t12.5 27q0 27 -36 35q-3 1 -7 2t-5.5 2.5t-1.5 3.5q0 4 11 4
q7 0 16.5 -3t15.5 -8v34q-18 8 -32 8q-21 0 -33 -9t-12 -25q0 -14 7.5 -21.5t24.5 -13.5q3 -1 10 -3t7 -6q0 -6 -9 -6q-13 0 -38 16v-37zM981 53.5q17 -16.5 41 -16.5q12 0 26 7l1 35q-10 -10 -25 -10q-11 0 -18 7.5t-7 18.5t7.5 18t17.5 7t22 -7v33q-10 6 -23 6
q-25 0 -42 -16.5t-17 -40.5q0 -25 17 -41.5zM1069 53.5q17 -16.5 43 -16.5q25 0 42 16.5t17 41.5q0 24 -17 40.5t-42 16.5t-42.5 -16.5t-17.5 -40.5q0 -25 17 -41.5zM47 118h36l-41 -78h95v31h-38l41 78h-93v-31zM226 149h-79v-109h80v30h-45v10h38v30h-38v9h44v30zM231 118
h26v-78h35v78h26v31h-87v-31zM347 57h31l4 -17h38l-37 109h-40l-37 -109h36zM505 149h-79v-109h35v34h37v29h-37v16h44v30zM739 40v109h-35v-58l-33 58h-36v-109h35l-1 53l34 -53h36zM745 118h26v-78h35v78h25v31h-86v-31zM1213 149h-35v-109h35v43l14 -27h25l14 27v-43h34
v109h-35l-26 -50zM585 76.5q-7 -7.5 -17 -7.5t-17 7.5t-7 18.5t7 18t17 7t17 -7t7 -18t-7 -18.5zM1129 76.5q-7 -7.5 -17 -7.5q-11 0 -18 7.5t-7 18.5t7.5 18t17.5 7t17 -7.5t7 -17.5q0 -11 -7 -18.5zM363 112l7 -26h-15l7 26h1zM928 42q5 -5 13 -5q7 0 12 5t5 12t-5 11.5
t-12 4.5q-8 0 -13 -4.5t-5 -11.5t5 -12z" />
    <glyph glyph-name="three" unicode="3" horiz-adv-x="1347" 
d="M1301 462v-193h-1254v193h486q4 56 44.5 94t96.5 38t96.5 -38t44.5 -94h486zM759 547q-38 33 -85 33q-49 0 -85 -33h170zM772 371q29 35 29 81q0 48 -32 85l-166 -166h169zM575 533q-29 -35 -29 -81q0 -49 33 -85l167 166h-171zM938 321q19 18 19 46q0 27 -19 45t-47 18
t-46.5 -18t-18.5 -45q0 -28 18.5 -46t46.5 -18t47 18zM138 392h28v35h-96v-35h29v-86h39v86zM235 306h41l-21 46q14 12 14 32q0 18 -13.5 30.5t-32.5 12.5h-50v-121h39v35h8zM282 306h38v121h-38v-121zM407 325l5 -19h42l-41 121h-45l-41 -121h41l5 19h34zM461 306h82v33
h-43v88h-39v-121zM1041 306h40v121h-39v-64l-37 64h-40v-121h39l-1 59zM1093 306h82v33h-43v88h-39v-121zM1236 306v48l41 73h-45l-16 -36l-15 36h-46l42 -73v-48h39zM910.5 387q7.5 -8 7.5 -20q0 -13 -7.5 -21t-19.5 -8q-11 0 -19 8t-8 21q0 12 8 20t19 8q12 0 19.5 -8z
M222 394q3 0 5.5 -3t2.5 -7t-2.5 -7.5t-5.5 -3.5h-10v21h10zM381 357l8 29h1l8 -29h-17zM589 357q37 -32 85 -32t85 32h-170zM530 176q12 -7 26 -7q11 0 18.5 6t7.5 17q0 13 -23 22q-9 3 -12.5 5.5t-3.5 7.5t4 8t10 3q11 0 20 -7v13q-10 5 -20 5q-12 0 -19 -6t-7 -16
q0 -9 5 -13.5t17 -9.5q17 -5 17 -12q0 -12 -14 -12q-13 0 -26 9v-13zM630.5 180.5q11.5 -11.5 28.5 -11.5t28.5 11.5t11.5 28.5t-11.5 28.5t-28.5 11.5t-28.5 -11.5t-11.5 -28.5t11.5 -28.5zM778 168v79h-12v-54l-49 55h-6v-78h12v52l49 -54h6zM96 247h-50v-77h12v29h33v11
h-33v26h38v11zM106 200q0 -13 9 -22t22 -9q14 0 23 8.5t9 22.5v47h-12v-47q0 -8 -6 -14t-14 -6t-13.5 5.5t-5.5 14.5v47h-12v-47zM196 247h-12v-77h47v11h-35v66zM254 247h-12v-77h48v11h-36v66zM362 170l32 77h-14l-22 -57l-22 57h-14l32 -77h8zM454 247h-50v-77h50v11h-38
v23h33v10h-33v22h38v11zM510 170h14l-15 31q12 7 12 21q0 11 -7 18t-18 7h-29v-77h12v28h18zM606 247h-12v-77h12v77zM678 188q-8 -8 -19 -8q-12 0 -20 8t-8 21q0 12 8 20t20 8q11 0 19 -8t8 -20q0 -13 -8 -21zM505 212q-4 -4 -9 -4h-17v28h17q5 0 9 -4t4 -10t-4 -10z
M1265 183l25 24l-25 24l-8 -7l13 -11h-458v-12h458l-13 -11zM526 53.5q17 -16.5 42 -16.5t42 16.5t17 41.5q0 24 -17 40.5t-42 16.5t-42 -16.5t-17 -40.5q0 -25 17 -41.5zM836 47q16 -10 38 -10q19 0 31.5 10t12.5 27q0 27 -36 35q-3 1 -7 2t-5.5 2.5t-1.5 3.5q0 4 11 4
q7 0 16.5 -3t15.5 -8v34q-18 8 -32 8q-21 0 -33 -9t-12 -25q0 -14 7.5 -21.5t24.5 -13.5q3 -1 10 -3t7 -6q0 -6 -9 -6q-13 0 -38 16v-37zM981 53.5q17 -16.5 41 -16.5q12 0 26 7l1 35q-10 -10 -25 -10q-11 0 -18 7.5t-7 18.5t7.5 18t17.5 7t22 -7v33q-10 6 -23 6
q-25 0 -42 -16.5t-17 -40.5q0 -25 17 -41.5zM1069 53.5q17 -16.5 43 -16.5q25 0 42 16.5t17 41.5q0 24 -17 40.5t-42 16.5t-42.5 -16.5t-17.5 -40.5q0 -25 17 -41.5zM47 118h36l-41 -78h95v31h-38l41 78h-93v-31zM226 149h-79v-109h80v30h-45v10h38v30h-38v9h44v30zM231 118
h26v-78h35v78h26v31h-87v-31zM347 57h31l4 -17h38l-37 109h-40l-37 -109h36zM505 149h-79v-109h35v34h37v29h-37v16h44v30zM739 40v109h-35v-58l-33 58h-36v-109h35l-1 53l34 -53h36zM745 118h26v-78h35v78h25v31h-86v-31zM1213 149h-35v-109h35v43l14 -27h25l14 27v-43h34
v109h-35l-26 -50zM585 76.5q-7 -7.5 -17 -7.5t-17 7.5t-7 18.5t7 18t17 7t17 -7t7 -18t-7 -18.5zM1129 76.5q-7 -7.5 -17 -7.5q-11 0 -18 7.5t-7 18.5t7.5 18t17.5 7t17 -7.5t7 -17.5q0 -11 -7 -18.5zM363 112l7 -26h-15l7 26h1zM928 42q5 -5 13 -5q7 0 12 5t5 12t-5 11.5
t-12 4.5q-8 0 -13 -4.5t-5 -11.5t5 -12z" />
    <glyph glyph-name="four" unicode="4" horiz-adv-x="1347" 
d="M1301 462v-193h-1254v193h486q4 56 44.5 94t96.5 38t96.5 -38t44.5 -94h486zM759 547q-38 33 -85 33q-49 0 -85 -33h170zM772 371q29 35 29 81q0 48 -32 85l-166 -166h169zM575 533q-29 -35 -29 -81q0 -49 33 -85l167 166h-171zM938 321q19 18 19 46q0 27 -19 45t-47 18
t-46.5 -18t-18.5 -45q0 -28 18.5 -46t46.5 -18t47 18zM138 392h28v35h-96v-35h29v-86h39v86zM235 306h41l-21 46q14 12 14 32q0 18 -13.5 30.5t-32.5 12.5h-50v-121h39v35h8zM282 306h38v121h-38v-121zM407 325l5 -19h42l-41 121h-45l-41 -121h41l5 19h34zM461 306h82v33
h-43v88h-39v-121zM1041 306h40v121h-39v-64l-37 64h-40v-121h39l-1 59zM1093 306h82v33h-43v88h-39v-121zM1236 306v48l41 73h-45l-16 -36l-15 36h-46l42 -73v-48h39zM910.5 387q7.5 -8 7.5 -20q0 -13 -7.5 -21t-19.5 -8q-11 0 -19 8t-8 21q0 12 8 20t19 8q12 0 19.5 -8z
M222 394q3 0 5.5 -3t2.5 -7t-2.5 -7.5t-5.5 -3.5h-10v21h10zM381 357l8 29h1l8 -29h-17zM589 357q37 -32 85 -32t85 32h-170zM530 176q12 -7 26 -7q11 0 18.5 6t7.5 17q0 13 -23 22q-9 3 -12.5 5.5t-3.5 7.5t4 8t10 3q11 0 20 -7v13q-10 5 -20 5q-12 0 -19 -6t-7 -16
q0 -9 5 -13.5t17 -9.5q17 -5 17 -12q0 -12 -14 -12q-13 0 -26 9v-13zM630.5 180.5q11.5 -11.5 28.5 -11.5t28.5 11.5t11.5 28.5t-11.5 28.5t-28.5 11.5t-28.5 -11.5t-11.5 -28.5t11.5 -28.5zM778 168v79h-12v-54l-49 55h-6v-78h12v52l49 -54h6zM96 247h-50v-77h12v29h33v11
h-33v26h38v11zM106 200q0 -13 9 -22t22 -9q14 0 23 8.5t9 22.5v47h-12v-47q0 -8 -6 -14t-14 -6t-13.5 5.5t-5.5 14.5v47h-12v-47zM196 247h-12v-77h47v11h-35v66zM254 247h-12v-77h48v11h-36v66zM362 170l32 77h-14l-22 -57l-22 57h-14l32 -77h8zM454 247h-50v-77h50v11h-38
v23h33v10h-33v22h38v11zM510 170h14l-15 31q12 7 12 21q0 11 -7 18t-18 7h-29v-77h12v28h18zM606 247h-12v-77h12v77zM678 188q-8 -8 -19 -8q-12 0 -20 8t-8 21q0 12 8 20t20 8q11 0 19 -8t8 -20q0 -13 -8 -21zM505 212q-4 -4 -9 -4h-17v28h17q5 0 9 -4t4 -10t-4 -10z
M1265 183l25 24l-25 24l-8 -7l13 -11h-458v-12h458l-13 -11zM526 53.5q17 -16.5 42 -16.5t42 16.5t17 41.5q0 24 -17 40.5t-42 16.5t-42 -16.5t-17 -40.5q0 -25 17 -41.5zM836 47q16 -10 38 -10q19 0 31.5 10t12.5 27q0 27 -36 35q-3 1 -7 2t-5.5 2.5t-1.5 3.5q0 4 11 4
q7 0 16.5 -3t15.5 -8v34q-18 8 -32 8q-21 0 -33 -9t-12 -25q0 -14 7.5 -21.5t24.5 -13.5q3 -1 10 -3t7 -6q0 -6 -9 -6q-13 0 -38 16v-37zM981 53.5q17 -16.5 41 -16.5q12 0 26 7l1 35q-10 -10 -25 -10q-11 0 -18 7.5t-7 18.5t7.5 18t17.5 7t22 -7v33q-10 6 -23 6
q-25 0 -42 -16.5t-17 -40.5q0 -25 17 -41.5zM1069 53.5q17 -16.5 43 -16.5q25 0 42 16.5t17 41.5q0 24 -17 40.5t-42 16.5t-42.5 -16.5t-17.5 -40.5q0 -25 17 -41.5zM47 118h36l-41 -78h95v31h-38l41 78h-93v-31zM226 149h-79v-109h80v30h-45v10h38v30h-38v9h44v30zM231 118
h26v-78h35v78h26v31h-87v-31zM347 57h31l4 -17h38l-37 109h-40l-37 -109h36zM505 149h-79v-109h35v34h37v29h-37v16h44v30zM739 40v109h-35v-58l-33 58h-36v-109h35l-1 53l34 -53h36zM745 118h26v-78h35v78h25v31h-86v-31zM1213 149h-35v-109h35v43l14 -27h25l14 27v-43h34
v109h-35l-26 -50zM585 76.5q-7 -7.5 -17 -7.5t-17 7.5t-7 18.5t7 18t17 7t17 -7t7 -18t-7 -18.5zM1129 76.5q-7 -7.5 -17 -7.5q-11 0 -18 7.5t-7 18.5t7.5 18t17.5 7t17 -7.5t7 -17.5q0 -11 -7 -18.5zM363 112l7 -26h-15l7 26h1zM928 42q5 -5 13 -5q7 0 12 5t5 12t-5 11.5
t-12 4.5q-8 0 -13 -4.5t-5 -11.5t5 -12z" />
    <glyph glyph-name="five" unicode="5" horiz-adv-x="1347" 
d="M1301 462v-193h-1254v193h486q4 56 44.5 94t96.5 38t96.5 -38t44.5 -94h486zM759 547q-38 33 -85 33q-49 0 -85 -33h170zM772 371q29 35 29 81q0 48 -32 85l-166 -166h169zM575 533q-29 -35 -29 -81q0 -49 33 -85l167 166h-171zM938 321q19 18 19 46q0 27 -19 45t-47 18
t-46.5 -18t-18.5 -45q0 -28 18.5 -46t46.5 -18t47 18zM138 392h28v35h-96v-35h29v-86h39v86zM235 306h41l-21 46q14 12 14 32q0 18 -13.5 30.5t-32.5 12.5h-50v-121h39v35h8zM282 306h38v121h-38v-121zM407 325l5 -19h42l-41 121h-45l-41 -121h41l5 19h34zM461 306h82v33
h-43v88h-39v-121zM1041 306h40v121h-39v-64l-37 64h-40v-121h39l-1 59zM1093 306h82v33h-43v88h-39v-121zM1236 306v48l41 73h-45l-16 -36l-15 36h-46l42 -73v-48h39zM910.5 387q7.5 -8 7.5 -20q0 -13 -7.5 -21t-19.5 -8q-11 0 -19 8t-8 21q0 12 8 20t19 8q12 0 19.5 -8z
M222 394q3 0 5.5 -3t2.5 -7t-2.5 -7.5t-5.5 -3.5h-10v21h10zM381 357l8 29h1l8 -29h-17zM589 357q37 -32 85 -32t85 32h-170zM530 176q12 -7 26 -7q11 0 18.5 6t7.5 17q0 13 -23 22q-9 3 -12.5 5.5t-3.5 7.5t4 8t10 3q11 0 20 -7v13q-10 5 -20 5q-12 0 -19 -6t-7 -16
q0 -9 5 -13.5t17 -9.5q17 -5 17 -12q0 -12 -14 -12q-13 0 -26 9v-13zM630.5 180.5q11.5 -11.5 28.5 -11.5t28.5 11.5t11.5 28.5t-11.5 28.5t-28.5 11.5t-28.5 -11.5t-11.5 -28.5t11.5 -28.5zM778 168v79h-12v-54l-49 55h-6v-78h12v52l49 -54h6zM96 247h-50v-77h12v29h33v11
h-33v26h38v11zM106 200q0 -13 9 -22t22 -9q14 0 23 8.5t9 22.5v47h-12v-47q0 -8 -6 -14t-14 -6t-13.5 5.5t-5.5 14.5v47h-12v-47zM196 247h-12v-77h47v11h-35v66zM254 247h-12v-77h48v11h-36v66zM362 170l32 77h-14l-22 -57l-22 57h-14l32 -77h8zM454 247h-50v-77h50v11h-38
v23h33v10h-33v22h38v11zM510 170h14l-15 31q12 7 12 21q0 11 -7 18t-18 7h-29v-77h12v28h18zM606 247h-12v-77h12v77zM678 188q-8 -8 -19 -8q-12 0 -20 8t-8 21q0 12 8 20t20 8q11 0 19 -8t8 -20q0 -13 -8 -21zM505 212q-4 -4 -9 -4h-17v28h17q5 0 9 -4t4 -10t-4 -10z
M1265 183l25 24l-25 24l-8 -7l13 -11h-458v-12h458l-13 -11zM526 53.5q17 -16.5 42 -16.5t42 16.5t17 41.5q0 24 -17 40.5t-42 16.5t-42 -16.5t-17 -40.5q0 -25 17 -41.5zM836 47q16 -10 38 -10q19 0 31.5 10t12.5 27q0 27 -36 35q-3 1 -7 2t-5.5 2.5t-1.5 3.5q0 4 11 4
q7 0 16.5 -3t15.5 -8v34q-18 8 -32 8q-21 0 -33 -9t-12 -25q0 -14 7.5 -21.5t24.5 -13.5q3 -1 10 -3t7 -6q0 -6 -9 -6q-13 0 -38 16v-37zM981 53.5q17 -16.5 41 -16.5q12 0 26 7l1 35q-10 -10 -25 -10q-11 0 -18 7.5t-7 18.5t7.5 18t17.5 7t22 -7v33q-10 6 -23 6
q-25 0 -42 -16.5t-17 -40.5q0 -25 17 -41.5zM1069 53.5q17 -16.5 43 -16.5q25 0 42 16.5t17 41.5q0 24 -17 40.5t-42 16.5t-42.5 -16.5t-17.5 -40.5q0 -25 17 -41.5zM47 118h36l-41 -78h95v31h-38l41 78h-93v-31zM226 149h-79v-109h80v30h-45v10h38v30h-38v9h44v30zM231 118
h26v-78h35v78h26v31h-87v-31zM347 57h31l4 -17h38l-37 109h-40l-37 -109h36zM505 149h-79v-109h35v34h37v29h-37v16h44v30zM739 40v109h-35v-58l-33 58h-36v-109h35l-1 53l34 -53h36zM745 118h26v-78h35v78h25v31h-86v-31zM1213 149h-35v-109h35v43l14 -27h25l14 27v-43h34
v109h-35l-26 -50zM585 76.5q-7 -7.5 -17 -7.5t-17 7.5t-7 18.5t7 18t17 7t17 -7t7 -18t-7 -18.5zM1129 76.5q-7 -7.5 -17 -7.5q-11 0 -18 7.5t-7 18.5t7.5 18t17.5 7t17 -7.5t7 -17.5q0 -11 -7 -18.5zM363 112l7 -26h-15l7 26h1zM928 42q5 -5 13 -5q7 0 12 5t5 12t-5 11.5
t-12 4.5q-8 0 -13 -4.5t-5 -11.5t5 -12z" />
    <glyph glyph-name="six" unicode="6" horiz-adv-x="1347" 
d="M1301 462v-193h-1254v193h486q4 56 44.5 94t96.5 38t96.5 -38t44.5 -94h486zM759 547q-38 33 -85 33q-49 0 -85 -33h170zM772 371q29 35 29 81q0 48 -32 85l-166 -166h169zM575 533q-29 -35 -29 -81q0 -49 33 -85l167 166h-171zM938 321q19 18 19 46q0 27 -19 45t-47 18
t-46.5 -18t-18.5 -45q0 -28 18.5 -46t46.5 -18t47 18zM138 392h28v35h-96v-35h29v-86h39v86zM235 306h41l-21 46q14 12 14 32q0 18 -13.5 30.5t-32.5 12.5h-50v-121h39v35h8zM282 306h38v121h-38v-121zM407 325l5 -19h42l-41 121h-45l-41 -121h41l5 19h34zM461 306h82v33
h-43v88h-39v-121zM1041 306h40v121h-39v-64l-37 64h-40v-121h39l-1 59zM1093 306h82v33h-43v88h-39v-121zM1236 306v48l41 73h-45l-16 -36l-15 36h-46l42 -73v-48h39zM910.5 387q7.5 -8 7.5 -20q0 -13 -7.5 -21t-19.5 -8q-11 0 -19 8t-8 21q0 12 8 20t19 8q12 0 19.5 -8z
M222 394q3 0 5.5 -3t2.5 -7t-2.5 -7.5t-5.5 -3.5h-10v21h10zM381 357l8 29h1l8 -29h-17zM589 357q37 -32 85 -32t85 32h-170zM530 176q12 -7 26 -7q11 0 18.5 6t7.5 17q0 13 -23 22q-9 3 -12.5 5.5t-3.5 7.5t4 8t10 3q11 0 20 -7v13q-10 5 -20 5q-12 0 -19 -6t-7 -16
q0 -9 5 -13.5t17 -9.5q17 -5 17 -12q0 -12 -14 -12q-13 0 -26 9v-13zM630.5 180.5q11.5 -11.5 28.5 -11.5t28.5 11.5t11.5 28.5t-11.5 28.5t-28.5 11.5t-28.5 -11.5t-11.5 -28.5t11.5 -28.5zM778 168v79h-12v-54l-49 55h-6v-78h12v52l49 -54h6zM96 247h-50v-77h12v29h33v11
h-33v26h38v11zM106 200q0 -13 9 -22t22 -9q14 0 23 8.5t9 22.5v47h-12v-47q0 -8 -6 -14t-14 -6t-13.5 5.5t-5.5 14.5v47h-12v-47zM196 247h-12v-77h47v11h-35v66zM254 247h-12v-77h48v11h-36v66zM362 170l32 77h-14l-22 -57l-22 57h-14l32 -77h8zM454 247h-50v-77h50v11h-38
v23h33v10h-33v22h38v11zM510 170h14l-15 31q12 7 12 21q0 11 -7 18t-18 7h-29v-77h12v28h18zM606 247h-12v-77h12v77zM678 188q-8 -8 -19 -8q-12 0 -20 8t-8 21q0 12 8 20t20 8q11 0 19 -8t8 -20q0 -13 -8 -21zM505 212q-4 -4 -9 -4h-17v28h17q5 0 9 -4t4 -10t-4 -10z
M1265 183l25 24l-25 24l-8 -7l13 -11h-458v-12h458l-13 -11zM526 53.5q17 -16.5 42 -16.5t42 16.5t17 41.5q0 24 -17 40.5t-42 16.5t-42 -16.5t-17 -40.5q0 -25 17 -41.5zM836 47q16 -10 38 -10q19 0 31.5 10t12.5 27q0 27 -36 35q-3 1 -7 2t-5.5 2.5t-1.5 3.5q0 4 11 4
q7 0 16.5 -3t15.5 -8v34q-18 8 -32 8q-21 0 -33 -9t-12 -25q0 -14 7.5 -21.5t24.5 -13.5q3 -1 10 -3t7 -6q0 -6 -9 -6q-13 0 -38 16v-37zM981 53.5q17 -16.5 41 -16.5q12 0 26 7l1 35q-10 -10 -25 -10q-11 0 -18 7.5t-7 18.5t7.5 18t17.5 7t22 -7v33q-10 6 -23 6
q-25 0 -42 -16.5t-17 -40.5q0 -25 17 -41.5zM1069 53.5q17 -16.5 43 -16.5q25 0 42 16.5t17 41.5q0 24 -17 40.5t-42 16.5t-42.5 -16.5t-17.5 -40.5q0 -25 17 -41.5zM47 118h36l-41 -78h95v31h-38l41 78h-93v-31zM226 149h-79v-109h80v30h-45v10h38v30h-38v9h44v30zM231 118
h26v-78h35v78h26v31h-87v-31zM347 57h31l4 -17h38l-37 109h-40l-37 -109h36zM505 149h-79v-109h35v34h37v29h-37v16h44v30zM739 40v109h-35v-58l-33 58h-36v-109h35l-1 53l34 -53h36zM745 118h26v-78h35v78h25v31h-86v-31zM1213 149h-35v-109h35v43l14 -27h25l14 27v-43h34
v109h-35l-26 -50zM585 76.5q-7 -7.5 -17 -7.5t-17 7.5t-7 18.5t7 18t17 7t17 -7t7 -18t-7 -18.5zM1129 76.5q-7 -7.5 -17 -7.5q-11 0 -18 7.5t-7 18.5t7.5 18t17.5 7t17 -7.5t7 -17.5q0 -11 -7 -18.5zM363 112l7 -26h-15l7 26h1zM928 42q5 -5 13 -5q7 0 12 5t5 12t-5 11.5
t-12 4.5q-8 0 -13 -4.5t-5 -11.5t5 -12z" />
    <glyph glyph-name="seven" unicode="7" horiz-adv-x="1347" 
d="M1301 462v-193h-1254v193h486q4 56 44.5 94t96.5 38t96.5 -38t44.5 -94h486zM759 547q-38 33 -85 33q-49 0 -85 -33h170zM772 371q29 35 29 81q0 48 -32 85l-166 -166h169zM575 533q-29 -35 -29 -81q0 -49 33 -85l167 166h-171zM938 321q19 18 19 46q0 27 -19 45t-47 18
t-46.5 -18t-18.5 -45q0 -28 18.5 -46t46.5 -18t47 18zM138 392h28v35h-96v-35h29v-86h39v86zM235 306h41l-21 46q14 12 14 32q0 18 -13.5 30.5t-32.5 12.5h-50v-121h39v35h8zM282 306h38v121h-38v-121zM407 325l5 -19h42l-41 121h-45l-41 -121h41l5 19h34zM461 306h82v33
h-43v88h-39v-121zM1041 306h40v121h-39v-64l-37 64h-40v-121h39l-1 59zM1093 306h82v33h-43v88h-39v-121zM1236 306v48l41 73h-45l-16 -36l-15 36h-46l42 -73v-48h39zM910.5 387q7.5 -8 7.5 -20q0 -13 -7.5 -21t-19.5 -8q-11 0 -19 8t-8 21q0 12 8 20t19 8q12 0 19.5 -8z
M222 394q3 0 5.5 -3t2.5 -7t-2.5 -7.5t-5.5 -3.5h-10v21h10zM381 357l8 29h1l8 -29h-17zM589 357q37 -32 85 -32t85 32h-170zM530 176q12 -7 26 -7q11 0 18.5 6t7.5 17q0 13 -23 22q-9 3 -12.5 5.5t-3.5 7.5t4 8t10 3q11 0 20 -7v13q-10 5 -20 5q-12 0 -19 -6t-7 -16
q0 -9 5 -13.5t17 -9.5q17 -5 17 -12q0 -12 -14 -12q-13 0 -26 9v-13zM630.5 180.5q11.5 -11.5 28.5 -11.5t28.5 11.5t11.5 28.5t-11.5 28.5t-28.5 11.5t-28.5 -11.5t-11.5 -28.5t11.5 -28.5zM778 168v79h-12v-54l-49 55h-6v-78h12v52l49 -54h6zM96 247h-50v-77h12v29h33v11
h-33v26h38v11zM106 200q0 -13 9 -22t22 -9q14 0 23 8.5t9 22.5v47h-12v-47q0 -8 -6 -14t-14 -6t-13.5 5.5t-5.5 14.5v47h-12v-47zM196 247h-12v-77h47v11h-35v66zM254 247h-12v-77h48v11h-36v66zM362 170l32 77h-14l-22 -57l-22 57h-14l32 -77h8zM454 247h-50v-77h50v11h-38
v23h33v10h-33v22h38v11zM510 170h14l-15 31q12 7 12 21q0 11 -7 18t-18 7h-29v-77h12v28h18zM606 247h-12v-77h12v77zM678 188q-8 -8 -19 -8q-12 0 -20 8t-8 21q0 12 8 20t20 8q11 0 19 -8t8 -20q0 -13 -8 -21zM505 212q-4 -4 -9 -4h-17v28h17q5 0 9 -4t4 -10t-4 -10z
M1265 183l25 24l-25 24l-8 -7l13 -11h-458v-12h458l-13 -11zM526 53.5q17 -16.5 42 -16.5t42 16.5t17 41.5q0 24 -17 40.5t-42 16.5t-42 -16.5t-17 -40.5q0 -25 17 -41.5zM836 47q16 -10 38 -10q19 0 31.5 10t12.5 27q0 27 -36 35q-3 1 -7 2t-5.5 2.5t-1.5 3.5q0 4 11 4
q7 0 16.5 -3t15.5 -8v34q-18 8 -32 8q-21 0 -33 -9t-12 -25q0 -14 7.5 -21.5t24.5 -13.5q3 -1 10 -3t7 -6q0 -6 -9 -6q-13 0 -38 16v-37zM981 53.5q17 -16.5 41 -16.5q12 0 26 7l1 35q-10 -10 -25 -10q-11 0 -18 7.5t-7 18.5t7.5 18t17.5 7t22 -7v33q-10 6 -23 6
q-25 0 -42 -16.5t-17 -40.5q0 -25 17 -41.5zM1069 53.5q17 -16.5 43 -16.5q25 0 42 16.5t17 41.5q0 24 -17 40.5t-42 16.5t-42.5 -16.5t-17.5 -40.5q0 -25 17 -41.5zM47 118h36l-41 -78h95v31h-38l41 78h-93v-31zM226 149h-79v-109h80v30h-45v10h38v30h-38v9h44v30zM231 118
h26v-78h35v78h26v31h-87v-31zM347 57h31l4 -17h38l-37 109h-40l-37 -109h36zM505 149h-79v-109h35v34h37v29h-37v16h44v30zM739 40v109h-35v-58l-33 58h-36v-109h35l-1 53l34 -53h36zM745 118h26v-78h35v78h25v31h-86v-31zM1213 149h-35v-109h35v43l14 -27h25l14 27v-43h34
v109h-35l-26 -50zM585 76.5q-7 -7.5 -17 -7.5t-17 7.5t-7 18.5t7 18t17 7t17 -7t7 -18t-7 -18.5zM1129 76.5q-7 -7.5 -17 -7.5q-11 0 -18 7.5t-7 18.5t7.5 18t17.5 7t17 -7.5t7 -17.5q0 -11 -7 -18.5zM363 112l7 -26h-15l7 26h1zM928 42q5 -5 13 -5q7 0 12 5t5 12t-5 11.5
t-12 4.5q-8 0 -13 -4.5t-5 -11.5t5 -12z" />
    <glyph glyph-name="eight" unicode="8" horiz-adv-x="1347" 
d="M1301 462v-193h-1254v193h486q4 56 44.5 94t96.5 38t96.5 -38t44.5 -94h486zM759 547q-38 33 -85 33q-49 0 -85 -33h170zM772 371q29 35 29 81q0 48 -32 85l-166 -166h169zM575 533q-29 -35 -29 -81q0 -49 33 -85l167 166h-171zM938 321q19 18 19 46q0 27 -19 45t-47 18
t-46.5 -18t-18.5 -45q0 -28 18.5 -46t46.5 -18t47 18zM138 392h28v35h-96v-35h29v-86h39v86zM235 306h41l-21 46q14 12 14 32q0 18 -13.5 30.5t-32.5 12.5h-50v-121h39v35h8zM282 306h38v121h-38v-121zM407 325l5 -19h42l-41 121h-45l-41 -121h41l5 19h34zM461 306h82v33
h-43v88h-39v-121zM1041 306h40v121h-39v-64l-37 64h-40v-121h39l-1 59zM1093 306h82v33h-43v88h-39v-121zM1236 306v48l41 73h-45l-16 -36l-15 36h-46l42 -73v-48h39zM910.5 387q7.5 -8 7.5 -20q0 -13 -7.5 -21t-19.5 -8q-11 0 -19 8t-8 21q0 12 8 20t19 8q12 0 19.5 -8z
M222 394q3 0 5.5 -3t2.5 -7t-2.5 -7.5t-5.5 -3.5h-10v21h10zM381 357l8 29h1l8 -29h-17zM589 357q37 -32 85 -32t85 32h-170zM530 176q12 -7 26 -7q11 0 18.5 6t7.5 17q0 13 -23 22q-9 3 -12.5 5.5t-3.5 7.5t4 8t10 3q11 0 20 -7v13q-10 5 -20 5q-12 0 -19 -6t-7 -16
q0 -9 5 -13.5t17 -9.5q17 -5 17 -12q0 -12 -14 -12q-13 0 -26 9v-13zM630.5 180.5q11.5 -11.5 28.5 -11.5t28.5 11.5t11.5 28.5t-11.5 28.5t-28.5 11.5t-28.5 -11.5t-11.5 -28.5t11.5 -28.5zM778 168v79h-12v-54l-49 55h-6v-78h12v52l49 -54h6zM96 247h-50v-77h12v29h33v11
h-33v26h38v11zM106 200q0 -13 9 -22t22 -9q14 0 23 8.5t9 22.5v47h-12v-47q0 -8 -6 -14t-14 -6t-13.5 5.5t-5.5 14.5v47h-12v-47zM196 247h-12v-77h47v11h-35v66zM254 247h-12v-77h48v11h-36v66zM362 170l32 77h-14l-22 -57l-22 57h-14l32 -77h8zM454 247h-50v-77h50v11h-38
v23h33v10h-33v22h38v11zM510 170h14l-15 31q12 7 12 21q0 11 -7 18t-18 7h-29v-77h12v28h18zM606 247h-12v-77h12v77zM678 188q-8 -8 -19 -8q-12 0 -20 8t-8 21q0 12 8 20t20 8q11 0 19 -8t8 -20q0 -13 -8 -21zM505 212q-4 -4 -9 -4h-17v28h17q5 0 9 -4t4 -10t-4 -10z
M1265 183l25 24l-25 24l-8 -7l13 -11h-458v-12h458l-13 -11zM526 53.5q17 -16.5 42 -16.5t42 16.5t17 41.5q0 24 -17 40.5t-42 16.5t-42 -16.5t-17 -40.5q0 -25 17 -41.5zM836 47q16 -10 38 -10q19 0 31.5 10t12.5 27q0 27 -36 35q-3 1 -7 2t-5.5 2.5t-1.5 3.5q0 4 11 4
q7 0 16.5 -3t15.5 -8v34q-18 8 -32 8q-21 0 -33 -9t-12 -25q0 -14 7.5 -21.5t24.5 -13.5q3 -1 10 -3t7 -6q0 -6 -9 -6q-13 0 -38 16v-37zM981 53.5q17 -16.5 41 -16.5q12 0 26 7l1 35q-10 -10 -25 -10q-11 0 -18 7.5t-7 18.5t7.5 18t17.5 7t22 -7v33q-10 6 -23 6
q-25 0 -42 -16.5t-17 -40.5q0 -25 17 -41.5zM1069 53.5q17 -16.5 43 -16.5q25 0 42 16.5t17 41.5q0 24 -17 40.5t-42 16.5t-42.5 -16.5t-17.5 -40.5q0 -25 17 -41.5zM47 118h36l-41 -78h95v31h-38l41 78h-93v-31zM226 149h-79v-109h80v30h-45v10h38v30h-38v9h44v30zM231 118
h26v-78h35v78h26v31h-87v-31zM347 57h31l4 -17h38l-37 109h-40l-37 -109h36zM505 149h-79v-109h35v34h37v29h-37v16h44v30zM739 40v109h-35v-58l-33 58h-36v-109h35l-1 53l34 -53h36zM745 118h26v-78h35v78h25v31h-86v-31zM1213 149h-35v-109h35v43l14 -27h25l14 27v-43h34
v109h-35l-26 -50zM585 76.5q-7 -7.5 -17 -7.5t-17 7.5t-7 18.5t7 18t17 7t17 -7t7 -18t-7 -18.5zM1129 76.5q-7 -7.5 -17 -7.5q-11 0 -18 7.5t-7 18.5t7.5 18t17.5 7t17 -7.5t7 -17.5q0 -11 -7 -18.5zM363 112l7 -26h-15l7 26h1zM928 42q5 -5 13 -5q7 0 12 5t5 12t-5 11.5
t-12 4.5q-8 0 -13 -4.5t-5 -11.5t5 -12z" />
    <glyph glyph-name="nine" unicode="9" horiz-adv-x="1347" 
d="M1301 462v-193h-1254v193h486q4 56 44.5 94t96.5 38t96.5 -38t44.5 -94h486zM759 547q-38 33 -85 33q-49 0 -85 -33h170zM772 371q29 35 29 81q0 48 -32 85l-166 -166h169zM575 533q-29 -35 -29 -81q0 -49 33 -85l167 166h-171zM938 321q19 18 19 46q0 27 -19 45t-47 18
t-46.5 -18t-18.5 -45q0 -28 18.5 -46t46.5 -18t47 18zM138 392h28v35h-96v-35h29v-86h39v86zM235 306h41l-21 46q14 12 14 32q0 18 -13.5 30.5t-32.5 12.5h-50v-121h39v35h8zM282 306h38v121h-38v-121zM407 325l5 -19h42l-41 121h-45l-41 -121h41l5 19h34zM461 306h82v33
h-43v88h-39v-121zM1041 306h40v121h-39v-64l-37 64h-40v-121h39l-1 59zM1093 306h82v33h-43v88h-39v-121zM1236 306v48l41 73h-45l-16 -36l-15 36h-46l42 -73v-48h39zM910.5 387q7.5 -8 7.5 -20q0 -13 -7.5 -21t-19.5 -8q-11 0 -19 8t-8 21q0 12 8 20t19 8q12 0 19.5 -8z
M222 394q3 0 5.5 -3t2.5 -7t-2.5 -7.5t-5.5 -3.5h-10v21h10zM381 357l8 29h1l8 -29h-17zM589 357q37 -32 85 -32t85 32h-170zM530 176q12 -7 26 -7q11 0 18.5 6t7.5 17q0 13 -23 22q-9 3 -12.5 5.5t-3.5 7.5t4 8t10 3q11 0 20 -7v13q-10 5 -20 5q-12 0 -19 -6t-7 -16
q0 -9 5 -13.5t17 -9.5q17 -5 17 -12q0 -12 -14 -12q-13 0 -26 9v-13zM630.5 180.5q11.5 -11.5 28.5 -11.5t28.5 11.5t11.5 28.5t-11.5 28.5t-28.5 11.5t-28.5 -11.5t-11.5 -28.5t11.5 -28.5zM778 168v79h-12v-54l-49 55h-6v-78h12v52l49 -54h6zM96 247h-50v-77h12v29h33v11
h-33v26h38v11zM106 200q0 -13 9 -22t22 -9q14 0 23 8.5t9 22.5v47h-12v-47q0 -8 -6 -14t-14 -6t-13.5 5.5t-5.5 14.5v47h-12v-47zM196 247h-12v-77h47v11h-35v66zM254 247h-12v-77h48v11h-36v66zM362 170l32 77h-14l-22 -57l-22 57h-14l32 -77h8zM454 247h-50v-77h50v11h-38
v23h33v10h-33v22h38v11zM510 170h14l-15 31q12 7 12 21q0 11 -7 18t-18 7h-29v-77h12v28h18zM606 247h-12v-77h12v77zM678 188q-8 -8 -19 -8q-12 0 -20 8t-8 21q0 12 8 20t20 8q11 0 19 -8t8 -20q0 -13 -8 -21zM505 212q-4 -4 -9 -4h-17v28h17q5 0 9 -4t4 -10t-4 -10z
M1265 183l25 24l-25 24l-8 -7l13 -11h-458v-12h458l-13 -11zM526 53.5q17 -16.5 42 -16.5t42 16.5t17 41.5q0 24 -17 40.5t-42 16.5t-42 -16.5t-17 -40.5q0 -25 17 -41.5zM836 47q16 -10 38 -10q19 0 31.5 10t12.5 27q0 27 -36 35q-3 1 -7 2t-5.5 2.5t-1.5 3.5q0 4 11 4
q7 0 16.5 -3t15.5 -8v34q-18 8 -32 8q-21 0 -33 -9t-12 -25q0 -14 7.5 -21.5t24.5 -13.5q3 -1 10 -3t7 -6q0 -6 -9 -6q-13 0 -38 16v-37zM981 53.5q17 -16.5 41 -16.5q12 0 26 7l1 35q-10 -10 -25 -10q-11 0 -18 7.5t-7 18.5t7.5 18t17.5 7t22 -7v33q-10 6 -23 6
q-25 0 -42 -16.5t-17 -40.5q0 -25 17 -41.5zM1069 53.5q17 -16.5 43 -16.5q25 0 42 16.5t17 41.5q0 24 -17 40.5t-42 16.5t-42.5 -16.5t-17.5 -40.5q0 -25 17 -41.5zM47 118h36l-41 -78h95v31h-38l41 78h-93v-31zM226 149h-79v-109h80v30h-45v10h38v30h-38v9h44v30zM231 118
h26v-78h35v78h26v31h-87v-31zM347 57h31l4 -17h38l-37 109h-40l-37 -109h36zM505 149h-79v-109h35v34h37v29h-37v16h44v30zM739 40v109h-35v-58l-33 58h-36v-109h35l-1 53l34 -53h36zM745 118h26v-78h35v78h25v31h-86v-31zM1213 149h-35v-109h35v43l14 -27h25l14 27v-43h34
v109h-35l-26 -50zM585 76.5q-7 -7.5 -17 -7.5t-17 7.5t-7 18.5t7 18t17 7t17 -7t7 -18t-7 -18.5zM1129 76.5q-7 -7.5 -17 -7.5q-11 0 -18 7.5t-7 18.5t7.5 18t17.5 7t17 -7.5t7 -17.5q0 -11 -7 -18.5zM363 112l7 -26h-15l7 26h1zM928 42q5 -5 13 -5q7 0 12 5t5 12t-5 11.5
t-12 4.5q-8 0 -13 -4.5t-5 -11.5t5 -12z" />
    <glyph glyph-name="colon" unicode=":" horiz-adv-x="238" 
d="M49.5 13q-26.5 24 -26.5 66q0 41 26 64.5t71 23.5t71 -23.5t26 -64.5q0 -42 -26.5 -66t-70.5 -24t-70.5 24zM48.5 387q-26.5 24 -26.5 66q0 41 26 64.5t71 23.5t71 -23.5t26 -64.5q0 -42 -26.5 -66t-70.5 -24t-70.5 24z" />
    <glyph glyph-name="semicolon" unicode=";" horiz-adv-x="239" 
d="M49.5 389q-26.5 24 -26.5 66q0 41 26 64.5t71 23.5t71 -23.5t26 -64.5q0 -42 -26.5 -66t-70.5 -24t-70.5 24zM109 -14q-41 0 -64 24t-23 67q0 41 26.5 65t70.5 24q48 0 72.5 -24.5t24.5 -69.5q0 -29 -15 -56.5t-40 -61.5l-54 -75h-61z" />
    <glyph glyph-name="less" unicode="&#x3c;" horiz-adv-x="515" 
d="M472 106v-100l-429 209v103l429 206v-142l-303 -132z" />
    <glyph glyph-name="equal" unicode="=" horiz-adv-x="516" 
d="M473 247q-142 2 -215 2q-71 0 -215 -2v121q144 -2 215 -2q73 0 215 2v-121zM473 86q-71 2 -215 2q-143 0 -215 -2v121q72 -1 215 -1q144 0 215 1v-121z" />
    <glyph glyph-name="greater" unicode="&#x3e;" horiz-adv-x="515" 
d="M472 215l-429 -209v100l303 144l-303 132v142l429 -206v-103z" />
    <glyph glyph-name="question" unicode="?" horiz-adv-x="496" 
d="M140 235q-3 20 -3 37q0 41 23 68.5t85 44.5q49 15 73 30.5t24 36.5q0 20 -22.5 29t-67.5 9q-118 0 -234 -40v232q50 14 98.5 21.5t110.5 7.5q119 0 185 -47t66 -145q0 -83 -42.5 -127t-142.5 -69q-45 -12 -59.5 -32.5t-11.5 -55.5h-82zM114 12q-27 24 -27 65
q0 40 27 63.5t73 23.5q45 0 71 -23.5t26 -63.5q0 -41 -26 -65t-71 -24q-46 0 -73 24z" />
    <glyph glyph-name="at" unicode="@" horiz-adv-x="866" 
d="M636 450q-3 -30 -9 -60q-3 -21 -8 -60.5t-8 -66.5q-1 -11 -1 -29q0 -37 14.5 -53.5t54.5 -16.5q41 0 64 36.5t23 96.5q0 129 -87 179.5t-245 50.5q-167 0 -250.5 -76t-83.5 -220q0 -275 325 -275q131 0 217 36l35 -135q-61 -25 -118 -39t-131 -14q-138 0 -229 55
t-134 150t-43 218q0 129 51 229.5t146.5 156.5t222.5 56q121 0 212 -43t140.5 -124t49.5 -192q0 -83 -24 -145.5t-67 -96.5t-101 -34q-100 0 -125 92q-43 -80 -143 -80q-47 0 -89.5 21.5t-69 64t-26.5 102.5q0 62 24 113t72 81t117 30q91 0 128 -59l5 51h91zM523 260
q0 27 -29 41.5t-87 14.5q-67 0 -98.5 -17.5t-31.5 -53.5q0 -30 27.5 -43.5t88.5 -13.5q130 0 130 72z" />
    <glyph glyph-name="A" unicode="A" horiz-adv-x="652" 
d="M547 0l-37 118h-366l-36 -118h-103q95 288 221 700h199q107 -350 221 -700h-99zM252 474l-46 -153h241l-48 153h-147z" />
    <glyph glyph-name="B" unicode="B" horiz-adv-x="659" 
d="M43 0q4 214 4 350t-4 350h347q108 0 166 -50t58 -141q0 -57 -28.5 -96t-84.5 -55v-1q65 -12 102 -57t37 -103q0 -94 -63 -145.5t-176 -51.5h-358zM420 397q27 0 44 13.5t17 33.5q0 44 -61 44h-282v-91h282zM434 212q31 0 49.5 13.5t18.5 40.5q0 24 -19.5 38t-50.5 14
h-294v-106h296z" />
    <glyph glyph-name="C" unicode="C" horiz-adv-x="614" 
d="M110.5 80q-88.5 92 -88.5 268q0 178 88.5 270.5t251.5 92.5q130 0 214 -38l1 -223q-56 16 -109 23t-128 7q-112 0 -166 -32t-54 -99q0 -65 55 -97t167 -32q74 0 128.5 7.5t112.5 22.5l-1 -222q-47 -20 -100 -30t-121 -10q-162 0 -250.5 92z" />
    <glyph glyph-name="D" unicode="D" horiz-adv-x="675" 
d="M43 0q0 39 2 125q2 144 2 224q0 210 -4 351h248q120 0 199 -32.5t121 -110t42 -209.5q0 -130 -38 -205.5t-117 -109t-208 -33.5h-247zM345 229q72 0 116 8.5t68.5 35t24.5 76.5q0 53 -26.5 79t-71 34t-116.5 8h-201v-241h206z" />
    <glyph glyph-name="E" unicode="E" horiz-adv-x="575" 
d="M43 0q4 216 4 348q0 205 -4 352h499v-230h-404v-70h177.5t176.5 1v-78q-88 1 -176.5 1h-177.5v-94h417v-230h-512z" />
    <glyph glyph-name="F" unicode="F" horiz-adv-x="562" 
d="M43 0q4 216 4 348q0 205 -4 352h503v-229h-408v-103h179t179 1v-83q-89 1 -179 1h-179q0 -35 2 -147q2 -90 2 -140h-99z" />
    <glyph glyph-name="G" unicode="G" horiz-adv-x="645" 
d="M99.5 79.5q-77.5 90.5 -77.5 264.5q0 181 87 274t250 93q135 0 238 -47v-220q-35 12 -115 24t-148 12q-110 0 -162 -32t-52 -101t52.5 -106.5t158.5 -37.5q91 0 129.5 22.5t40.5 66.5h-165v82h283q-2 -120 -2 -183q0 -61 2 -191h-88l4 141l-3 1q-23 -84 -77 -118.5
t-139 -34.5q-139 0 -216.5 90.5z" />
    <glyph glyph-name="H" unicode="H" horiz-adv-x="664" 
d="M621 700q-5 -237 -5 -350q0 -93 5 -328v-22h-99l4 255h-388l4 -255h-99q4 216 4 350q0 136 -4 350h99l-4 -215h387l-3 215h99z" />
    <glyph glyph-name="I" unicode="I" horiz-adv-x="185" 
d="M43 0q4 144 4 350q0 207 -4 350h99q-5 -177 -5 -350t5 -350h-99z" />
    <glyph glyph-name="J" unicode="J" horiz-adv-x="282" 
d="M5 233q40 -9 71 -9q32 0 48.5 9t23.5 32t7 68q0 201 -4 367h99q-3 -60 -3 -208l1 -172q1 -54 1 -152q0 -99 -35 -139.5t-106 -40.5q-28 0 -49 3t-54 12v230z" />
    <glyph glyph-name="K" unicode="K" horiz-adv-x="619" 
d="M496 0q0 16 1 30l1 71q0 68 -51 102t-135 34h-173q2 -171 4 -237h-100q4 144 4 350q0 207 -4 350h100q-2 -65 -4 -240h81l210 240h125l-221 -242q135 -11 198 -77t63 -200q0 -101 2 -181h-101z" />
    <glyph glyph-name="L" unicode="L" horiz-adv-x="551" 
d="M43 0q4 216 4 348q0 205 -4 352h99q-4 -208 -4 -471h402v-229h-497z" />
    <glyph glyph-name="M" unicode="M" horiz-adv-x="872" 
d="M43 0l1 73q3 258 3 263q0 118 -3 271l-1 93h250l145 -561h9l131 561h251l-1 -62q-3 -171 -3 -294q0 -140 4 -344h-101q2 124 2 164q2 96 2 123v207h-31l-126 -494h-190l-131 493h-31l1 -196l1 -133q2 -92 2 -164h-184z" />
    <glyph glyph-name="N" unicode="N" horiz-adv-x="680" 
d="M43 0q0 39 2 129q2 154 2 228q0 153 -4 343h209l268 -494h20l1 147q0 121 -5 347h101q-5 -270 -5 -350q0 -32 2 -192l2 -158h-210l-266 494h-21q0 -196 4 -494h-100z" />
    <glyph glyph-name="O" unicode="O" horiz-adv-x="716" 
d="M107 76.5q-85 91.5 -85 273.5q0 180 85 271t251 91t251 -91t85 -271q0 -182 -84.5 -273.5t-251.5 -91.5q-166 0 -251 91.5zM499 229.5q51 12.5 74 41t23 79.5q0 50 -23 78t-74 40t-141 12q-89 0 -140.5 -12t-74.5 -40.5t-23 -77.5q0 -51 23 -79.5t74 -41t141 -12.5
t141 12.5z" />
    <glyph glyph-name="P" unicode="P" horiz-adv-x="610" 
d="M43 0q4 232 4 349t-4 351h279q135 0 205 -63t70 -173q0 -127 -68 -185t-211 -58h-179q2 -62 2 -110l2 -111h-100zM344 307q122 0 122 89q0 39 -31 59t-80 20h-218v-168h207z" />
    <glyph glyph-name="Q" unicode="Q" horiz-adv-x="716" 
d="M733 69l-60 -68l-68 71q-84 -87 -247 -87q-166 0 -251 91.5t-85 273.5q0 180 85 271t251 91t251 -91t85 -271q0 -119 -38 -203zM459 222l-49 51l59 66l85 -87q42 30 42 98q0 50 -23 78t-74 40t-141 12q-89 0 -140.5 -12t-74.5 -40.5t-23 -77.5q0 -51 23 -79.5t74 -41
t141 -12.5q54 0 101 5z" />
    <glyph glyph-name="R" unicode="R" horiz-adv-x="641" 
d="M43 0l1 92q3 117 3 259q0 206 -4 349h289q136 0 206 -58.5t70 -171.5q0 -80 -26.5 -124t-80.5 -67v-2q55 -18 83 -62.5t28 -121.5q0 -55 1 -93h-100q1 31 1 96q0 70 -42 105.5t-118 35.5h-214q0 -38 1 -57q0 -79 3 -180h-101zM366 317q53 0 81 21t28 62q0 38 -30 59.5
t-82 21.5h-226v-164h229z" />
    <glyph glyph-name="S" unicode="S" horiz-adv-x="603" 
d="M164.5 1q-67.5 12 -129.5 33l-6 203q66 -15 130 -24t138 -9q75 0 105.5 13.5t30.5 37.5q0 17 -11.5 28t-44.5 17.5t-96 8.5q-91 4 -146.5 18.5t-86 52.5t-30.5 110q0 57 29 107t94 82t166 32q60 0 128 -13t111 -30l7 -213q-41 12 -106.5 22t-148.5 10q-72 0 -101.5 -11.5
t-29.5 -34.5q0 -15 10 -23.5t39.5 -14.5t88.5 -10q97 -6 155.5 -20.5t91.5 -53.5t33 -112q0 -115 -83 -166.5t-207 -51.5q-63 0 -130.5 12z" />
    <glyph glyph-name="T" unicode="T" horiz-adv-x="533" 
d="M217 0q4 149 4 322v151h-210v227h511v-227h-209q-1 -55 -1 -151q0 -186 5 -322h-100z" />
    <glyph glyph-name="U" unicode="U" horiz-adv-x="635" 
d="M97.5 64q-63.5 76 -63.5 213q0 305 -4 423h99q-3 -207 -3 -328q0 -48 15.5 -81t57.5 -52t119 -19t119 19t57.5 52t15.5 81q0 144 -4 328h99q-4 -99 -4 -264l1 -159q0 -138 -63.5 -213.5t-220.5 -75.5t-220.5 76z" />
    <glyph glyph-name="V" unicode="V" horiz-adv-x="651" 
d="M197 0q-97 374 -192 700h101q56 -218 129 -474h76q56 187 133 474h202q-101 -325 -204 -700h-245z" />
    <glyph glyph-name="W" unicode="W" horiz-adv-x="956" 
d="M135 0q-7 43 -75 425q-13 72 -49 275h101q31 -203 82 -486h47q62 324 90 486h188q43 -216 101 -486h50q54 324 79 486h196l-30 -156q-84 -436 -104 -544h-240q-24 129 -43 225.5t-32 161.5l-26 129h-3q-68 -344 -100 -516h-232z" />
    <glyph glyph-name="X" unicode="X" horiz-adv-x="648" 
d="M207 0h-202l207 385l-180 315h109l119 -208h61l111 208h202l-189 -347l190 -353h-108l-135 249h-54z" />
    <glyph glyph-name="Y" unicode="Y" horiz-adv-x="641" 
d="M164 -4q-67 11 -117 29v206q68 -20 128 -30.5t121 -10.5q99 0 159 43t60 134v56q-13 -51 -49 -84.5t-82.5 -49t-91.5 -15.5q-105 0 -163 34.5t-81.5 105.5t-23.5 189l-2 97h99v-81q0 -49 14.5 -78.5t56 -45t119.5 -15.5q104 0 153 34.5t49 105.5v80h98q-3 -217 -3 -359
q0 -178 -70.5 -267t-240.5 -89q-66 0 -133 11z" />
    <glyph glyph-name="Z" unicode="Z" horiz-adv-x="608" 
d="M586 0h-564v204l369 266v6h-352v224h533v-206l-375 -265v-5h389v-224z" />
    <glyph glyph-name="bracketleft" unicode="[" horiz-adv-x="277" 
d="M271 -12v-184h-228v896h228v-184h-145v-528h145z" />
    <glyph glyph-name="backslash" unicode="\" horiz-adv-x="447" 
d="M326 -96q-144 385 -320 796h115q157 -414 321 -796h-116z" />
    <glyph glyph-name="bracketright" unicode="]" horiz-adv-x="277" 
d="M234 -196h-228v184h145v528h-145v184h228v-896z" />
    <glyph glyph-name="asciicircum" unicode="^" horiz-adv-x="576" 
d="M366 699l184 -335h-159l-105 202l-104 -202h-158l184 335h158z" />
    <glyph glyph-name="underscore" unicode="_" horiz-adv-x="768" 
d="M771 -133q-97 1 -194.5 1h-194.5h-194.5t-194.5 -1v78q97 -1 194.5 -1.5t194.5 -0.5t194.5 0.5t194.5 1.5v-78z" />
    <glyph glyph-name="grave" unicode="`" horiz-adv-x="341" 
d="M85 895l214 -97l-17 -57l-240 33z" />
    <glyph glyph-name="a" unicode="a" horiz-adv-x="580" 
d="M541 534q-2 -144 -2 -268q0 -126 2 -266h-90l2 101q-26 -51 -72.5 -81t-112.5 -30q-116 0 -183.5 68.5t-67.5 203.5q0 143 68 212.5t189 69.5q63 0 108 -29t71 -80l-2 99h90zM414.5 206q38.5 18 38.5 61t-38.5 61t-133.5 18q-97 0 -138.5 -19.5t-41.5 -59.5t41.5 -59.5
t138.5 -19.5q95 0 133.5 18z" />
    <glyph glyph-name="b" unicode="b" horiz-adv-x="579" 
d="M495 475q67 -69 67 -207q0 -139 -67.5 -208.5t-183.5 -69.5q-126 0 -184 110q1 -42 1 -100h-89q2 77 2 349q0 231 -2 351h89q0 -89 -2 -267q59 111 186 111q116 0 183 -69zM436.5 207.5q41.5 19.5 41.5 59.5t-41 60t-138 20q-89 0 -129.5 -18t-43.5 -54v-15q4 -36 44 -54
t129 -18q96 0 137.5 19.5z" />
    <glyph glyph-name="c" unicode="c" horiz-adv-x="485" 
d="M82 58.5q-65 68.5 -65 208.5q0 141 65 209t203 68q83 0 169 -30l10 -188q-97 20 -194 20q-92 0 -130.5 -17.5t-38.5 -61.5t38.5 -62t129.5 -18q117 0 195 22l-10 -191q-89 -28 -169 -28q-138 0 -203 68.5z" />
    <glyph glyph-name="d" unicode="d" horiz-adv-x="579" 
d="M540 700q-2 -120 -2 -351q0 -272 2 -349h-89q0 58 1 100q-58 -110 -184 -110q-116 0 -183.5 69.5t-67.5 208.5q0 138 67 207t183 69q127 0 186 -111q-2 178 -2 267h89zM409 206q40 18 44 54v15q-3 36 -43.5 54t-129.5 18q-97 0 -138 -20t-41 -60t41.5 -59.5t137.5 -19.5
q89 0 129 18z" />
    <glyph glyph-name="e" unicode="e" horiz-adv-x="532" 
d="M515 230h-414q12 -36 54.5 -51t131.5 -15q64 0 113 7t103 21l-14 -170q-43 -15 -95.5 -23.5t-103.5 -8.5q-138 0 -205.5 68t-67.5 206q0 280 265 280q122 0 177.5 -70.5t55.5 -189.5v-54zM430 300q0 35 -37.5 55.5t-116.5 20.5q-84 0 -125.5 -18.5t-51.5 -57.5h331z" />
    <glyph glyph-name="f" unicode="f" horiz-adv-x="321" 
d="M308 326h-147v-90q0 -147 3 -236h-90q2 91 2 231v95h-58v208h65q-15 32 -15 75q0 79 44 119t120 40q38 0 66 -9l2 -183q-29 9 -71 9q-43 0 -60.5 -10.5t-17.5 -34.5v-6h157v-208z" />
    <glyph glyph-name="g" unicode="g" horiz-adv-x="580" 
d="M541 534q-2 -144 -2 -267l1 -220q0 -126 -63.5 -189.5t-194.5 -63.5q-96 0 -197 24l-9 170q55 -18 95 -27t94 -9q92 0 140.5 34t48.5 118v15q-27 -50 -74 -79.5t-116 -29.5q-114 0 -180.5 64t-66.5 194q0 138 66.5 207t180.5 69q68 0 115 -28.5t74 -78.5l-3 97h91z
M414.5 206q38.5 18 38.5 61q0 41 -39.5 60.5t-132.5 19.5q-97 0 -138.5 -20t-41.5 -60t41.5 -59.5t138.5 -19.5q95 0 133.5 18z" />
    <glyph glyph-name="h" unicode="h" horiz-adv-x="547" 
d="M469.5 489q42.5 -56 42.5 -154l-1 -132q-2 -116 -2 -161l1 -42h-89q2 112 2 164v51q-1 61 -37 85.5t-107 24.5q-82 0 -116.5 -34.5t-36.5 -110.5v-39q0 -57 3 -141h-90q2 79 2 267q0 183 -2 433h91q-2 -140 -2 -183l-1 -92q28 57 75 88.5t123 31.5q102 0 144.5 -56z" />
    <glyph glyph-name="i" unicode="i" horiz-adv-x="168" 
d="M37.5 612q-16.5 17 -16.5 50q0 32 16.5 49t46.5 17t46.5 -17t16.5 -49q0 -33 -16.5 -50t-46.5 -17t-46.5 17zM39 0q2 74 2 267q0 194 -2 267h90l-1 -56q-2 -132 -2 -211q0 -78 2 -208l1 -59h-90z" />
    <glyph glyph-name="j" unicode="j" horiz-adv-x="167" 
d="M-44 -196l-4 171l38 -1q26 0 38 17t12 56l1 211q0 94 -2 276h89q-3 -118 -3 -276q0 -88 1 -136l1 -167q0 -74 -28 -115.5t-95 -41.5q-29 0 -48 6zM34 613.5q-17 17.5 -17 50.5t17 50t47 17q31 0 47 -17.5t16 -49.5q0 -68 -63 -68q-30 0 -47 17.5z" />
    <glyph glyph-name="k" unicode="k" horiz-adv-x="521" 
d="M406 0v83q0 55 -34.5 74t-107.5 19h-137q2 -130 2 -176h-90q2 77 2 349q0 231 -2 351h90l-1 -123q-2 -148 -2 -204h65l146 161h122v-3l-152 -160q105 0 145 -58t40 -158l1 -155h-87z" />
    <glyph glyph-name="l" unicode="l" horiz-adv-x="168" 
d="M39 0q2 77 2 349q0 231 -2 351h90l-1 -137q-2 -158 -2 -214q0 -79 3 -349h-90z" />
    <glyph glyph-name="m" unicode="m" horiz-adv-x="841" 
d="M770 486q38 -59 36 -170q-4 -138 -4 -255q0 -50 1 -61h-87q2 36 2 123q0 68 -1 94q-2 58 -31.5 82.5t-92.5 24.5q-61 0 -94 -31.5t-34 -105.5q-1 -47 -1 -131q0 -47 1 -56h-85q2 36 2 125q0 68 -1 92q-2 56 -33.5 81.5t-89.5 25.5q-66 0 -98.5 -34.5t-33.5 -107.5l-1 -67
l1 -86q1 -9 1 -29h-88q2 79 2 267t-2 267h93l-5 -108q26 57 66.5 88t109.5 31t106 -32t50 -93q41 125 176 125q97 0 135 -59z" />
    <glyph glyph-name="n" unicode="n" horiz-adv-x="548" 
d="M473.5 485q41.5 -60 38.5 -166q-3 -111 -3 -216q0 -71 1 -103h-89q2 44 2 136v79q-1 61 -37 85t-107 24q-82 0 -116.5 -34t-35.5 -110l-1 -59q0 -52 3 -121h-90q2 73 2 267t-2 267h94q-1 -36 -5 -107q58 118 197 118q107 0 148.5 -60z" />
    <glyph glyph-name="o" unicode="o" horiz-adv-x="558" 
d="M80.5 59.5q-63.5 69.5 -63.5 207.5q0 139 63.5 208.5t198.5 69.5q134 0 197.5 -69.5t63.5 -208.5q0 -138 -63.5 -207.5t-197.5 -69.5q-135 0 -198.5 69.5zM415.5 207q40.5 19 40.5 60t-41 60.5t-135 19.5q-96 0 -137.5 -19.5t-41.5 -60.5t41.5 -60t137.5 -19
q95 0 135.5 19z" />
    <glyph glyph-name="p" unicode="p" horiz-adv-x="579" 
d="M494 474.5q68 -69.5 68 -208.5t-68 -207.5t-188 -68.5q-64 0 -108.5 29.5t-71.5 80.5q2 -178 2 -292h-89q2 146 2 377q0 272 -2 349h89q0 -57 -1 -98q27 50 71.5 79t107.5 29q120 0 188 -69.5zM437 207.5q41 19.5 41 59.5q0 41 -41.5 60.5t-137.5 19.5
q-93 0 -132.5 -19.5t-39.5 -60.5q0 -40 39.5 -59.5t132.5 -19.5q97 0 138 19.5z" />
    <glyph glyph-name="q" unicode="q" horiz-adv-x="580" 
d="M541 534q-3 -115 -3 -349q0 -158 3 -377h-90l2 290q-27 -50 -71.5 -79t-107.5 -29q-121 0 -189 68.5t-68 207.5t68.5 208.5t188.5 69.5q121 0 178 -107l-1 97h90zM411 206q40 18 42 56v11q-3 38 -43 56t-130 18q-96 0 -137.5 -19.5t-41.5 -60.5q0 -40 41.5 -59.5
t137.5 -19.5q91 0 131 18z" />
    <glyph glyph-name="r" unicode="r" horiz-adv-x="387" 
d="M372 541v-233q-20 4 -48.5 7t-49.5 3q-71 0 -109.5 -31.5t-38.5 -117.5q0 -36 1 -74.5t2 -74.5q1 -7 1 -20h-91q2 170 2 260q0 96 -2 274h95q-4 -74 -5 -108q34 61 83 90t109 29q34 0 51 -4z" />
    <glyph glyph-name="s" unicode="s" horiz-adv-x="492" 
d="M133 -8q-50 7 -98 22l-10 185q52 -14 107 -23t99 -9q47 0 65 8t18 26q0 16 -15 23.5t-56 11.5q-123 10 -172 47t-49 108q0 32 18 66.5t70 60.5t145 26q100 0 184 -26l4 -180q-105 25 -185 25q-37 0 -57 -6.5t-20 -22.5q0 -14 15 -21t60 -11q82 -7 129 -24.5t66.5 -47
t19.5 -73.5q0 -172 -251 -172q-37 0 -87 7z" />
    <glyph glyph-name="t" unicode="t" horiz-adv-x="380" 
d="M112.5 30q-36.5 40 -36.5 111q0 34 5 156q2 20 2 29h-67v204l67 4v97h86v-97h181v-208h-181q-2 -23 -2 -70q0 -41 17 -62.5t60 -21.5q35 0 62 2.5t59 10.5l-7 -172q-31 -10 -59 -16.5t-62 -6.5q-88 0 -124.5 40z" />
    <glyph glyph-name="u" unicode="u" horiz-adv-x="548" 
d="M509 534q-2 -73 -2 -267t2 -267h-94q1 36 5 107q-58 -118 -197 -118q-107 0 -148.5 60t-38.5 166q3 111 3 216q0 71 -1 103h89q-2 -44 -2 -136v-79q1 -61 37 -85t107 -24q82 0 116.5 34t35.5 110l1 59q0 52 -3 121h90z" />
    <glyph glyph-name="v" unicode="v" horiz-adv-x="522" 
d="M348 0h-189l-152 534h97l88 -317h50l95 317h179z" />
    <glyph glyph-name="w" unicode="w" horiz-adv-x="784" 
d="M306 0h-178l-121 534h95l66 -323h35l68 323h166l76 -323h36l64 323h164l-124 -534h-176l-87 389h-5z" />
    <glyph glyph-name="x" unicode="x" horiz-adv-x="535" 
d="M204 0h-197l133 283l-124 251h102l78 -166h51l71 166h198l-123 -256l135 -278h-102l-88 187h-52z" />
    <glyph glyph-name="y" unicode="y" horiz-adv-x="546" 
d="M508 534q-3 -117 -3 -266l1 -211q0 -136 -58.5 -199.5t-192.5 -63.5q-98 0 -191 24l-10 168q92 -34 183 -34q88 0 136 40.5t48 130.5v24q-27 -58 -76 -88.5t-112 -30.5q-109 0 -155 58t-42 177q2 118 2 219v52h88q-2 -78 -2 -121l1 -80q1 -55 37 -78t102 -23
q83 0 119.5 33.5t36.5 106.5l1 56q0 40 -3 106h90z" />
    <glyph glyph-name="z" unicode="z" horiz-adv-x="505" 
d="M482 0h-458v159l273 187v3h-256v185h431v-165l-273 -180v-4h283v-185z" />
    <glyph glyph-name="braceleft" unicode="{" horiz-adv-x="353" 
d="M288 -196q-80 0 -129.5 43t-49.5 138v111q0 20 -12.5 31.5t-34.5 11.5h-51v228h51q20 0 33.5 11t13.5 31v110q0 92 48.5 136.5t130.5 44.5h60v-184h-86q-34 0 -52 -16t-18 -55v-117q0 -27 -15 -47t-47 -28q32 -9 47 -29t15 -47v-118q0 -37 17.5 -54t52.5 -17h86v-184h-60
z" />
    <glyph glyph-name="bar" unicode="|" horiz-adv-x="178" 
d="M135 707v-881h-92v881h92z" />
    <glyph glyph-name="braceright" unicode="}" horiz-adv-x="353" 
d="M5 -196v184h87q35 0 52 17t17 54v118q0 27 15 47t47 29q-32 8 -47 28t-15 47v117q0 39 -17.5 55t-51.5 16h-87v184h60q82 0 130.5 -44.5t48.5 -136.5v-110q0 -20 13.5 -31t33.5 -11h51v-228h-51q-22 0 -34.5 -11.5t-12.5 -31.5v-111q0 -95 -49 -138t-130 -43h-60z" />
    <glyph glyph-name="asciitilde" unicode="~" horiz-adv-x="587" 
d="M43 173q2 80 41 120t109 40q30 0 53.5 -9t57.5 -26q23 -12 37.5 -18t28.5 -6q23 0 36.5 16t13.5 39h124q-4 -79 -42 -119.5t-106 -40.5q-30 0 -56 9.5t-56 25.5q-23 12 -38 17.5t-28 5.5q-24 0 -37.5 -14.5t-14.5 -39.5h-123z" />
    <glyph glyph-name="exclamdown" unicode="&#xa1;" horiz-adv-x="279" 
d="M210.5 519q26.5 -24 26.5 -66q0 -40 -26.5 -64t-70.5 -24t-70.5 24t-26.5 64q0 42 26.5 66t70.5 24t70.5 -24zM57 -170l46 458h75l45 -458h-166z" />
    <glyph glyph-name="cent" unicode="&#xa2;" horiz-adv-x="485" 
d="M306 188q92 3 158 21l-10 -191q-73 -24 -148 -27v-89h-49v89q-123 7 -181.5 75t-58.5 201t58.5 201t181.5 75v92h49v-91q77 -5 148 -30l10 -188q-81 16 -158 19v-157zM136.5 207q35.5 -18 120.5 -20v159q-85 -2 -120.5 -19.5t-35.5 -59.5t35.5 -60z" />
    <glyph glyph-name="sterling" unicode="&#xa3;" horiz-adv-x="549" 
d="M518 217v-217h-499l-1 175q43 14 72 39.5t29 54.5q0 22 -8 44l-116 -2v95l73 -1q-24 55 -24 106q0 87 62 143.5t194 56.5q58 0 103 -8.5t91 -26.5l1 -223q-104 47 -189 47q-66 0 -97.5 -17t-31.5 -53q0 -13 3 -25h60q96 0 144 1v-95q-118 2 -175 2q2 -16 2 -24
q0 -43 -21 -72h328z" />
    <glyph glyph-name="currency" unicode="&#xa4;" horiz-adv-x="489" 
d="M90 110l-68 67l56 61q-20 30 -27 52t-7 52q0 29 7.5 52t27.5 53l-56 61l65 68l70 -73q41 18 87 18t87 -17l68 72l67 -69l-56 -59q20 -31 28 -53.5t8 -52.5q0 -29 -8 -51.5t-28 -53.5l56 -60l-67 -67l-68 71q-41 -18 -87 -18q-44 0 -87 18zM357 290q33 17 33 54t-33 54
t-111 17q-81 0 -115.5 -17t-34.5 -53q0 -37 34.5 -54.5t115.5 -17.5q78 0 111 17z" />
    <glyph glyph-name="yen" unicode="&#xa5;" horiz-adv-x="622" 
d="M616 700l-211 -405h125v-44h-148l-22 -42h170v-42h-174v-49q0 -73 1 -118h-93q1 40 1 114v53h-182v42h178l-22 42h-156v44h133l-211 405h106l126 -257h148l125 257h106z" />
    <glyph glyph-name="brokenbar" unicode="&#xa6;" horiz-adv-x="178" 
d="M135 707v-404h-92v404h92zM135 216v-393h-92v393h92z" />
    <glyph glyph-name="section" unicode="&#xa7;" horiz-adv-x="537" 
d="M165.5 -128q-48.5 8 -94.5 26v203q103 -41 217 -41q48 0 78.5 14t30.5 40q0 20 -31.5 33t-87.5 18q-142 11 -201 44t-59 92q0 31 18.5 54t50.5 34q-33 22 -50 54.5t-17 82.5q0 55 29.5 97t83.5 65t126 23q64 0 112.5 -8.5t94.5 -26.5v-202q-54 21 -105.5 30t-108.5 9
q-112 0 -112 -46q0 -48 122 -58q138 -11 197.5 -44.5t59.5 -91.5q0 -31 -18.5 -54t-50.5 -34q35 -24 51.5 -51.5t16.5 -74.5q0 -93 -64.5 -144t-175.5 -51q-64 0 -112.5 8zM391.5 239.5q18.5 13.5 18.5 35.5q0 20 -13.5 32t-44 19.5t-88.5 13.5q-48 4 -71 7q-29 2 -47.5 -11
t-18.5 -37q0 -20 13.5 -32t44.5 -19.5t88 -13.5l72 -7q28 -1 46.5 12.5z" />
    <glyph glyph-name="dieresis" unicode="&#xa8;" horiz-adv-x="408" 
d="M60.5 788.5q-17.5 16.5 -17.5 47.5q0 29 18 46t49 17q32 0 50 -17t18 -46q0 -31 -18 -47.5t-50 -16.5t-49.5 16.5zM248 788.5q-17 16.5 -17 47.5q0 29 17.5 46t48.5 17q32 0 50 -17t18 -46q0 -30 -18 -47t-50 -17t-49 16.5z" />
    <glyph glyph-name="copyright" unicode="&#xa9;" horiz-adv-x="767" 
d="M189.5 33q-81.5 45 -124.5 127.5t-43 191.5q0 108 43 189t123.5 125t192.5 44q113 0 195 -44t125.5 -125t43.5 -189q0 -109 -43 -191.5t-124.5 -127.5t-193.5 -45q-113 0 -194.5 45zM532 129q64 32 99 90t35 133q0 74 -35 130.5t-99 87t-149 30.5t-148.5 -31t-98.5 -87
t-35 -130q0 -76 35 -133.5t98.5 -89.5t148.5 -32t149 32zM199 354q0 202 194 202q33 0 62 -6t63 -18l7 -132q-73 14 -131 14q-66 0 -95 -14t-29 -46q0 -31 29 -45t94 -14q45 0 75 3.5t57 11.5l-7 -135q-69 -22 -125 -22q-194 0 -194 201z" />
    <glyph glyph-name="ordfeminine" unicode="&#xaa;" horiz-adv-x="580" 
d="M541 534q-2 -144 -2 -268q0 -126 2 -266h-90l2 101q-26 -51 -72.5 -81t-112.5 -30q-116 0 -183.5 68.5t-67.5 203.5q0 143 68 212.5t189 69.5q63 0 108 -29t71 -80l-2 99h90zM414.5 206q38.5 18 38.5 61t-38.5 61t-133.5 18q-97 0 -138.5 -19.5t-41.5 -59.5t41.5 -59.5
t138.5 -19.5q95 0 133.5 18z" />
    <glyph glyph-name="guillemotleft" unicode="&#xab;" horiz-adv-x="522" 
d="M166 506h99l-104 -217v-40l104 -218h-99l-144 230v16zM401 506h99l-104 -217v-40l104 -218h-99l-144 230v16z" />
    <glyph glyph-name="logicalnot" unicode="&#xac;" horiz-adv-x="580" 
d="M537 409v-276h-117v157h-377v119h494z" />
    <glyph glyph-name="registered" unicode="&#xae;" horiz-adv-x="521" 
d="M81 311q-64 60 -64 171q0 108 63.5 168t177.5 60q117 0 181 -59t64 -169t-63 -170.5t-180 -60.5q-115 0 -179 60zM392.5 356q48.5 39 48.5 126q0 82 -47 121.5t-134 39.5t-134 -39t-47 -122q0 -84 48.5 -124.5t132.5 -40.5t132.5 39zM164 367l1 120q0 83 -1 119h113
q46 0 70 -20.5t24 -56.5q0 -23 -8.5 -37.5t-26.5 -22.5q18 -7 26 -23t8 -44q0 -23 1 -35h-48v39q0 24 -14 33t-37 9h-61q0 -55 1 -81h-48zM280 491q16 0 26 6.5t10 18.5q0 11 -9 17t-23 6h-74v-48h70z" />
    <glyph glyph-name="macron" unicode="&#xaf;" horiz-adv-x="388" 
d="M345 849v-77h-302v77h302z" />
    <glyph glyph-name="degree" unicode="&#xb0;" horiz-adv-x="416" 
d="M370 427q-24 -41 -66.5 -63.5t-96.5 -22.5t-96 23t-66 64.5t-24 95.5q0 52 24 92.5t66.5 63t95.5 22.5q83 0 135 -50t52 -132q0 -52 -24 -93zM268 460q22 23 22 62t-22 62t-61 23q-38 0 -60.5 -23.5t-22.5 -61.5q0 -40 22 -62.5t61 -22.5t61 23z" />
    <glyph glyph-name="plusminus" unicode="&#xb1;" horiz-adv-x="516" 
d="M196 118l2 133q-44 0 -134 -2v126q90 -2 134 -2q0 44 -2 134h124q-2 -90 -2 -134q45 0 135 2v-126l-135 2q0 -45 2 -133h-124zM43 110q144 -2 215 -2q73 0 215 2v-121q-71 1 -215 1q-143 0 -215 -1v121z" />
    <glyph glyph-name="acute" unicode="&#xb4;" horiz-adv-x="348" 
d="M60 755l-17 58l217 98l45 -123z" />
    <glyph glyph-name="paragraph" unicode="&#xb6;" horiz-adv-x="600" 
d="M479 -132v26q2 200 2 292l-1 297q-1 23 -1 71h-95q-1 -118 -1 -324q0 -218 1 -362h-79q2 130 2 192q0 48 -2 170q-151 3 -222 59t-71 180q0 90 40 140.5t112 70.5t181 20h212q-2 -270 -2 -409q0 -135 2 -423h-78z" />
    <glyph glyph-name="periodcentered" unicode="&#xb7;" horiz-adv-x="237" 
d="M48.5 259q-26.5 24 -26.5 66q0 41 26 64.5t71 23.5t71 -23.5t26 -64.5q0 -42 -26.5 -66t-70.5 -24t-70.5 24z" />
    <glyph glyph-name="cedilla" unicode="&#xb8;" horiz-adv-x="348" 
d="M64 -113q14 -4 42.5 -7.5t56.5 -3.5q29 0 40.5 5.5t11.5 15.5t-11 15t-40 5q-32 0 -67 -3l-20 -1l35 95l48 -7l-3 -40q11 3 40 3q52 0 80 -19t28 -56q0 -52 -36.5 -73.5t-104.5 -21.5q-57 0 -121 19z" />
    <glyph glyph-name="ordmasculine" unicode="&#xba;" horiz-adv-x="558" 
d="M80.5 59.5q-63.5 69.5 -63.5 207.5q0 139 63.5 208.5t198.5 69.5q134 0 197.5 -69.5t63.5 -208.5q0 -138 -63.5 -207.5t-197.5 -69.5q-135 0 -198.5 69.5zM415.5 207q40.5 19 40.5 60t-41 60.5t-135 19.5q-96 0 -137.5 -19.5t-41.5 -60.5t41.5 -60t137.5 -19
q95 0 135.5 19z" />
    <glyph glyph-name="guillemotright" unicode="&#xbb;" horiz-adv-x="522" 
d="M125 289l-103 217h99l144 -229v-16l-144 -230h-99l103 218v40zM361 289l-104 217h100l143 -229v-16l-143 -230h-100l104 218v40z" />
    <glyph glyph-name="questiondown" unicode="&#xbf;" horiz-adv-x="496" 
d="M381.5 521q26.5 -24 26.5 -65q0 -40 -26.5 -63.5t-72.5 -23.5q-45 0 -71.5 23.5t-26.5 63.5q0 41 26.5 65t71.5 24q46 0 72.5 -24zM356 298q3 -19 3 -37q0 -41 -23 -68.5t-85 -45.5q-50 -15 -73.5 -30.5t-23.5 -36.5q0 -37 86 -37q118 0 238 39v-231q-50 -14 -99 -21.5
t-110 -7.5q-119 0 -185 46.5t-66 145.5q0 83 42.5 126.5t142.5 68.5q45 13 59 33.5t11 55.5h83z" />
    <glyph glyph-name="Agrave" unicode="&#xc0;" horiz-adv-x="652" 
d="M547 0l-37 118h-366l-36 -118h-103q95 288 221 700h199q107 -350 221 -700h-99zM252 474l-46 -153h241l-48 153h-147zM238 914l214 -97l-17 -57l-240 33z" />
    <glyph glyph-name="Aacute" unicode="&#xc1;" horiz-adv-x="652" 
d="M547 0l-37 118h-366l-36 -118h-103q95 288 221 700h199q107 -350 221 -700h-99zM252 474l-46 -153h241l-48 153h-147zM214 761l-17 58l217 98l45 -123z" />
    <glyph glyph-name="Acircumflex" unicode="&#xc2;" horiz-adv-x="652" 
d="M547 0l-37 118h-366l-36 -118h-103q95 288 221 700h199q107 -350 221 -700h-99zM252 474l-46 -153h241l-48 153h-147zM315 789l-132 -34l-6 41l124 96h51l123 -96l-5 -41l-134 34h-21z" />
    <glyph glyph-name="Atilde" unicode="&#xc3;" horiz-adv-x="652" 
d="M547 0l-37 118h-366l-36 -118h-103q95 288 221 700h199q107 -350 221 -700h-99zM252 474l-46 -153h241l-48 153h-147zM356 761q-17 3 -31 6q-32 9 -61 9q-33 0 -58 -8v69q33 10 55 10q32 0 70 -10q34 -8 59 -8q33 0 58 8v-69q-32 -10 -54 -10q-21 0 -38 3z" />
    <glyph glyph-name="Adieresis" unicode="&#xc4;" horiz-adv-x="652" 
d="M547 0l-37 118h-366l-36 -118h-103q95 288 221 700h199q107 -350 221 -700h-99zM252 474l-46 -153h241l-48 153h-147zM182.5 771.5q-17.5 16.5 -17.5 47.5q0 29 18 46t49 17q32 0 50 -17t18 -46q0 -31 -18 -47.5t-50 -16.5t-49.5 16.5zM370 771.5q-17 16.5 -17 47.5
q0 29 17.5 46t48.5 17q32 0 50 -17t18 -46q0 -30 -18 -47t-50 -17t-49 16.5z" />
    <glyph glyph-name="Aring" unicode="&#xc5;" horiz-adv-x="652" 
d="M547 0l-37 118h-366l-36 -118h-103q95 288 221 700h199q107 -350 221 -700h-99zM252 474l-46 -153h241l-48 153h-147zM262.5 764.5q-24.5 22.5 -24.5 65.5q0 44 24.5 67t71.5 23t71.5 -23t24.5 -67q0 -43 -24.5 -65.5t-71.5 -22.5t-71.5 22.5zM379 830q0 13 -10 20t-35 7
q-45 0 -45 -27q0 -26 45 -26t45 26z" />
    <glyph glyph-name="AE" unicode="&#xc6;" horiz-adv-x="1084" 
d="M646 230h417v-230h-517v118h-356l-73 -118h-112l437 700h608v-230h-404v-70h177.5t176.5 1v-78q-88 1 -176.5 1h-177.5v-94zM412 475l-96 -154h230v154h-134z" />
    <glyph glyph-name="Ccedilla" unicode="&#xc7;" horiz-adv-x="614" 
d="M582 28q-93 -39 -214 -40l-2 -27q10 3 40 3q52 0 80 -19t28 -56q0 -52 -36.5 -73.5t-104.5 -21.5q-57 0 -121 19l21 74q14 -4 42.5 -7.5t56.5 -3.5q29 0 40.5 5.5t11.5 15.5t-11 15t-40 5q-33 0 -67 -3l-20 -1l28 77q-140 13 -216 104.5t-76 253.5q0 178 88.5 270.5
t251.5 92.5q130 0 214 -38l1 -223q-56 16 -109 23t-128 7q-112 0 -166 -32t-54 -99q0 -65 55 -97t167 -32q74 0 128.5 7.5t112.5 22.5z" />
    <glyph glyph-name="Egrave" unicode="&#xc8;" horiz-adv-x="575" 
d="M43 0q4 216 4 348q0 205 -4 352h499v-230h-404v-70h177.5t176.5 1v-78q-88 1 -176.5 1h-177.5v-94h417v-230h-512zM205 914l214 -97l-17 -57l-240 33z" />
    <glyph glyph-name="Eacute" unicode="&#xc9;" horiz-adv-x="575" 
d="M43 0q4 216 4 348q0 205 -4 352h499v-230h-404v-70h177.5t176.5 1v-78q-88 1 -176.5 1h-177.5v-94h417v-230h-512zM180 761l-17 58l217 98l45 -123z" />
    <glyph glyph-name="Ecircumflex" unicode="&#xca;" horiz-adv-x="575" 
d="M43 0q4 216 4 348q0 205 -4 352h499v-230h-404v-70h177.5t176.5 1v-78q-88 1 -176.5 1h-177.5v-94h417v-230h-512zM282 789l-132 -34l-6 41l124 96h51l123 -96l-5 -41l-134 34h-21z" />
    <glyph glyph-name="Edieresis" unicode="&#xcb;" horiz-adv-x="575" 
d="M43 0q4 216 4 348q0 205 -4 352h499v-230h-404v-70h177.5t176.5 1v-78q-88 1 -176.5 1h-177.5v-94h417v-230h-512zM149.5 771.5q-17.5 16.5 -17.5 47.5q0 29 18 46t49 17q32 0 50 -17t18 -46q0 -31 -18 -47.5t-50 -16.5t-49.5 16.5zM337 771.5q-17 16.5 -17 47.5
q0 29 17.5 46t48.5 17q32 0 50 -17t18 -46q0 -30 -18 -47t-50 -17t-49 16.5z" />
    <glyph glyph-name="Igrave" unicode="&#xcc;" horiz-adv-x="185" 
d="M43 0q4 144 4 350q0 207 -4 350h99q-5 -177 -5 -350t5 -350h-99zM5 914l214 -97l-17 -57l-240 33z" />
    <glyph glyph-name="Iacute" unicode="&#xcd;" horiz-adv-x="185" 
d="M43 0q4 144 4 350q0 207 -4 350h99q-5 -177 -5 -350t5 -350h-99zM-19 761l-17 58l217 98l45 -123z" />
    <glyph glyph-name="Icircumflex" unicode="&#xce;" horiz-adv-x="185" 
d="M43 0q4 144 4 350q0 207 -4 350h99q-5 -177 -5 -350t5 -350h-99zM82 789l-132 -34l-6 41l124 96h51l123 -96l-5 -41l-134 34h-21z" />
    <glyph glyph-name="Idieresis" unicode="&#xcf;" horiz-adv-x="185" 
d="M43 0q4 144 4 350q0 207 -4 350h99q-5 -177 -5 -350t5 -350h-99zM-50.5 771.5q-17.5 16.5 -17.5 47.5q0 29 18 46t49 17q32 0 50 -17t18 -46q0 -31 -18 -47.5t-50 -16.5t-49.5 16.5zM137 771.5q-17 16.5 -17 47.5q0 29 17.5 46t48.5 17q32 0 50 -17t18 -46q0 -30 -18 -47
t-50 -17t-49 16.5z" />
    <glyph glyph-name="Eth" unicode="&#xd0;" horiz-adv-x="710" 
d="M326 700q120 0 199 -32.5t121 -110t42 -209.5q0 -129 -38 -205t-117.5 -109.5t-208.5 -33.5h-247q4 178 5 306q-48 0 -71 -1v87q23 -1 71 -1q0 154 -5 309h249zM379 229q73 0 117 8.5t68 34.5t24 77q0 53 -26.5 79t-70.5 34t-116 8h-202v-80q138 0 200 2v-87
q-62 2 -200 2v-78h206z" />
    <glyph glyph-name="Ntilde" unicode="&#xd1;" horiz-adv-x="680" 
d="M43 0q0 39 2 129q2 154 2 228q0 153 -4 343h209l268 -494h20l1 147q0 121 -5 347h101q-5 -270 -5 -350q0 -32 2 -192l2 -158h-210l-266 494h-21q0 -196 4 -494h-100zM372 761q-17 3 -31 6q-32 9 -61 9q-33 0 -58 -8v69q33 10 55 10q32 0 70 -10q34 -8 59 -8q33 0 58 8
v-69q-32 -10 -54 -10q-21 0 -38 3z" />
    <glyph glyph-name="Ograve" unicode="&#xd2;" horiz-adv-x="716" 
d="M107 76.5q-85 91.5 -85 273.5q0 180 85 271t251 91t251 -91t85 -271q0 -182 -84.5 -273.5t-251.5 -91.5q-166 0 -251 91.5zM499 229.5q51 12.5 74 41t23 79.5q0 50 -23 78t-74 40t-141 12q-89 0 -140.5 -12t-74.5 -40.5t-23 -77.5q0 -51 23 -79.5t74 -41t141 -12.5
t141 12.5zM275 914l214 -97l-17 -57l-240 33z" />
    <glyph glyph-name="Oacute" unicode="&#xd3;" horiz-adv-x="716" 
d="M107 76.5q-85 91.5 -85 273.5q0 180 85 271t251 91t251 -91t85 -271q0 -182 -84.5 -273.5t-251.5 -91.5q-166 0 -251 91.5zM499 229.5q51 12.5 74 41t23 79.5q0 50 -23 78t-74 40t-141 12q-89 0 -140.5 -12t-74.5 -40.5t-23 -77.5q0 -51 23 -79.5t74 -41t141 -12.5
t141 12.5zM250 761l-17 58l217 98l45 -123z" />
    <glyph glyph-name="Ocircumflex" unicode="&#xd4;" horiz-adv-x="716" 
d="M107 76.5q-85 91.5 -85 273.5q0 180 85 271t251 91t251 -91t85 -271q0 -182 -84.5 -273.5t-251.5 -91.5q-166 0 -251 91.5zM499 229.5q51 12.5 74 41t23 79.5q0 50 -23 78t-74 40t-141 12q-89 0 -140.5 -12t-74.5 -40.5t-23 -77.5q0 -51 23 -79.5t74 -41t141 -12.5
t141 12.5zM352 789l-132 -34l-6 41l124 96h51l123 -96l-5 -41l-134 34h-21z" />
    <glyph glyph-name="Otilde" unicode="&#xd5;" horiz-adv-x="716" 
d="M107 76.5q-85 91.5 -85 273.5q0 180 85 271t251 91t251 -91t85 -271q0 -182 -84.5 -273.5t-251.5 -91.5q-166 0 -251 91.5zM499 229.5q51 12.5 74 41t23 79.5q0 50 -23 78t-74 40t-141 12q-89 0 -140.5 -12t-74.5 -40.5t-23 -77.5q0 -51 23 -79.5t74 -41t141 -12.5
t141 12.5zM393 761q-17 3 -31 6q-32 9 -61 9q-33 0 -58 -8v69q33 10 55 10q32 0 70 -10q34 -8 59 -8q33 0 58 8v-69q-32 -10 -54 -10q-21 0 -38 3z" />
    <glyph glyph-name="Odieresis" unicode="&#xd6;" horiz-adv-x="716" 
d="M107 76.5q-85 91.5 -85 273.5q0 180 85 271t251 91t251 -91t85 -271q0 -182 -84.5 -273.5t-251.5 -91.5q-166 0 -251 91.5zM499 229.5q51 12.5 74 41t23 79.5q0 50 -23 78t-74 40t-141 12q-89 0 -140.5 -12t-74.5 -40.5t-23 -77.5q0 -51 23 -79.5t74 -41t141 -12.5
t141 12.5zM219.5 771.5q-17.5 16.5 -17.5 47.5q0 29 18 46t49 17q32 0 50 -17t18 -46q0 -31 -18 -47.5t-50 -16.5t-49.5 16.5zM407 771.5q-17 16.5 -17 47.5q0 29 17.5 46t48.5 17q32 0 50 -17t18 -46q0 -30 -18 -47t-50 -17t-49 16.5z" />
    <glyph glyph-name="multiply" unicode="&#xd7;" horiz-adv-x="456" 
d="M413 317l-111 -108l93 -90l-59 -59l-90 93l-36 -37l-72 -74l-95 95q57 54 111 108l-61 59l-31 30l58 59l90 -92q54 54 108 111z" />
    <glyph glyph-name="Oslash" unicode="&#xd8;" horiz-adv-x="716" 
d="M694 350q0 -182 -84.5 -273.5t-251.5 -91.5q-93 0 -158 28l-33 -58h-89l58 95q-114 90 -114 300q0 180 85 271t251 91q94 0 160 -28l36 61h87l-61 -98q114 -90 114 -297zM148 263.5q28 -29.5 94 -39.5l155 255q-13 1 -39 1q-89 0 -140.5 -12t-74.5 -40.5t-23 -77.5
q0 -57 28 -86.5zM499 229.5q51 12.5 74 41t23 79.5q0 55 -28.5 84t-94.5 39q-104 -170 -155 -255q13 -1 40 -1q90 0 141 12.5z" />
    <glyph glyph-name="Ugrave" unicode="&#xd9;" horiz-adv-x="635" 
d="M97.5 64q-63.5 76 -63.5 213q0 305 -4 423h99q-3 -207 -3 -328q0 -48 15.5 -81t57.5 -52t119 -19t119 19t57.5 52t15.5 81q0 144 -4 328h99q-4 -99 -4 -264l1 -159q0 -138 -63.5 -213.5t-220.5 -75.5t-220.5 76zM238 914l214 -97l-17 -57l-240 33z" />
    <glyph glyph-name="Uacute" unicode="&#xda;" horiz-adv-x="635" 
d="M97.5 64q-63.5 76 -63.5 213q0 305 -4 423h99q-3 -207 -3 -328q0 -48 15.5 -81t57.5 -52t119 -19t119 19t57.5 52t15.5 81q0 144 -4 328h99q-4 -99 -4 -264l1 -159q0 -138 -63.5 -213.5t-220.5 -75.5t-220.5 76zM214 761l-17 58l217 98l45 -123z" />
    <glyph glyph-name="Ucircumflex" unicode="&#xdb;" horiz-adv-x="635" 
d="M97.5 64q-63.5 76 -63.5 213q0 305 -4 423h99q-3 -207 -3 -328q0 -48 15.5 -81t57.5 -52t119 -19t119 19t57.5 52t15.5 81q0 144 -4 328h99q-4 -99 -4 -264l1 -159q0 -138 -63.5 -213.5t-220.5 -75.5t-220.5 76zM315 789l-132 -34l-6 41l124 96h51l123 -96l-5 -41
l-134 34h-21z" />
    <glyph glyph-name="Udieresis" unicode="&#xdc;" horiz-adv-x="635" 
d="M97.5 64q-63.5 76 -63.5 213q0 305 -4 423h99q-3 -207 -3 -328q0 -48 15.5 -81t57.5 -52t119 -19t119 19t57.5 52t15.5 81q0 144 -4 328h99q-4 -99 -4 -264l1 -159q0 -138 -63.5 -213.5t-220.5 -75.5t-220.5 76zM182.5 771.5q-17.5 16.5 -17.5 47.5q0 29 18 46t49 17
q32 0 50 -17t18 -46q0 -31 -18 -47.5t-50 -16.5t-49.5 16.5zM370 771.5q-17 16.5 -17 47.5q0 29 17.5 46t48.5 17q32 0 50 -17t18 -46q0 -30 -18 -47t-50 -17t-49 16.5z" />
    <glyph glyph-name="Yacute" unicode="&#xdd;" horiz-adv-x="641" 
d="M164 -4q-67 11 -117 29v206q68 -20 128 -30.5t121 -10.5q99 0 159 43t60 134v56q-13 -51 -49 -84.5t-82.5 -49t-91.5 -15.5q-105 0 -163 34.5t-81.5 105.5t-23.5 189l-2 97h99v-81q0 -49 14.5 -78.5t56 -45t119.5 -15.5q104 0 153 34.5t49 105.5v80h98q-3 -217 -3 -359
q0 -178 -70.5 -267t-240.5 -89q-66 0 -133 11zM206 761l-17 58l217 98l45 -123z" />
    <glyph glyph-name="Thorn" unicode="&#xde;" horiz-adv-x="613" 
d="M320 604q138 0 209 -63.5t71 -176.5q0 -120 -70 -177t-208 -57h-183l3 -130h-99q4 144 4 350q0 207 -4 350h99q-2 -60 -2 -96h180zM338 222q57 0 87 19t30 57q0 36 -28 55t-77 19h-213v-22q0 -85 1 -128h200z" />
    <glyph glyph-name="germandbls" unicode="&#xdf;" horiz-adv-x="560" 
d="M39 -172q2 220 2 369l-1 234q0 138 54.5 209.5t171.5 71.5q96 0 156 -46.5t60 -129.5q0 -71 -37.5 -109t-90.5 -52v-2q40 -1 82 -18.5t72.5 -58.5t30.5 -107q0 -89 -49.5 -144t-152.5 -55q-93 0 -163 26l-10 188q74 -20 160 -20q46 0 76 16t30 44q0 43 -55 58.5
t-155 14.5v74q54 0 92.5 19.5t38.5 55.5q0 23 -29.5 39t-72.5 16q-64 0 -93 -35t-30 -107q-1 -70 -1 -213q0 -126 2 -338h-88z" />
    <glyph glyph-name="agrave" unicode="&#xe0;" horiz-adv-x="580" 
d="M541 534q-2 -144 -2 -268q0 -126 2 -266h-90l2 101q-26 -51 -72.5 -81t-112.5 -30q-116 0 -183.5 68.5t-67.5 203.5q0 143 68 212.5t189 69.5q63 0 108 -29t71 -80l-2 99h90zM414.5 206q38.5 18 38.5 61t-38.5 61t-133.5 18q-97 0 -138.5 -19.5t-41.5 -59.5t41.5 -59.5
t138.5 -19.5q95 0 133.5 18zM199 751l214 -97l-17 -57l-240 33z" />
    <glyph glyph-name="aacute" unicode="&#xe1;" horiz-adv-x="580" 
d="M541 534q-2 -144 -2 -268q0 -126 2 -266h-90l2 101q-26 -51 -72.5 -81t-112.5 -30q-116 0 -183.5 68.5t-67.5 203.5q0 143 68 212.5t189 69.5q63 0 108 -29t71 -80l-2 99h90zM414.5 206q38.5 18 38.5 61t-38.5 61t-133.5 18q-97 0 -138.5 -19.5t-41.5 -59.5t41.5 -59.5
t138.5 -19.5q95 0 133.5 18zM175 597l-17 56l214 97l43 -121z" />
    <glyph glyph-name="acircumflex" unicode="&#xe2;" horiz-adv-x="580" 
d="M541 534q-2 -144 -2 -268q0 -126 2 -266h-90l2 101q-26 -51 -72.5 -81t-112.5 -30q-116 0 -183.5 68.5t-67.5 203.5q0 143 68 212.5t189 69.5q63 0 108 -29t71 -80l-2 99h90zM414.5 206q38.5 18 38.5 61t-38.5 61t-133.5 18q-97 0 -138.5 -19.5t-41.5 -59.5t41.5 -59.5
t138.5 -19.5q95 0 133.5 18zM275 628l-132 -34l-6 41l124 96h51l123 -96l-5 -41l-134 34h-21z" />
    <glyph glyph-name="atilde" unicode="&#xe3;" horiz-adv-x="580" 
d="M541 534q-2 -144 -2 -268q0 -126 2 -266h-90l2 101q-26 -51 -72.5 -81t-112.5 -30q-116 0 -183.5 68.5t-67.5 203.5q0 143 68 212.5t189 69.5q63 0 108 -29t71 -80l-2 99h90zM414.5 206q38.5 18 38.5 61t-38.5 61t-133.5 18q-97 0 -138.5 -19.5t-41.5 -59.5t41.5 -59.5
t138.5 -19.5q95 0 133.5 18zM316 598q-17 3 -31 6q-32 9 -61 9q-33 0 -58 -8v69q33 10 55 10q32 0 70 -10q34 -8 59 -8q33 0 58 8v-69q-32 -10 -54 -10q-21 0 -38 3z" />
    <glyph glyph-name="adieresis" unicode="&#xe4;" horiz-adv-x="580" 
d="M541 534q-2 -144 -2 -268q0 -126 2 -266h-90l2 101q-26 -51 -72.5 -81t-112.5 -30q-116 0 -183.5 68.5t-67.5 203.5q0 143 68 212.5t189 69.5q63 0 108 -29t71 -80l-2 99h90zM414.5 206q38.5 18 38.5 61t-38.5 61t-133.5 18q-97 0 -138.5 -19.5t-41.5 -59.5t41.5 -59.5
t138.5 -19.5q95 0 133.5 18zM143.5 612.5q-17.5 16.5 -17.5 47.5q0 29 18 46t49 17q32 0 50 -17t18 -46q0 -31 -18 -47.5t-50 -16.5t-49.5 16.5zM331 612.5q-17 16.5 -17 47.5q0 29 17.5 46t48.5 17q32 0 50 -17t18 -46q0 -30 -18 -47t-50 -17t-49 16.5z" />
    <glyph glyph-name="aring" unicode="&#xe5;" horiz-adv-x="580" 
d="M541 534q-2 -144 -2 -268q0 -126 2 -266h-90l2 101q-26 -51 -72.5 -81t-112.5 -30q-116 0 -183.5 68.5t-67.5 203.5q0 143 68 212.5t189 69.5q63 0 108 -29t71 -80l-2 99h90zM414.5 206q38.5 18 38.5 61t-38.5 61t-133.5 18q-97 0 -138.5 -19.5t-41.5 -59.5t41.5 -59.5
t138.5 -19.5q95 0 133.5 18zM215.5 617.5q-24.5 22.5 -24.5 65.5q0 44 24.5 67t71.5 23t71.5 -23t24.5 -67q0 -43 -24.5 -65.5t-71.5 -22.5t-71.5 22.5zM332 683q0 13 -10 20t-35 7q-45 0 -45 -27q0 -26 45 -26t45 26z" />
    <glyph glyph-name="ae" unicode="&#xe6;" horiz-adv-x="908" 
d="M891 230h-414q12 -36 54.5 -51t131.5 -15q64 0 113 7t103 21l-14 -170q-43 -15 -95.5 -23.5t-103.5 -8.5q-123 0 -188 53v-24q-100 -29 -229 -29q-114 0 -171 41t-57 119q0 84 62.5 121.5t193.5 37.5q67 0 112 -8q-7 39 -41.5 53.5t-99.5 14.5q-91 0 -186 -25l10 173
q83 27 180 27q68 0 116 -21t75 -68q67 89 215 89q122 0 177.5 -70.5t55.5 -189.5v-54zM806 300q0 35 -37.5 55.5t-116.5 20.5q-81 0 -122 -17.5t-53 -53.5v-5h329zM345.5 164.5q30.5 2.5 45.5 5.5v69q-42 5 -125 5q-58 0 -84 -9.5t-26 -31.5q0 -24 27 -32.5t99 -8.5
q33 0 63.5 2.5z" />
    <glyph glyph-name="ccedilla" unicode="&#xe7;" horiz-adv-x="485" 
d="M139.5 205q38.5 -18 129.5 -18q117 0 195 22l-10 -191q-87 -28 -167 -28l-2 -29q11 3 40 3q52 0 80 -19t28 -56q0 -52 -36.5 -73.5t-104.5 -21.5q-57 0 -121 19l21 74q14 -4 42.5 -7.5t56.5 -3.5q29 0 40.5 5.5t11.5 15.5t-11 15t-40 5q-33 0 -67 -3l-20 -1l29 80
q-111 11 -164 79t-53 195q0 141 65 209t203 68q83 0 169 -30l10 -188q-97 20 -194 20q-92 0 -130.5 -17.5t-38.5 -61.5t38.5 -62z" />
    <glyph glyph-name="egrave" unicode="&#xe8;" horiz-adv-x="532" 
d="M515 230h-414q12 -36 54.5 -51t131.5 -15q64 0 113 7t103 21l-14 -170q-43 -15 -95.5 -23.5t-103.5 -8.5q-138 0 -205.5 68t-67.5 206q0 280 265 280q122 0 177.5 -70.5t55.5 -189.5v-54zM430 300q0 35 -37.5 55.5t-116.5 20.5q-84 0 -125.5 -18.5t-51.5 -57.5h331z
M187 751l214 -97l-17 -57l-240 33z" />
    <glyph glyph-name="eacute" unicode="&#xe9;" horiz-adv-x="532" 
d="M515 230h-414q12 -36 54.5 -51t131.5 -15q64 0 113 7t103 21l-14 -170q-43 -15 -95.5 -23.5t-103.5 -8.5q-138 0 -205.5 68t-67.5 206q0 280 265 280q122 0 177.5 -70.5t55.5 -189.5v-54zM430 300q0 35 -37.5 55.5t-116.5 20.5q-84 0 -125.5 -18.5t-51.5 -57.5h331z
M163 597l-17 56l214 97l43 -121z" />
    <glyph glyph-name="ecircumflex" unicode="&#xea;" horiz-adv-x="532" 
d="M515 230h-414q12 -36 54.5 -51t131.5 -15q64 0 113 7t103 21l-14 -170q-43 -15 -95.5 -23.5t-103.5 -8.5q-138 0 -205.5 68t-67.5 206q0 280 265 280q122 0 177.5 -70.5t55.5 -189.5v-54zM430 300q0 35 -37.5 55.5t-116.5 20.5q-84 0 -125.5 -18.5t-51.5 -57.5h331z
M263 628l-132 -34l-6 41l124 96h51l123 -96l-5 -41l-134 34h-21z" />
    <glyph glyph-name="edieresis" unicode="&#xeb;" horiz-adv-x="532" 
d="M515 230h-414q12 -36 54.5 -51t131.5 -15q64 0 113 7t103 21l-14 -170q-43 -15 -95.5 -23.5t-103.5 -8.5q-138 0 -205.5 68t-67.5 206q0 280 265 280q122 0 177.5 -70.5t55.5 -189.5v-54zM430 300q0 35 -37.5 55.5t-116.5 20.5q-84 0 -125.5 -18.5t-51.5 -57.5h331z
M131.5 612.5q-17.5 16.5 -17.5 47.5q0 29 18 46t49 17q32 0 50 -17t18 -46q0 -31 -18 -47.5t-50 -16.5t-49.5 16.5zM319 612.5q-17 16.5 -17 47.5q0 29 17.5 46t48.5 17q32 0 50 -17t18 -46q0 -30 -18 -47t-50 -17t-49 16.5z" />
    <glyph glyph-name="igrave" unicode="&#xec;" horiz-adv-x="168" 
d="M39 0q2 74 2 267q0 194 -2 267h90l-1 -56q-2 -132 -2 -211q0 -78 2 -208l1 -59h-90zM-3 751l214 -97l-17 -57l-240 33z" />
    <glyph glyph-name="iacute" unicode="&#xed;" horiz-adv-x="168" 
d="M39 0q2 74 2 267q0 194 -2 267h90l-1 -56q-2 -132 -2 -211q0 -78 2 -208l1 -59h-90zM-27 597l-17 56l214 97l43 -121z" />
    <glyph glyph-name="icircumflex" unicode="&#xee;" horiz-adv-x="168" 
d="M39 0q2 74 2 267q0 194 -2 267h90l-1 -56q-2 -132 -2 -211q0 -78 2 -208l1 -59h-90zM74 628l-132 -34l-6 41l124 96h51l123 -96l-5 -41l-134 34h-21z" />
    <glyph glyph-name="idieresis" unicode="&#xef;" horiz-adv-x="168" 
d="M39 0q2 74 2 267q0 194 -2 267h90l-1 -56q-2 -132 -2 -211q0 -78 2 -208l1 -59h-90zM-58.5 612.5q-17.5 16.5 -17.5 47.5q0 29 18 46t49 17q32 0 50 -17t18 -46q0 -31 -18 -47.5t-50 -16.5t-49.5 16.5zM129 612.5q-17 16.5 -17 47.5q0 29 17.5 46t48.5 17q32 0 50 -17
t18 -46q0 -30 -18 -47t-50 -17t-49 16.5z" />
    <glyph glyph-name="eth" unicode="&#xf0;" horiz-adv-x="546" 
d="M490.5 496q37.5 -94 37.5 -210q0 -145 -58 -220.5t-187 -75.5q-138 0 -202 70.5t-64 206.5q0 105 60 168.5t173 63.5q99 0 160 -65q-25 74 -94 124q-25 -32 -36 -48l-54 37q8 9 35 42q-31 14 -71 19l79 133q37 -16 75 -44q21 27 37 51l54 -38l-44 -55q62 -65 99.5 -159z
M396.5 198q39.5 20 39.5 63q0 52 -44.5 69t-130.5 17q-85 0 -121 -21t-36 -63q0 -46 38.5 -65.5t125.5 -19.5q89 0 128.5 20z" />
    <glyph glyph-name="ntilde" unicode="&#xf1;" horiz-adv-x="548" 
d="M473.5 485q41.5 -60 38.5 -166q-3 -111 -3 -216q0 -71 1 -103h-89q2 44 2 136v79q-1 61 -37 85t-107 24q-82 0 -116.5 -34t-35.5 -110l-1 -59q0 -52 3 -121h-90q2 73 2 267t-2 267h94q-1 -36 -5 -107q58 118 197 118q107 0 148.5 -60zM331 598q-17 3 -31 6q-32 9 -61 9
q-33 0 -58 -8v69q33 10 55 10q32 0 70 -10q34 -8 59 -8q33 0 58 8v-69q-32 -10 -54 -10q-21 0 -38 3z" />
    <glyph glyph-name="ograve" unicode="&#xf2;" horiz-adv-x="558" 
d="M80.5 59.5q-63.5 69.5 -63.5 207.5q0 139 63.5 208.5t198.5 69.5q134 0 197.5 -69.5t63.5 -208.5q0 -138 -63.5 -207.5t-197.5 -69.5q-135 0 -198.5 69.5zM415.5 207q40.5 19 40.5 60t-41 60.5t-135 19.5q-96 0 -137.5 -19.5t-41.5 -60.5t41.5 -60t137.5 -19
q95 0 135.5 19zM192 751l214 -97l-17 -57l-240 33z" />
    <glyph glyph-name="oacute" unicode="&#xf3;" horiz-adv-x="558" 
d="M80.5 59.5q-63.5 69.5 -63.5 207.5q0 139 63.5 208.5t198.5 69.5q134 0 197.5 -69.5t63.5 -208.5q0 -138 -63.5 -207.5t-197.5 -69.5q-135 0 -198.5 69.5zM415.5 207q40.5 19 40.5 60t-41 60.5t-135 19.5q-96 0 -137.5 -19.5t-41.5 -60.5t41.5 -60t137.5 -19
q95 0 135.5 19zM168 597l-17 56l214 97l43 -121z" />
    <glyph glyph-name="ocircumflex" unicode="&#xf4;" horiz-adv-x="558" 
d="M80.5 59.5q-63.5 69.5 -63.5 207.5q0 139 63.5 208.5t198.5 69.5q134 0 197.5 -69.5t63.5 -208.5q0 -138 -63.5 -207.5t-197.5 -69.5q-135 0 -198.5 69.5zM415.5 207q40.5 19 40.5 60t-41 60.5t-135 19.5q-96 0 -137.5 -19.5t-41.5 -60.5t41.5 -60t137.5 -19
q95 0 135.5 19zM269 628l-132 -34l-6 41l124 96h51l123 -96l-5 -41l-134 34h-21z" />
    <glyph glyph-name="otilde" unicode="&#xf5;" horiz-adv-x="558" 
d="M80.5 59.5q-63.5 69.5 -63.5 207.5q0 139 63.5 208.5t198.5 69.5q134 0 197.5 -69.5t63.5 -208.5q0 -138 -63.5 -207.5t-197.5 -69.5q-135 0 -198.5 69.5zM415.5 207q40.5 19 40.5 60t-41 60.5t-135 19.5q-96 0 -137.5 -19.5t-41.5 -60.5t41.5 -60t137.5 -19
q95 0 135.5 19zM309 598q-17 3 -31 6q-32 9 -61 9q-33 0 -58 -8v69q33 10 55 10q32 0 70 -10q34 -8 59 -8q33 0 58 8v-69q-32 -10 -54 -10q-21 0 -38 3z" />
    <glyph glyph-name="odieresis" unicode="&#xf6;" horiz-adv-x="558" 
d="M80.5 59.5q-63.5 69.5 -63.5 207.5q0 139 63.5 208.5t198.5 69.5q134 0 197.5 -69.5t63.5 -208.5q0 -138 -63.5 -207.5t-197.5 -69.5q-135 0 -198.5 69.5zM415.5 207q40.5 19 40.5 60t-41 60.5t-135 19.5q-96 0 -137.5 -19.5t-41.5 -60.5t41.5 -60t137.5 -19
q95 0 135.5 19zM136.5 612.5q-17.5 16.5 -17.5 47.5q0 29 18 46t49 17q32 0 50 -17t18 -46q0 -31 -18 -47.5t-50 -16.5t-49.5 16.5zM324 612.5q-17 16.5 -17 47.5q0 29 17.5 46t48.5 17q32 0 50 -17t18 -46q0 -30 -18 -47t-50 -17t-49 16.5z" />
    <glyph glyph-name="divide" unicode="&#xf7;" horiz-adv-x="496" 
d="M188 397q-23 21 -23 56t23 55.5t61 20.5t60 -20.5t22 -55.5t-22 -56t-60 -21t-61 21zM43 331q140 -2 206 -2q68 0 204 2v-134q-150 2 -224 2q-60 0 -186 -2v134zM188 33q-23 21 -23 57q0 35 23 55.5t61 20.5q37 0 59.5 -20.5t22.5 -55.5q0 -36 -22 -57t-60 -21t-61 21z
" />
    <glyph glyph-name="oslash" unicode="&#xf8;" horiz-adv-x="558" 
d="M540 267q0 -138 -63.5 -207.5t-197.5 -69.5q-65 0 -116 17l-22 -38h-83l44 70q-85 67 -85 228q0 139 63.5 208.5t198.5 69.5q69 0 118 -18l22 40h83q-10 -16 -45 -73q83 -67 83 -227zM124 218q23 -18 74 -25l33 54l60 100h-11q-96 0 -137.5 -19.5t-41.5 -60.5
q0 -31 23 -49zM415.5 207q40.5 19 40.5 60q0 31 -22.5 49.5t-71.5 25.5l-60 -100l-33 -54h11q95 0 135.5 19z" />
    <glyph glyph-name="ugrave" unicode="&#xf9;" horiz-adv-x="548" 
d="M509 534q-2 -73 -2 -267t2 -267h-94q1 36 5 107q-58 -118 -197 -118q-107 0 -148.5 60t-38.5 166q3 111 3 216q0 71 -1 103h89q-2 -44 -2 -136v-79q1 -61 37 -85t107 -24q82 0 116.5 34t35.5 110l1 59q0 52 -3 121h90zM190 751l214 -97l-17 -57l-240 33z" />
    <glyph glyph-name="uacute" unicode="&#xfa;" horiz-adv-x="548" 
d="M509 534q-2 -73 -2 -267t2 -267h-94q1 36 5 107q-58 -118 -197 -118q-107 0 -148.5 60t-38.5 166q3 111 3 216q0 71 -1 103h89q-2 -44 -2 -136v-79q1 -61 37 -85t107 -24q82 0 116.5 34t35.5 110l1 59q0 52 -3 121h90zM166 597l-17 56l214 97l43 -121z" />
    <glyph glyph-name="ucircumflex" unicode="&#xfb;" horiz-adv-x="548" 
d="M509 534q-2 -73 -2 -267t2 -267h-94q1 36 5 107q-58 -118 -197 -118q-107 0 -148.5 60t-38.5 166q3 111 3 216q0 71 -1 103h89q-2 -44 -2 -136v-79q1 -61 37 -85t107 -24q82 0 116.5 34t35.5 110l1 59q0 52 -3 121h90zM267 628l-132 -34l-6 41l124 96h51l123 -96l-5 -41
l-134 34h-21z" />
    <glyph glyph-name="udieresis" unicode="&#xfc;" horiz-adv-x="548" 
d="M509 534q-2 -73 -2 -267t2 -267h-94q1 36 5 107q-58 -118 -197 -118q-107 0 -148.5 60t-38.5 166q3 111 3 216q0 71 -1 103h89q-2 -44 -2 -136v-79q1 -61 37 -85t107 -24q82 0 116.5 34t35.5 110l1 59q0 52 -3 121h90zM134.5 612.5q-17.5 16.5 -17.5 47.5q0 29 18 46
t49 17q32 0 50 -17t18 -46q0 -31 -18 -47.5t-50 -16.5t-49.5 16.5zM322 612.5q-17 16.5 -17 47.5q0 29 17.5 46t48.5 17q32 0 50 -17t18 -46q0 -30 -18 -47t-50 -17t-49 16.5z" />
    <glyph glyph-name="yacute" unicode="&#xfd;" horiz-adv-x="546" 
d="M508 534q-3 -117 -3 -266l1 -211q0 -136 -58.5 -199.5t-192.5 -63.5q-98 0 -191 24l-10 168q92 -34 183 -34q88 0 136 40.5t48 130.5v24q-27 -58 -76 -88.5t-112 -30.5q-109 0 -155 58t-42 177q2 118 2 219v52h88q-2 -78 -2 -121l1 -80q1 -55 37 -78t102 -23
q83 0 119.5 33.5t36.5 106.5l1 56q0 40 -3 106h90zM173 597l-17 56l214 97l43 -121z" />
    <glyph glyph-name="thorn" unicode="&#xfe;" horiz-adv-x="578" 
d="M494.5 474.5q66.5 -69.5 66.5 -208.5q0 -138 -66.5 -207t-180.5 -69q-131 0 -187 101l1 -283h-89q2 127 2 500q0 263 -2 392h89l-1 -257q55 101 187 101q114 0 180.5 -69.5zM435.5 203.5q40.5 20.5 40.5 63.5t-40 63t-135 20q-94 0 -133.5 -20t-39.5 -62
q0 -44 39.5 -64.5t133.5 -20.5t134.5 20.5z" />
    <glyph glyph-name="ydieresis" unicode="&#xff;" horiz-adv-x="546" 
d="M508 534q-3 -117 -3 -266l1 -211q0 -136 -58.5 -199.5t-192.5 -63.5q-98 0 -191 24l-10 168q92 -34 183 -34q88 0 136 40.5t48 130.5v24q-27 -58 -76 -88.5t-112 -30.5q-109 0 -155 58t-42 177q2 118 2 219v52h88q-2 -78 -2 -121l1 -80q1 -55 37 -78t102 -23
q83 0 119.5 33.5t36.5 106.5l1 56q0 40 -3 106h90zM140.5 612.5q-17.5 16.5 -17.5 47.5q0 29 18 46t49 17q32 0 50 -17t18 -46q0 -31 -18 -47.5t-50 -16.5t-49.5 16.5zM328 612.5q-17 16.5 -17 47.5q0 29 17.5 46t48.5 17q32 0 50 -17t18 -46q0 -30 -18 -47t-50 -17
t-49 16.5z" />
    <glyph glyph-name="Amacron" unicode="&#x100;" horiz-adv-x="652" 
d="M547 0l-37 118h-366l-36 -118h-103q95 288 221 700h199q107 -350 221 -700h-99zM252 474l-46 -153h241l-48 153h-147zM477 844v-77h-302v77h302z" />
    <glyph glyph-name="amacron" unicode="&#x101;" horiz-adv-x="580" 
d="M541 534q-2 -144 -2 -268q0 -126 2 -266h-90l2 101q-26 -51 -72.5 -81t-112.5 -30q-116 0 -183.5 68.5t-67.5 203.5q0 143 68 212.5t189 69.5q63 0 108 -29t71 -80l-2 99h90zM414.5 206q38.5 18 38.5 61t-38.5 61t-133.5 18q-97 0 -138.5 -19.5t-41.5 -59.5t41.5 -59.5
t138.5 -19.5q95 0 133.5 18zM438 677v-77h-302v77h302z" />
    <glyph glyph-name="Abreve" unicode="&#x102;" horiz-adv-x="652" 
d="M547 0l-37 118h-366l-36 -118h-103q95 288 221 700h199q107 -350 221 -700h-99zM252 474l-46 -153h241l-48 153h-147zM189 915h62q0 -37 18.5 -51.5t57.5 -14.5q38 0 56 14.5t19 51.5h61q1 -8 1 -24q0 -72 -33 -108t-105 -36q-148 0 -137 168z" />
    <glyph glyph-name="abreve" unicode="&#x103;" horiz-adv-x="580" 
d="M541 534q-2 -144 -2 -268q0 -126 2 -266h-90l2 101q-26 -51 -72.5 -81t-112.5 -30q-116 0 -183.5 68.5t-67.5 203.5q0 143 68 212.5t189 69.5q63 0 108 -29t71 -80l-2 99h90zM414.5 206q38.5 18 38.5 61t-38.5 61t-133.5 18q-97 0 -138.5 -19.5t-41.5 -59.5t41.5 -59.5
t138.5 -19.5q95 0 133.5 18zM149 758h62q0 -37 18.5 -51.5t57.5 -14.5q38 0 56 14.5t19 51.5h61q1 -8 1 -24q0 -72 -33 -108t-105 -36q-148 0 -137 168z" />
    <glyph glyph-name="Aogonek" unicode="&#x104;" horiz-adv-x="652" 
d="M662 -97v-89q-46 -18 -85 -18q-50 0 -77.5 22t-27.5 64q0 38 24.5 68t69.5 50h-19l-37 118h-366l-36 -118h-103q95 288 221 700h199q107 -350 221 -700q-36 -18 -60 -38t-24 -41q0 -16 9.5 -21t27.5 -5q29 0 63 8zM252 474l-46 -153h241l-48 153h-147z" />
    <glyph glyph-name="aogonek" unicode="&#x105;" horiz-adv-x="580" 
d="M558 -97v-89q-46 -18 -85 -18q-50 0 -77.5 22t-27.5 64q0 38 24.5 68t69.5 50h-11l2 101q-26 -51 -72.5 -81t-112.5 -30q-116 0 -183.5 68.5t-67.5 203.5q0 143 68 212.5t189 69.5q63 0 108 -29t71 -80l-2 99h90q-2 -144 -2 -268q0 -126 2 -266h1q-36 -18 -60 -38
t-24 -41q0 -16 9.5 -21t27.5 -5q29 0 63 8zM414.5 206q38.5 18 38.5 61t-38.5 61t-133.5 18q-97 0 -138.5 -19.5t-41.5 -59.5t41.5 -59.5t138.5 -19.5q95 0 133.5 18z" />
    <glyph glyph-name="Cacute" unicode="&#x106;" horiz-adv-x="614" 
d="M110.5 80q-88.5 92 -88.5 268q0 178 88.5 270.5t251.5 92.5q130 0 214 -38l1 -223q-56 16 -109 23t-128 7q-112 0 -166 -32t-54 -99q0 -65 55 -97t167 -32q74 0 128.5 7.5t112.5 22.5l-1 -222q-47 -20 -100 -30t-121 -10q-162 0 -250.5 92zM229 761l-17 58l217 98
l45 -123z" />
    <glyph glyph-name="cacute" unicode="&#x107;" horiz-adv-x="485" 
d="M82 58.5q-65 68.5 -65 208.5q0 141 65 209t203 68q83 0 169 -30l10 -188q-97 20 -194 20q-92 0 -130.5 -17.5t-38.5 -61.5t38.5 -62t129.5 -18q117 0 195 22l-10 -191q-89 -28 -169 -28q-138 0 -203 68.5zM167 597l-17 56l214 97l43 -121z" />
    <glyph glyph-name="Cdotaccent" unicode="&#x10a;" horiz-adv-x="614" 
d="M110.5 80q-88.5 92 -88.5 268q0 178 88.5 270.5t251.5 92.5q130 0 214 -38l1 -223q-56 16 -109 23t-128 7q-112 0 -166 -32t-54 -99q0 -65 55 -97t167 -32q74 0 128.5 7.5t112.5 22.5l-1 -222q-47 -20 -100 -30t-121 -10q-162 0 -250.5 92zM294 772.5q-18 15.5 -18 43.5
q0 27 18.5 42.5t50.5 15.5q33 0 51.5 -15.5t18.5 -42.5q0 -28 -18.5 -43.5t-51.5 -15.5t-51 15.5z" />
    <glyph glyph-name="cdotaccent" unicode="&#x10b;" horiz-adv-x="485" 
d="M82 58.5q-65 68.5 -65 208.5q0 141 65 209t203 68q83 0 169 -30l10 -188q-97 20 -194 20q-92 0 -130.5 -17.5t-38.5 -61.5t38.5 -62t129.5 -18q117 0 195 22l-10 -191q-89 -28 -169 -28q-138 0 -203 68.5zM231 613.5q-17 17.5 -17 50.5t17 50t47 17q31 0 47 -17.5
t16 -49.5q0 -68 -63 -68q-30 0 -47 17.5z" />
    <glyph glyph-name="Ccaron" unicode="&#x10c;" horiz-adv-x="614" 
d="M110.5 80q-88.5 92 -88.5 268q0 178 88.5 270.5t251.5 92.5q130 0 214 -38l1 -223q-56 16 -109 23t-128 7q-112 0 -166 -32t-54 -99q0 -65 55 -97t167 -32q74 0 128.5 7.5t112.5 22.5l-1 -222q-47 -20 -100 -30t-121 -10q-162 0 -250.5 92zM192 867l6 41l132 -34h21
l134 34l5 -41l-123 -96h-51z" />
    <glyph glyph-name="ccaron" unicode="&#x10d;" horiz-adv-x="485" 
d="M82 58.5q-65 68.5 -65 208.5q0 141 65 209t203 68q83 0 169 -30l10 -188q-97 20 -194 20q-92 0 -130.5 -17.5t-38.5 -61.5t38.5 -62t129.5 -18q117 0 195 22l-10 -191q-89 -28 -169 -28q-138 0 -203 68.5zM130 694l6 41l132 -34h21l134 34l5 -41l-123 -96h-51z" />
    <glyph glyph-name="Dcaron" unicode="&#x10e;" horiz-adv-x="675" 
d="M43 0q0 39 2 125q2 144 2 224q0 210 -4 351h248q120 0 199 -32.5t121 -110t42 -209.5q0 -130 -38 -205.5t-117 -109t-208 -33.5h-247zM345 229q72 0 116 8.5t68.5 35t24.5 76.5q0 53 -26.5 79t-71 34t-116.5 8h-201v-241h206zM125 867l6 41l132 -34h21l134 34l5 -41
l-123 -96h-51z" />
    <glyph glyph-name="dcaron" unicode="&#x10f;" horiz-adv-x="666" 
d="M540 700q-2 -120 -2 -351q0 -272 2 -349h-89q0 58 1 100q-58 -110 -184 -110q-116 0 -183.5 69.5t-67.5 208.5q0 138 67 207t183 69q127 0 186 -111q-2 178 -2 267h89zM409 206q40 18 44 54v15q-3 36 -43.5 54t-129.5 18q-97 0 -138 -20t-41 -60t41.5 -59.5t137.5 -19.5
q89 0 129 18zM659 700l-9 -202h-66l-10 202h85z" />
    <glyph glyph-name="Dcroat" unicode="&#x110;" horiz-adv-x="710" 
d="M326 700q120 0 199 -32.5t121 -110t42 -209.5q0 -129 -38 -205t-117.5 -109.5t-208.5 -33.5h-247q4 178 5 306q-48 0 -71 -1v87q23 -1 71 -1q0 154 -5 309h249zM379 229q73 0 117 8.5t68 34.5t24 77q0 53 -26.5 79t-70.5 34t-116 8h-202v-80q138 0 200 2v-87
q-62 2 -200 2v-78h206z" />
    <glyph glyph-name="dcroat" unicode="&#x111;" horiz-adv-x="609" 
d="M604 575q-21 1 -65 1q-1 -82 -1 -227q0 -272 2 -349h-89q0 58 1 100q-58 -110 -184 -110q-116 0 -183.5 69.5t-67.5 208.5q0 138 67 207t183 69q127 0 186 -111q-1 46 -1 144q-137 0 -195 -2v72q58 -2 194 -2v55h89l-1 -54q45 0 65 1v-72zM409 206q40 18 44 54v15
q-3 36 -43.5 54t-129.5 18q-97 0 -138 -20t-41 -60t41.5 -59.5t137.5 -19.5q89 0 129 18z" />
    <glyph glyph-name="Emacron" unicode="&#x112;" horiz-adv-x="575" 
d="M43 0q4 216 4 348q0 205 -4 352h499v-230h-404v-70h177.5t176.5 1v-78q-88 1 -176.5 1h-177.5v-94h417v-230h-512zM444 844v-77h-302v77h302z" />
    <glyph glyph-name="emacron" unicode="&#x113;" horiz-adv-x="532" 
d="M515 230h-414q12 -36 54.5 -51t131.5 -15q64 0 113 7t103 21l-14 -170q-43 -15 -95.5 -23.5t-103.5 -8.5q-138 0 -205.5 68t-67.5 206q0 280 265 280q122 0 177.5 -70.5t55.5 -189.5v-54zM430 300q0 35 -37.5 55.5t-116.5 20.5q-84 0 -125.5 -18.5t-51.5 -57.5h331z
M426 677v-77h-302v77h302z" />
    <glyph glyph-name="Edotaccent" unicode="&#x116;" horiz-adv-x="575" 
d="M43 0q4 216 4 348q0 205 -4 352h499v-230h-404v-70h177.5t176.5 1v-78q-88 1 -176.5 1h-177.5v-94h417v-230h-512zM246 772.5q-18 15.5 -18 43.5q0 27 18.5 42.5t50.5 15.5q33 0 51.5 -15.5t18.5 -42.5q0 -28 -18.5 -43.5t-51.5 -15.5t-51 15.5z" />
    <glyph glyph-name="edotaccent" unicode="&#x117;" horiz-adv-x="532" 
d="M515 230h-414q12 -36 54.5 -51t131.5 -15q64 0 113 7t103 21l-14 -170q-43 -15 -95.5 -23.5t-103.5 -8.5q-138 0 -205.5 68t-67.5 206q0 280 265 280q122 0 177.5 -70.5t55.5 -189.5v-54zM430 300q0 35 -37.5 55.5t-116.5 20.5q-84 0 -125.5 -18.5t-51.5 -57.5h331z
M227 613.5q-17 17.5 -17 50.5t17 50t47 17q31 0 47 -17.5t16 -49.5q0 -68 -63 -68q-30 0 -47 17.5z" />
    <glyph glyph-name="Eogonek" unicode="&#x118;" horiz-adv-x="575" 
d="M570 -97v-89q-46 -18 -85 -18q-50 0 -77.5 22t-27.5 64q0 38 24.5 68t69.5 50h-431q4 216 4 348q0 205 -4 352h499v-230h-404v-70h177.5t176.5 1v-78q-88 1 -176.5 1h-177.5v-94h417v-230h-1q-36 -18 -60 -38t-24 -41q0 -16 9.5 -21t27.5 -5q29 0 63 8z" />
    <glyph glyph-name="eogonek" unicode="&#x119;" horiz-adv-x="532" 
d="M515 230h-414q12 -36 54.5 -51t131.5 -15q64 0 113 7t103 21l-14 -170q-36 -18 -60 -38t-24 -41q0 -16 9.5 -21t27.5 -5q29 0 63 8v-89q-46 -18 -85 -18q-50 0 -77.5 22t-27.5 64q0 52 46 90q-31 -4 -71 -4q-138 0 -205.5 68t-67.5 206q0 280 265 280q122 0 177.5 -70.5
t55.5 -189.5v-54zM430 300q0 35 -37.5 55.5t-116.5 20.5q-84 0 -125.5 -18.5t-51.5 -57.5h331z" />
    <glyph glyph-name="Ecaron" unicode="&#x11a;" horiz-adv-x="575" 
d="M43 0q4 216 4 348q0 205 -4 352h499v-230h-404v-70h177.5t176.5 1v-78q-88 1 -176.5 1h-177.5v-94h417v-230h-512zM144 867l6 41l132 -34h21l134 34l5 -41l-123 -96h-51z" />
    <glyph glyph-name="ecaron" unicode="&#x11b;" horiz-adv-x="532" 
d="M515 230h-414q12 -36 54.5 -51t131.5 -15q64 0 113 7t103 21l-14 -170q-43 -15 -95.5 -23.5t-103.5 -8.5q-138 0 -205.5 68t-67.5 206q0 280 265 280q122 0 177.5 -70.5t55.5 -189.5v-54zM430 300q0 35 -37.5 55.5t-116.5 20.5q-84 0 -125.5 -18.5t-51.5 -57.5h331z
M125 694l6 41l132 -34h21l134 34l5 -41l-123 -96h-51z" />
    <glyph glyph-name="Gbreve" unicode="&#x11e;" horiz-adv-x="645" 
d="M99.5 79.5q-77.5 90.5 -77.5 264.5q0 181 87 274t250 93q135 0 238 -47v-220q-35 12 -115 24t-148 12q-110 0 -162 -32t-52 -101t52.5 -106.5t158.5 -37.5q91 0 129.5 22.5t40.5 66.5h-165v82h283q-2 -120 -2 -183q0 -61 2 -191h-88l4 141l-3 1q-23 -84 -77 -118.5
t-139 -34.5q-139 0 -216.5 90.5zM194 916h62q0 -37 18.5 -51.5t57.5 -14.5q38 0 56 14.5t19 51.5h61q1 -8 1 -24q0 -72 -33 -108t-105 -36q-148 0 -137 168z" />
    <glyph glyph-name="gbreve" unicode="&#x11f;" horiz-adv-x="580" 
d="M541 534q-2 -144 -2 -267l1 -220q0 -126 -63.5 -189.5t-194.5 -63.5q-96 0 -197 24l-9 170q55 -18 95 -27t94 -9q92 0 140.5 34t48.5 118v15q-27 -50 -74 -79.5t-116 -29.5q-114 0 -180.5 64t-66.5 194q0 138 66.5 207t180.5 69q68 0 115 -28.5t74 -78.5l-3 97h91z
M414.5 206q38.5 18 38.5 61q0 41 -39.5 60.5t-132.5 19.5q-97 0 -138.5 -20t-41.5 -60t41.5 -59.5t138.5 -19.5q95 0 133.5 18zM161 758h62q0 -37 18.5 -51.5t57.5 -14.5q38 0 56 14.5t19 51.5h61q1 -8 1 -24q0 -72 -33 -108t-105 -36q-148 0 -137 168z" />
    <glyph glyph-name="Gdotaccent" unicode="&#x120;" horiz-adv-x="645" 
d="M99.5 79.5q-77.5 90.5 -77.5 264.5q0 181 87 274t250 93q135 0 238 -47v-220q-35 12 -115 24t-148 12q-110 0 -162 -32t-52 -101t52.5 -106.5t158.5 -37.5q91 0 129.5 22.5t40.5 66.5h-165v82h283q-2 -120 -2 -183q0 -61 2 -191h-88l4 141l-3 1q-23 -84 -77 -118.5
t-139 -34.5q-139 0 -216.5 90.5zM285 773.5q-18 15.5 -18 43.5q0 27 18.5 42.5t50.5 15.5q33 0 51.5 -15.5t18.5 -42.5q0 -28 -18.5 -43.5t-51.5 -15.5t-51 15.5z" />
    <glyph glyph-name="gdotaccent" unicode="&#x121;" horiz-adv-x="580" 
d="M541 534q-2 -144 -2 -267l1 -220q0 -126 -63.5 -189.5t-194.5 -63.5q-96 0 -197 24l-9 170q55 -18 95 -27t94 -9q92 0 140.5 34t48.5 118v15q-27 -50 -74 -79.5t-116 -29.5q-114 0 -180.5 64t-66.5 194q0 138 66.5 207t180.5 69q68 0 115 -28.5t74 -78.5l-3 97h91z
M414.5 206q38.5 18 38.5 61q0 41 -39.5 60.5t-132.5 19.5q-97 0 -138.5 -20t-41.5 -60t41.5 -59.5t138.5 -19.5q95 0 133.5 18zM251 613.5q-17 17.5 -17 50.5t17 50t47 17q31 0 47 -17.5t16 -49.5q0 -68 -63 -68q-30 0 -47 17.5z" />
    <glyph glyph-name="uni0122" unicode="&#x122;" horiz-adv-x="645" 
d="M99.5 79.5q-77.5 90.5 -77.5 264.5q0 181 87 274t250 93q135 0 238 -47v-220q-35 12 -115 24t-148 12q-110 0 -162 -32t-52 -101t52.5 -106.5t158.5 -37.5q91 0 129.5 22.5t40.5 66.5h-165v82h283q-2 -120 -2 -183q0 -61 2 -191h-88l4 141l-3 1q-23 -84 -77 -118.5
t-139 -34.5q-139 0 -216.5 90.5zM325 -150q-29 0 -45 14.5t-16 40.5q0 24 18.5 38.5t49.5 14.5q34 0 51.5 -15t17.5 -41q0 -18 -10.5 -34.5t-28.5 -36.5l-38 -45h-43z" />
    <glyph glyph-name="uni0123" unicode="&#x123;" horiz-adv-x="580" 
d="M541 534q-2 -144 -2 -267l1 -220q0 -126 -63.5 -189.5t-194.5 -63.5q-96 0 -197 24l-9 170q55 -18 95 -27t94 -9q92 0 140.5 34t48.5 118v15q-27 -50 -74 -79.5t-116 -29.5q-114 0 -180.5 64t-66.5 194q0 138 66.5 207t180.5 69q68 0 115 -28.5t74 -78.5l-3 97h91z
M414.5 206q38.5 18 38.5 61q0 41 -39.5 60.5t-132.5 19.5q-97 0 -138.5 -20t-41.5 -60t41.5 -59.5t138.5 -19.5q95 0 133.5 18zM303 706q31 0 49 -16t18 -44q0 -26 -20.5 -42t-54.5 -16q-74 0 -74 61q0 19 12 37.5t30 39.5l42 50h47z" />
    <glyph glyph-name="Hbar" unicode="&#x126;" horiz-adv-x="664" 
d="M671 559h-53q-2 -134 -2 -209q0 -93 5 -328v-22h-99l4 255h-388l4 -255h-99q4 216 4 350q0 73 -2 209h-59v72q39 0 58 -1l-1 70h99l-1 -71h382l-1 71h99l-1 -70q17 1 51 1v-72zM525 485q0 50 -1 75q-64 1 -192 1q-129 0 -193 -1l-1 -75h387z" />
    <glyph glyph-name="hbar" unicode="&#x127;" horiz-adv-x="547" 
d="M469.5 489q42.5 -56 42.5 -154l-1 -132q-2 -116 -2 -161l1 -42h-89q2 112 2 164v51q-1 61 -37 85.5t-107 24.5q-82 0 -116.5 -34.5t-36.5 -110.5v-39q0 -57 3 -141h-90q2 79 2 267l-1 314q-41 0 -60 -1v72q19 -1 59 -1v49h91l-1 -50q138 0 197 2v-72q-59 2 -198 2
l-1 -157q28 57 75 88.5t123 31.5q102 0 144.5 -56z" />
    <glyph glyph-name="Imacron" unicode="&#x12a;" horiz-adv-x="185" 
d="M43 0q4 144 4 350q0 207 -4 350h99q-5 -177 -5 -350t5 -350h-99zM245 844v-77h-302v77h302z" />
    <glyph glyph-name="imacron" unicode="&#x12b;" horiz-adv-x="168" 
d="M39 0q2 74 2 267q0 194 -2 267h90l-1 -56q-2 -132 -2 -211q0 -78 2 -208l1 -59h-90zM236 677v-77h-302v77h302z" />
    <glyph glyph-name="Iogonek" unicode="&#x12e;" horiz-adv-x="185" 
d="M151 -97v-89q-46 -18 -85 -18q-50 0 -77.5 22t-27.5 64q0 38 24.5 68t69.5 50h-12q4 144 4 350q0 207 -4 350h99q-5 -177 -5 -350t5 -350h-7q-36 -18 -60 -38t-24 -41q0 -16 9.5 -21t27.5 -5q29 0 63 8z" />
    <glyph glyph-name="iogonek" unicode="&#x12f;" horiz-adv-x="168" 
d="M37.5 612q-16.5 17 -16.5 50q0 32 16.5 49t46.5 17t46.5 -17t16.5 -49q0 -33 -16.5 -50t-46.5 -17t-46.5 17zM50.5 -99q9.5 -5 27.5 -5q29 0 63 8v-89q-46 -18 -85 -18q-50 0 -77.5 22t-27.5 64q0 37 23.5 67t67.5 50h-3q2 74 2 267q0 194 -2 267h90l-1 -56
q-2 -132 -2 -211q0 -78 2 -208l1 -59h-6q-82 -41 -82 -78q0 -16 9.5 -21z" />
    <glyph glyph-name="Idotaccent" unicode="&#x130;" horiz-adv-x="185" 
d="M43 0q4 144 4 350q0 207 -4 350h99q-5 -177 -5 -350t5 -350h-99zM46 772.5q-18 15.5 -18 43.5q0 27 18.5 42.5t50.5 15.5q33 0 51.5 -15.5t18.5 -42.5q0 -28 -18.5 -43.5t-51.5 -15.5t-51 15.5z" />
    <glyph glyph-name="dotlessi" unicode="&#x131;" horiz-adv-x="168" 
d="M39 0q2 74 2 267q0 194 -2 267h90l-1 -56q-2 -132 -2 -211q0 -78 2 -208l1 -59h-90z" />
    <glyph glyph-name="IJ" unicode="&#x132;" horiz-adv-x="466" 
d="M43 0q4 144 4 350q0 207 -4 350h99q-5 -177 -5 -350t5 -350h-99zM190 233q40 -9 71 -9q32 0 48.5 9t23.5 32t7 68q0 201 -4 367h99q-3 -60 -3 -208l1 -172q1 -54 1 -152q0 -99 -35 -139.5t-106 -40.5q-28 0 -49 3t-54 12v230z" />
    <glyph glyph-name="ij" unicode="&#x133;" horiz-adv-x="335" 
d="M37.5 612q-16.5 17 -16.5 50q0 32 16.5 49t46.5 17t46.5 -17t16.5 -49q0 -33 -16.5 -50t-46.5 -17t-46.5 17zM39 0q2 74 2 267q0 194 -2 267h90l-1 -56q-2 -132 -2 -211q0 -78 2 -208l1 -59h-90zM124 -196l-4 171l38 -1q26 0 38 17t12 56l1 211q0 94 -2 276h89
q-3 -118 -3 -276q0 -88 1 -136l1 -167q0 -74 -28 -115.5t-95 -41.5q-29 0 -48 6zM202 613.5q-17 17.5 -17 50.5t17 50t47 17q31 0 47 -17.5t16 -49.5q0 -68 -63 -68q-30 0 -47 17.5z" />
    <glyph glyph-name="uni0136" unicode="&#x136;" horiz-adv-x="619" 
d="M496 0q0 16 1 30l1 71q0 68 -51 102t-135 34h-173q2 -171 4 -237h-100q4 144 4 350q0 207 -4 350h100q-2 -65 -4 -240h81l210 240h125l-221 -242q135 -11 198 -77t63 -200q0 -101 2 -181h-101zM311 -150q-29 0 -45 14.5t-16 40.5q0 24 18.5 38.5t49.5 14.5q34 0 51.5 -15
t17.5 -41q0 -18 -10.5 -34.5t-28.5 -36.5l-38 -45h-43z" />
    <glyph glyph-name="uni0137" unicode="&#x137;" horiz-adv-x="521" 
d="M406 0v83q0 55 -34.5 74t-107.5 19h-137q2 -130 2 -176h-90q2 77 2 349q0 231 -2 351h90l-1 -123q-2 -148 -2 -204h65l146 161h122v-3l-152 -160q105 0 145 -58t40 -158l1 -155h-87zM266 -143q-32 0 -49.5 16t-17.5 44q0 26 20 42t54 16q38 0 56.5 -16t18.5 -45
q0 -19 -11.5 -37t-30.5 -41l-42 -49h-47z" />
    <glyph glyph-name="kgreenlandic" unicode="&#x138;" horiz-adv-x="522" 
d="M407 0q1 25 1 65q0 54 -35 73t-109 19h-137q0 -67 2 -157h-90q2 74 2 267q0 194 -2 267h90q-2 -98 -2 -174h75l141 174h117l-152 -176q105 1 145 -58t40 -163l1 -137h-87z" />
    <glyph glyph-name="Lacute" unicode="&#x139;" horiz-adv-x="551" 
d="M43 0q4 216 4 348q0 205 -4 352h99q-4 -208 -4 -471h402v-229h-497zM0 761l-17 58l217 98l45 -123z" />
    <glyph glyph-name="lacute" unicode="&#x13a;" horiz-adv-x="168" 
d="M39 0q2 77 2 349q0 231 -2 351h90l-1 -137q-2 -158 -2 -214q0 -79 3 -349h-90zM-45 730l-17 58l217 98l45 -123z" />
    <glyph glyph-name="uni013B" unicode="&#x13b;" horiz-adv-x="551" 
d="M43 0q4 216 4 348q0 205 -4 352h99q-4 -208 -4 -471h402v-229h-497zM276 -150q-29 0 -45 14.5t-16 40.5q0 24 18.5 38.5t49.5 14.5q34 0 51.5 -15t17.5 -41q0 -18 -10.5 -34.5t-28.5 -36.5l-38 -45h-43z" />
    <glyph glyph-name="uni013C" unicode="&#x13c;" horiz-adv-x="168" 
d="M39 0q2 77 2 349q0 231 -2 351h90l-1 -137q-2 -158 -2 -214q0 -79 3 -349h-90zM80 -143q-32 0 -49.5 16t-17.5 44q0 26 20 42t54 16q38 0 56.5 -16t18.5 -45q0 -19 -11.5 -37t-30.5 -41l-42 -49h-47z" />
    <glyph glyph-name="Lcaron" unicode="&#x13d;" horiz-adv-x="551" 
d="M43 0q4 216 4 348q0 205 -4 352h99q-4 -208 -4 -471h402v-229h-497zM476 701l-10 -244h-114l-10 244h134z" />
    <glyph glyph-name="lcaron" unicode="&#x13e;" horiz-adv-x="245" 
d="M39 0q2 77 2 349q0 231 -2 351h90l-1 -137q-2 -158 -2 -214q0 -79 3 -349h-90zM242 700l-9 -202h-66l-10 202h85z" />
    <glyph glyph-name="Ldot" unicode="&#x13f;" horiz-adv-x="551" 
d="M43 0q4 216 4 348q0 205 -4 352h99q-4 -208 -4 -471h402v-229h-497zM288.5 396.5q-22.5 20.5 -22.5 56.5q0 35 22.5 55t60.5 20t60.5 -20t22.5 -55q0 -36 -22.5 -56.5t-60.5 -20.5t-60.5 20.5z" />
    <glyph glyph-name="ldot" unicode="&#x140;" horiz-adv-x="267" 
d="M39 0q2 77 2 349q0 231 -2 351h90l-1 -137q-2 -158 -2 -214q0 -79 3 -349h-90zM172 322.5q-14 12.5 -14 34.5t14 34.5t37 12.5t37 -12.5t14 -34.5t-14 -34.5t-37 -12.5t-37 12.5z" />
    <glyph glyph-name="Lslash" unicode="&#x141;" horiz-adv-x="551" 
d="M540 229v-229h-497q4 216 4 348v21q-48 -29 -76 -47l-35 61l111 61v27q-2 165 -4 229h99l-3 -203q57 33 87 54l35 -62l-39 -21q-63 -35 -83 -47q-1 -63 -1 -192h402z" />
    <glyph glyph-name="lslash" unicode="&#x142;" horiz-adv-x="195" 
d="M228 376l-88 -39q0 -208 3 -337h-91q3 96 3 296q-12 -6 -60 -31l-30 62l90 40q0 164 -3 333h91q-3 -150 -3 -293q28 13 58 30z" />
    <glyph glyph-name="Nacute" unicode="&#x143;" horiz-adv-x="680" 
d="M43 0q0 39 2 129q2 154 2 228q0 153 -4 343h209l268 -494h20l1 147q0 121 -5 347h101q-5 -270 -5 -350q0 -32 2 -192l2 -158h-210l-266 494h-21q0 -196 4 -494h-100zM230 761l-17 58l217 98l45 -123z" />
    <glyph glyph-name="nacute" unicode="&#x144;" horiz-adv-x="548" 
d="M473.5 485q41.5 -60 38.5 -166q-3 -111 -3 -216q0 -71 1 -103h-89q2 44 2 136v79q-1 61 -37 85t-107 24q-82 0 -116.5 -34t-35.5 -110l-1 -59q0 -52 3 -121h-90q2 73 2 267t-2 267h94q-1 -36 -5 -107q58 118 197 118q107 0 148.5 -60zM191 597l-17 56l214 97l43 -121z
" />
    <glyph glyph-name="uni0145" unicode="&#x145;" horiz-adv-x="680" 
d="M43 0q0 39 2 129q2 154 2 228q0 153 -4 343h209l268 -494h20l1 147q0 121 -5 347h101q-5 -270 -5 -350q0 -32 2 -192l2 -158h-210l-266 494h-21q0 -196 4 -494h-100zM338 -150q-29 0 -45 14.5t-16 40.5q0 24 18.5 38.5t49.5 14.5q34 0 51.5 -15t17.5 -41
q0 -18 -10.5 -34.5t-28.5 -36.5l-38 -45h-43z" />
    <glyph glyph-name="uni0146" unicode="&#x146;" horiz-adv-x="548" 
d="M473.5 485q41.5 -60 38.5 -166q-3 -111 -3 -216q0 -71 1 -103h-89q2 44 2 136v79q-1 61 -37 85t-107 24q-82 0 -116.5 -34t-35.5 -110l-1 -59q0 -52 3 -121h-90q2 73 2 267t-2 267h94q-1 -36 -5 -107q58 118 197 118q107 0 148.5 -60zM263 -143q-32 0 -49.5 16t-17.5 44
q0 26 20 42t54 16q38 0 56.5 -16t18.5 -45q0 -19 -11.5 -37t-30.5 -41l-42 -49h-47z" />
    <glyph glyph-name="Ncaron" unicode="&#x147;" horiz-adv-x="680" 
d="M43 0q0 39 2 129q2 154 2 228q0 153 -4 343h209l268 -494h20l1 147q0 121 -5 347h101q-5 -270 -5 -350q0 -32 2 -192l2 -158h-210l-266 494h-21q0 -196 4 -494h-100zM194 867l6 41l132 -34h21l134 34l5 -41l-123 -96h-51z" />
    <glyph glyph-name="ncaron" unicode="&#x148;" horiz-adv-x="548" 
d="M473.5 485q41.5 -60 38.5 -166q-3 -111 -3 -216q0 -71 1 -103h-89q2 44 2 136v79q-1 61 -37 85t-107 24q-82 0 -116.5 -34t-35.5 -110l-1 -59q0 -52 3 -121h-90q2 73 2 267t-2 267h94q-1 -36 -5 -107q58 118 197 118q107 0 148.5 -60zM153 694l6 41l132 -34h21l134 34
l5 -41l-123 -96h-51z" />
    <glyph glyph-name="Eng" unicode="&#x14a;" horiz-adv-x="661" 
d="M416.5 -203q-19.5 3 -51.5 11v166q34 -8 66 -8q37 0 56 8t27 30v6h-106l-251 476h-22q0 -188 4 -486h-96q0 39 2 129q2 154 2 228q0 153 -4 343h220l253 -476h20q0 24 1 36l1 125q0 70 -3 229l-2 86h97q-3 -162 -3 -340l2 -357q0 -116 -41 -162.5t-125 -46.5
q-27 0 -46.5 3z" />
    <glyph glyph-name="eng" unicode="&#x14b;" horiz-adv-x="550" 
d="M438.5 517q40.5 -28 56.5 -78.5t16 -128.5q0 -71 -1 -107q0 -33 -0.5 -90t-0.5 -159q0 -75 -27.5 -115.5t-94.5 -40.5q-29 0 -49 6l-4 167l38 -1q26 0 38 18.5t12 55.5v48q0 92 -1 129q-1 55 -36.5 77t-106.5 22q-81 0 -116 -33.5t-36 -106.5l-1 -59q0 -52 3 -121h-89
q2 79 2 267t-2 267h93q-1 -38 -5 -108q28 57 75 88t123 31q73 0 113.5 -28z" />
    <glyph glyph-name="Omacron" unicode="&#x14c;" horiz-adv-x="716" 
d="M107 76.5q-85 91.5 -85 273.5q0 180 85 271t251 91t251 -91t85 -271q0 -182 -84.5 -273.5t-251.5 -91.5q-166 0 -251 91.5zM499 229.5q51 12.5 74 41t23 79.5q0 50 -23 78t-74 40t-141 12q-89 0 -140.5 -12t-74.5 -40.5t-23 -77.5q0 -51 23 -79.5t74 -41t141 -12.5
t141 12.5zM514 844v-77h-302v77h302z" />
    <glyph glyph-name="omacron" unicode="&#x14d;" horiz-adv-x="558" 
d="M80.5 59.5q-63.5 69.5 -63.5 207.5q0 139 63.5 208.5t198.5 69.5q134 0 197.5 -69.5t63.5 -208.5q0 -138 -63.5 -207.5t-197.5 -69.5q-135 0 -198.5 69.5zM415.5 207q40.5 19 40.5 60t-41 60.5t-135 19.5q-96 0 -137.5 -19.5t-41.5 -60.5t41.5 -60t137.5 -19
q95 0 135.5 19zM431 677v-77h-302v77h302z" />
    <glyph glyph-name="Ohungarumlaut" unicode="&#x150;" horiz-adv-x="716" 
d="M107 76.5q-85 91.5 -85 273.5q0 180 85 271t251 91t251 -91t85 -271q0 -182 -84.5 -273.5t-251.5 -91.5q-166 0 -251 91.5zM499 229.5q51 12.5 74 41t23 79.5q0 50 -23 78t-74 40t-141 12q-89 0 -140.5 -12t-74.5 -40.5t-23 -77.5q0 -51 23 -79.5t74 -41t141 -12.5
t141 12.5zM242 751l-44 49l140 160l81 -94zM428 751l-34 49l153 144l78 -98z" />
    <glyph glyph-name="ohungarumlaut" unicode="&#x151;" horiz-adv-x="558" 
d="M80.5 59.5q-63.5 69.5 -63.5 207.5q0 139 63.5 208.5t198.5 69.5q134 0 197.5 -69.5t63.5 -208.5q0 -138 -63.5 -207.5t-197.5 -69.5q-135 0 -198.5 69.5zM415.5 207q40.5 19 40.5 60t-41 60.5t-135 19.5q-96 0 -137.5 -19.5t-41.5 -60.5t41.5 -60t137.5 -19
q95 0 135.5 19zM169 592l-44 49l139 160l81 -94zM354 593l-33 49l153 142l77 -98z" />
    <glyph glyph-name="OE" unicode="&#x152;" horiz-adv-x="1134" 
d="M696 230h417v-230h-512l2 69q-85 -84 -245 -84q-166 0 -251 91.5t-85 273.5q0 180 85 271t251 91q160 0 245 -85l-2 73h499v-230h-404v-70h177.5t176.5 1v-78q-88 1 -176.5 1h-177.5v-94zM499 229.5q51 12.5 74 41t23 79.5q0 50 -23 78t-74 40t-141 12q-89 0 -140.5 -12
t-74.5 -40.5t-23 -77.5q0 -51 23 -79.5t74 -41t141 -12.5t141 12.5z" />
    <glyph glyph-name="oe" unicode="&#x153;" horiz-adv-x="971" 
d="M954 230h-414q12 -36 54.5 -51t131.5 -15q64 0 113 7t103 21l-14 -170q-43 -15 -95.5 -23.5t-103.5 -8.5q-165 0 -230 99q-61 -99 -220 -99q-135 0 -198.5 69.5t-63.5 207.5q0 139 63.5 208.5t198.5 69.5q159 0 221 -100q64 99 221 99q122 0 177.5 -70.5t55.5 -189.5v-54
zM869 300q0 35 -37.5 55.5t-116.5 20.5q-83 0 -124.5 -18t-51.5 -56v-2h330zM415.5 207q40.5 19 40.5 60t-41 60.5t-135 19.5q-96 0 -137.5 -19.5t-41.5 -60.5t41.5 -60t137.5 -19q95 0 135.5 19z" />
    <glyph glyph-name="Racute" unicode="&#x154;" horiz-adv-x="641" 
d="M43 0l1 92q3 117 3 259q0 206 -4 349h289q136 0 206 -58.5t70 -171.5q0 -80 -26.5 -124t-80.5 -67v-2q55 -18 83 -62.5t28 -121.5q0 -55 1 -93h-100q1 31 1 96q0 70 -42 105.5t-118 35.5h-214q0 -38 1 -57q0 -79 3 -180h-101zM366 317q53 0 81 21t28 62q0 38 -30 59.5
t-82 21.5h-226v-164h229zM211 761l-17 58l217 98l45 -123z" />
    <glyph glyph-name="racute" unicode="&#x155;" horiz-adv-x="387" 
d="M372 541v-233q-20 4 -48.5 7t-49.5 3q-71 0 -109.5 -31.5t-38.5 -117.5q0 -36 1 -74.5t2 -74.5q1 -7 1 -20h-91q2 170 2 260q0 96 -2 274h95q-4 -74 -5 -108q34 61 83 90t109 29q34 0 51 -4zM79 597l-17 56l214 97l43 -121z" />
    <glyph glyph-name="uni0156" unicode="&#x156;" horiz-adv-x="641" 
d="M43 0l1 92q3 117 3 259q0 206 -4 349h289q136 0 206 -58.5t70 -171.5q0 -80 -26.5 -124t-80.5 -67v-2q55 -18 83 -62.5t28 -121.5q0 -55 1 -93h-100q1 31 1 96q0 70 -42 105.5t-118 35.5h-214q0 -38 1 -57q0 -79 3 -180h-101zM366 317q53 0 81 21t28 62q0 38 -30 59.5
t-82 21.5h-226v-164h229zM318 -150q-29 0 -45 14.5t-16 40.5q0 24 18.5 38.5t49.5 14.5q34 0 51.5 -15t17.5 -41q0 -18 -10.5 -34.5t-28.5 -36.5l-38 -45h-43z" />
    <glyph glyph-name="uni0157" unicode="&#x157;" horiz-adv-x="387" 
d="M372 541v-233q-20 4 -48.5 7t-49.5 3q-71 0 -109.5 -31.5t-38.5 -117.5q0 -36 1 -74.5t2 -74.5q1 -7 1 -20h-91q2 170 2 260q0 96 -2 274h95q-4 -74 -5 -108q34 61 83 90t109 29q34 0 51 -4zM82 -143q-32 0 -49.5 16t-17.5 44q0 26 20 42t54 16q38 0 56.5 -16t18.5 -45
q0 -19 -11.5 -37t-30.5 -41l-42 -49h-47z" />
    <glyph glyph-name="Rcaron" unicode="&#x158;" horiz-adv-x="641" 
d="M43 0l1 92q3 117 3 259q0 206 -4 349h289q136 0 206 -58.5t70 -171.5q0 -80 -26.5 -124t-80.5 -67v-2q55 -18 83 -62.5t28 -121.5q0 -55 1 -93h-100q1 31 1 96q0 70 -42 105.5t-118 35.5h-214q0 -38 1 -57q0 -79 3 -180h-101zM366 317q53 0 81 21t28 62q0 38 -30 59.5
t-82 21.5h-226v-164h229zM174 867l6 41l132 -34h21l134 34l5 -41l-123 -96h-51z" />
    <glyph glyph-name="rcaron" unicode="&#x159;" horiz-adv-x="387" 
d="M372 541v-233q-20 4 -48.5 7t-49.5 3q-71 0 -109.5 -31.5t-38.5 -117.5q0 -36 1 -74.5t2 -74.5q1 -7 1 -20h-91q2 170 2 260q0 96 -2 274h95q-4 -74 -5 -108q34 61 83 90t109 29q34 0 51 -4zM41 694l6 41l132 -34h21l134 34l5 -41l-123 -96h-51z" />
    <glyph glyph-name="Sacute" unicode="&#x15a;" horiz-adv-x="603" 
d="M164.5 1q-67.5 12 -129.5 33l-6 203q66 -15 130 -24t138 -9q75 0 105.5 13.5t30.5 37.5q0 17 -11.5 28t-44.5 17.5t-96 8.5q-91 4 -146.5 18.5t-86 52.5t-30.5 110q0 57 29 107t94 82t166 32q60 0 128 -13t111 -30l7 -213q-41 12 -106.5 22t-148.5 10q-72 0 -101.5 -11.5
t-29.5 -34.5q0 -15 10 -23.5t39.5 -14.5t88.5 -10q97 -6 155.5 -20.5t91.5 -53.5t33 -112q0 -115 -83 -166.5t-207 -51.5q-63 0 -130.5 12zM194 761l-17 58l217 98l45 -123z" />
    <glyph glyph-name="sacute" unicode="&#x15b;" horiz-adv-x="492" 
d="M133 -8q-50 7 -98 22l-10 185q52 -14 107 -23t99 -9q47 0 65 8t18 26q0 16 -15 23.5t-56 11.5q-123 10 -172 47t-49 108q0 32 18 66.5t70 60.5t145 26q100 0 184 -26l4 -180q-105 25 -185 25q-37 0 -57 -6.5t-20 -22.5q0 -14 15 -21t60 -11q82 -7 129 -24.5t66.5 -47
t19.5 -73.5q0 -172 -251 -172q-37 0 -87 7zM136 597l-17 56l214 97l43 -121z" />
    <glyph glyph-name="Scedilla" unicode="&#x15e;" horiz-adv-x="603" 
d="M514 50q-71 -52 -181 -60l-2 -29q10 3 40 3q52 0 80 -19t28 -56q0 -52 -36.5 -73.5t-104.5 -21.5q-57 0 -121 19l21 74q14 -4 42.5 -7.5t56.5 -3.5q29 0 40.5 5.5t11.5 15.5t-11 15t-40 5q-33 0 -67 -3l-20 -1l28 76q-118 3 -244 45l-6 203q66 -15 130 -24t138 -9
q75 0 105.5 13.5t30.5 37.5q0 17 -11.5 28t-44.5 17.5t-96 8.5q-91 4 -146.5 18.5t-86 52.5t-30.5 110q0 57 29 107t94 82t166 32q60 0 128 -13t111 -30l7 -213q-41 12 -106.5 22t-148.5 10q-72 0 -101.5 -11.5t-29.5 -34.5q0 -15 10 -23.5t39.5 -14.5t88.5 -10
q97 -6 155.5 -20.5t91.5 -53.5t33 -112q0 -105 -71 -157z" />
    <glyph glyph-name="scedilla" unicode="&#x15f;" horiz-adv-x="492" 
d="M273 -13l-2 -26q11 3 40 3q52 0 80 -19t28 -56q0 -52 -36.5 -73.5t-104.5 -21.5q-57 0 -121 19l21 74q14 -4 42.5 -7.5t56.5 -3.5q29 0 40.5 5.5t11.5 15.5t-11 15t-40 5q-33 0 -67 -3l-20 -1l27 72q-38 0 -86.5 7t-96.5 22l-10 185q52 -14 107 -23t99 -9q47 0 65 8
t18 26q0 16 -15 23.5t-56 11.5q-123 10 -172 47t-49 108q0 32 18 66.5t70 60.5t145 26q100 0 184 -26l4 -180q-105 25 -185 25q-37 0 -57 -6.5t-20 -22.5q0 -14 15 -21t60 -11q82 -7 129 -24.5t66.5 -47t19.5 -73.5q0 -151 -198 -170z" />
    <glyph glyph-name="Scaron" unicode="&#x160;" horiz-adv-x="603" 
d="M164.5 1q-67.5 12 -129.5 33l-6 203q66 -15 130 -24t138 -9q75 0 105.5 13.5t30.5 37.5q0 17 -11.5 28t-44.5 17.5t-96 8.5q-91 4 -146.5 18.5t-86 52.5t-30.5 110q0 57 29 107t94 82t166 32q60 0 128 -13t111 -30l7 -213q-41 12 -106.5 22t-148.5 10q-72 0 -101.5 -11.5
t-29.5 -34.5q0 -15 10 -23.5t39.5 -14.5t88.5 -10q97 -6 155.5 -20.5t91.5 -53.5t33 -112q0 -115 -83 -166.5t-207 -51.5q-63 0 -130.5 12zM157 867l6 41l132 -34h21l134 34l5 -41l-123 -96h-51z" />
    <glyph glyph-name="scaron" unicode="&#x161;" horiz-adv-x="492" 
d="M133 -8q-50 7 -98 22l-10 185q52 -14 107 -23t99 -9q47 0 65 8t18 26q0 16 -15 23.5t-56 11.5q-123 10 -172 47t-49 108q0 32 18 66.5t70 60.5t145 26q100 0 184 -26l4 -180q-105 25 -185 25q-37 0 -57 -6.5t-20 -22.5q0 -14 15 -21t60 -11q82 -7 129 -24.5t66.5 -47
t19.5 -73.5q0 -172 -251 -172q-37 0 -87 7zM98 694l6 41l132 -34h21l134 34l5 -41l-123 -96h-51z" />
    <glyph glyph-name="uni0162" unicode="&#x162;" horiz-adv-x="533" 
d="M522 473h-209q-1 -55 -1 -151q0 -186 5 -322h-23l-3 -39q11 3 40 3q52 0 80 -19t28 -56q0 -52 -36.5 -73.5t-104.5 -21.5q-57 0 -121 19l21 74q14 -4 42.5 -7.5t56.5 -3.5q29 0 40.5 5.5t11.5 15.5t-11 15t-40 5q-33 0 -67 -3l-20 -1l32 87h-26q4 149 4 322v151h-210v227
h511v-227z" />
    <glyph glyph-name="uni0163" unicode="&#x163;" horiz-adv-x="380" 
d="M366 -55q28 -19 28 -56q0 -52 -36.5 -73.5t-104.5 -21.5q-57 0 -121 19l21 74q14 -4 42.5 -7.5t56.5 -3.5q29 0 40.5 5.5t11.5 15.5t-11 15t-40 5q-32 0 -67 -3l-20 -1l29 80q-64 9 -91.5 47.5t-27.5 100.5q0 34 5 156q2 20 2 29h-67v204l67 4v97h86v-97h181v-208h-181
q-2 -23 -2 -70q0 -41 17 -62.5t60 -21.5q35 0 62 2.5t59 10.5l-7 -172q-31 -10 -55 -16t-55 -7l-2 -29q11 3 40 3q52 0 80 -19z" />
    <glyph glyph-name="Tcaron" unicode="&#x164;" horiz-adv-x="533" 
d="M217 0q4 149 4 322v151h-210v227h511v-227h-209q-1 -55 -1 -151q0 -186 5 -322h-100zM118 867l6 41l132 -34h21l134 34l5 -41l-123 -96h-51z" />
    <glyph glyph-name="tcaron" unicode="&#x165;" horiz-adv-x="380" 
d="M112.5 30q-36.5 40 -36.5 111q0 34 5 156q2 20 2 29h-67v204l67 4v97h86v-97h181v-208h-181q-2 -23 -2 -70q0 -41 17 -62.5t60 -21.5q35 0 62 2.5t59 10.5l-7 -172q-31 -10 -59 -16.5t-62 -6.5q-88 0 -124.5 40zM347 789l-9 -202h-66l-10 202h85z" />
    <glyph glyph-name="Tbar" unicode="&#x166;" horiz-adv-x="533" 
d="M522 473h-209q-1 -49 -1 -136q52 0 136 2v-87q-84 2 -136 2q2 -175 5 -254h-100q2 69 4 228v26q-51 0 -135 -2v87q84 -2 135 -2v136h-210v227h511v-227z" />
    <glyph glyph-name="tbar" unicode="&#x167;" horiz-adv-x="380" 
d="M306 174.5q27 2.5 59 10.5l-7 -172q-31 -10 -59 -16.5t-62 -6.5q-88 0 -124.5 40t-36.5 111q0 56 3 107l-74 -1v57l77 -2l1 24h-67v204l67 4v97h86v-97h181v-208h-181q-1 -8 -1 -24q114 0 163 2v-57q-98 2 -164 2q2 -38 19 -57.5t58 -19.5q35 0 62 2.5z" />
    <glyph glyph-name="Umacron" unicode="&#x16a;" horiz-adv-x="635" 
d="M97.5 64q-63.5 76 -63.5 213q0 305 -4 423h99q-3 -207 -3 -328q0 -48 15.5 -81t57.5 -52t119 -19t119 19t57.5 52t15.5 81q0 144 -4 328h99q-4 -99 -4 -264l1 -159q0 -138 -63.5 -213.5t-220.5 -75.5t-220.5 76zM477 844v-77h-302v77h302z" />
    <glyph glyph-name="umacron" unicode="&#x16b;" horiz-adv-x="548" 
d="M509 534q-2 -73 -2 -267t2 -267h-94q1 36 5 107q-58 -118 -197 -118q-107 0 -148.5 60t-38.5 166q3 111 3 216q0 71 -1 103h89q-2 -44 -2 -136v-79q1 -61 37 -85t107 -24q82 0 116.5 34t35.5 110l1 59q0 52 -3 121h90zM429 677v-77h-302v77h302z" />
    <glyph glyph-name="Uring" unicode="&#x16e;" horiz-adv-x="635" 
d="M97.5 64q-63.5 76 -63.5 213q0 305 -4 423h99q-3 -207 -3 -328q0 -48 15.5 -81t57.5 -52t119 -19t119 19t57.5 52t15.5 81q0 144 -4 328h99q-4 -99 -4 -264l1 -159q0 -138 -63.5 -213.5t-220.5 -75.5t-220.5 76zM262.5 764.5q-24.5 22.5 -24.5 65.5q0 44 24.5 67t71.5 23
t71.5 -23t24.5 -67q0 -43 -24.5 -65.5t-71.5 -22.5t-71.5 22.5zM379 830q0 13 -10 20t-35 7q-45 0 -45 -27q0 -26 45 -26t45 26z" />
    <glyph glyph-name="uring" unicode="&#x16f;" horiz-adv-x="548" 
d="M509 534q-2 -73 -2 -267t2 -267h-94q1 36 5 107q-58 -118 -197 -118q-107 0 -148.5 60t-38.5 166q3 111 3 216q0 71 -1 103h89q-2 -44 -2 -136v-79q1 -61 37 -85t107 -24q82 0 116.5 34t35.5 110l1 59q0 52 -3 121h90zM206.5 617.5q-24.5 22.5 -24.5 65.5q0 44 24.5 67
t71.5 23t71.5 -23t24.5 -67q0 -43 -24.5 -65.5t-71.5 -22.5t-71.5 22.5zM323 683q0 13 -10 20t-35 7q-45 0 -45 -27q0 -26 45 -26t45 26z" />
    <glyph glyph-name="Uhungarumlaut" unicode="&#x170;" horiz-adv-x="635" 
d="M97.5 64q-63.5 76 -63.5 213q0 305 -4 423h99q-3 -207 -3 -328q0 -48 15.5 -81t57.5 -52t119 -19t119 19t57.5 52t15.5 81q0 144 -4 328h99q-4 -99 -4 -264l1 -159q0 -138 -63.5 -213.5t-220.5 -75.5t-220.5 76zM205 751l-44 49l140 160l81 -94zM391 751l-34 49l153 144
l78 -98z" />
    <glyph glyph-name="uhungarumlaut" unicode="&#x171;" horiz-adv-x="548" 
d="M509 534q-2 -73 -2 -267t2 -267h-94q1 36 5 107q-58 -118 -197 -118q-107 0 -148.5 60t-38.5 166q3 111 3 216q0 71 -1 103h89q-2 -44 -2 -136v-79q1 -61 37 -85t107 -24q82 0 116.5 34t35.5 110l1 59q0 52 -3 121h90zM167 592l-44 49l139 160l81 -94zM352 593l-33 49
l153 142l77 -98z" />
    <glyph glyph-name="Uogonek" unicode="&#x172;" horiz-adv-x="635" 
d="M605 700q-4 -99 -4 -264l1 -161q0 -97 -31.5 -163.5t-103.5 -97.5q-68 -38 -68 -71q0 -16 9.5 -21t27.5 -5q29 0 63 8v-89q-46 -18 -85 -18q-50 0 -77.5 22t-27.5 64q0 50 40 85q-10 -1 -31 -1q-157 0 -220.5 76t-63.5 213q0 305 -4 423h99q-3 -207 -3 -328
q0 -48 15.5 -81t57.5 -52t119 -19t119 19t57.5 52t15.5 81q0 144 -4 328h99z" />
    <glyph glyph-name="uogonek" unicode="&#x173;" horiz-adv-x="548" 
d="M522 -97v-89q-46 -18 -85 -18q-50 0 -77.5 22t-27.5 64q0 38 24.5 68t69.5 50h-11q1 36 5 107q-58 -118 -197 -118q-107 0 -148.5 60t-38.5 166q3 111 3 216q0 71 -1 103h89q-2 -44 -2 -136v-79q1 -61 37 -85t107 -24q82 0 116.5 34t35.5 110l1 59q0 52 -3 121h90
q-2 -73 -2 -267t2 -267h-3q-36 -18 -60 -38t-24 -41q0 -16 9.5 -21t27.5 -5q29 0 63 8z" />
    <glyph glyph-name="Wcircumflex" unicode="&#x174;" horiz-adv-x="956" 
d="M135 0q-7 43 -75 425q-13 72 -49 275h101q31 -203 82 -486h47q62 324 90 486h188q43 -216 101 -486h50q54 324 79 486h196l-30 -156q-84 -436 -104 -544h-240q-24 129 -43 225.5t-32 161.5l-26 129h-3q-68 -344 -100 -516h-232zM454 789l-132 -34l-6 41l124 96h51
l123 -96l-5 -41l-134 34h-21z" />
    <glyph glyph-name="wcircumflex" unicode="&#x175;" horiz-adv-x="784" 
d="M306 0h-178l-121 534h95l66 -323h35l68 323h166l76 -323h36l64 323h164l-124 -534h-176l-87 389h-5zM374 628l-132 -34l-6 41l124 96h51l123 -96l-5 -41l-134 34h-21z" />
    <glyph glyph-name="Ycircumflex" unicode="&#x176;" horiz-adv-x="641" 
d="M164 -4q-67 11 -117 29v206q68 -20 128 -30.5t121 -10.5q99 0 159 43t60 134v56q-13 -51 -49 -84.5t-82.5 -49t-91.5 -15.5q-105 0 -163 34.5t-81.5 105.5t-23.5 189l-2 97h99v-81q0 -49 14.5 -78.5t56 -45t119.5 -15.5q104 0 153 34.5t49 105.5v80h98q-3 -217 -3 -359
q0 -178 -70.5 -267t-240.5 -89q-66 0 -133 11zM307 789l-132 -34l-6 41l124 96h51l123 -96l-5 -41l-134 34h-21z" />
    <glyph glyph-name="ycircumflex" unicode="&#x177;" horiz-adv-x="546" 
d="M508 534q-3 -117 -3 -266l1 -211q0 -136 -58.5 -199.5t-192.5 -63.5q-98 0 -191 24l-10 168q92 -34 183 -34q88 0 136 40.5t48 130.5v24q-27 -58 -76 -88.5t-112 -30.5q-109 0 -155 58t-42 177q2 118 2 219v52h88q-2 -78 -2 -121l1 -80q1 -55 37 -78t102 -23
q83 0 119.5 33.5t36.5 106.5l1 56q0 40 -3 106h90zM273 628l-132 -34l-6 41l124 96h51l123 -96l-5 -41l-134 34h-21z" />
    <glyph glyph-name="Ydieresis" unicode="&#x178;" horiz-adv-x="641" 
d="M164 -4q-67 11 -117 29v206q68 -20 128 -30.5t121 -10.5q99 0 159 43t60 134v56q-13 -51 -49 -84.5t-82.5 -49t-91.5 -15.5q-105 0 -163 34.5t-81.5 105.5t-23.5 189l-2 97h99v-81q0 -49 14.5 -78.5t56 -45t119.5 -15.5q104 0 153 34.5t49 105.5v80h98q-3 -217 -3 -359
q0 -178 -70.5 -267t-240.5 -89q-66 0 -133 11zM174.5 771.5q-17.5 16.5 -17.5 47.5q0 29 18 46t49 17q32 0 50 -17t18 -46q0 -31 -18 -47.5t-50 -16.5t-49.5 16.5zM362 771.5q-17 16.5 -17 47.5q0 29 17.5 46t48.5 17q32 0 50 -17t18 -46q0 -30 -18 -47t-50 -17t-49 16.5z
" />
    <glyph glyph-name="Zacute" unicode="&#x179;" horiz-adv-x="608" 
d="M586 0h-564v204l369 266v6h-352v224h533v-206l-375 -265v-5h389v-224zM183 761l-17 58l217 98l45 -123z" />
    <glyph glyph-name="zacute" unicode="&#x17a;" horiz-adv-x="505" 
d="M482 0h-458v159l273 187v3h-256v185h431v-165l-273 -180v-4h283v-185zM140 597l-17 56l214 97l43 -121z" />
    <glyph glyph-name="Zdotaccent" unicode="&#x17b;" horiz-adv-x="608" 
d="M586 0h-564v204l369 266v6h-352v224h533v-206l-375 -265v-5h389v-224zM249 772.5q-18 15.5 -18 43.5q0 27 18.5 42.5t50.5 15.5q33 0 51.5 -15.5t18.5 -42.5q0 -28 -18.5 -43.5t-51.5 -15.5t-51 15.5z" />
    <glyph glyph-name="zdotaccent" unicode="&#x17c;" horiz-adv-x="505" 
d="M482 0h-458v159l273 187v3h-256v185h431v-165l-273 -180v-4h283v-185zM204 613.5q-17 17.5 -17 50.5t17 50t47 17q31 0 47 -17.5t16 -49.5q0 -68 -63 -68q-30 0 -47 17.5z" />
    <glyph glyph-name="Zcaron" unicode="&#x17d;" horiz-adv-x="608" 
d="M586 0h-564v204l369 266v6h-352v224h533v-206l-375 -265v-5h389v-224zM147 867l6 41l132 -34h21l134 34l5 -41l-123 -96h-51z" />
    <glyph glyph-name="zcaron" unicode="&#x17e;" horiz-adv-x="505" 
d="M482 0h-458v159l273 187v3h-256v185h431v-165l-273 -180v-4h283v-185zM103 694l6 41l132 -34h21l134 34l5 -41l-123 -96h-51z" />
    <glyph glyph-name="uni018F" unicode="&#x18f;" horiz-adv-x="701" 
d="M591.5 621.5q87.5 -88.5 87.5 -271.5q0 -362 -332 -362q-118 0 -188.5 51t-99 128t-28.5 165v54h557q-12 59 -69 86t-178 27q-87 0 -150.5 -10t-130.5 -29l13 208q53 19 120 30.5t136 11.5q175 0 262.5 -88.5zM523 223q56 30 66 88h-467q0 -31 23.5 -57.5t74.5 -43.5
t129 -17q118 0 174 30z" />
    <glyph glyph-name="uni0218" unicode="&#x218;" horiz-adv-x="603" 
d="M164.5 1q-67.5 12 -129.5 33l-6 203q66 -15 130 -24t138 -9q75 0 105.5 13.5t30.5 37.5q0 17 -11.5 28t-44.5 17.5t-96 8.5q-91 4 -146.5 18.5t-86 52.5t-30.5 110q0 57 29 107t94 82t166 32q60 0 128 -13t111 -30l7 -213q-41 12 -106.5 22t-148.5 10q-72 0 -101.5 -11.5
t-29.5 -34.5q0 -15 10 -23.5t39.5 -14.5t88.5 -10q97 -6 155.5 -20.5t91.5 -53.5t33 -112q0 -115 -83 -166.5t-207 -51.5q-63 0 -130.5 12zM302 -150q-29 0 -45 14.5t-16 40.5q0 24 18.5 38.5t49.5 14.5q34 0 51.5 -15t17.5 -41q0 -18 -10.5 -34.5t-28.5 -36.5l-38 -45h-43z
" />
    <glyph glyph-name="uni0219" unicode="&#x219;" horiz-adv-x="492" 
d="M133 -8q-50 7 -98 22l-10 185q52 -14 107 -23t99 -9q47 0 65 8t18 26q0 16 -15 23.5t-56 11.5q-123 10 -172 47t-49 108q0 32 18 66.5t70 60.5t145 26q100 0 184 -26l4 -180q-105 25 -185 25q-37 0 -57 -6.5t-20 -22.5q0 -14 15 -21t60 -11q82 -7 129 -24.5t66.5 -47
t19.5 -73.5q0 -172 -251 -172q-37 0 -87 7zM242 -143q-32 0 -49.5 16t-17.5 44q0 26 20 42t54 16q38 0 56.5 -16t18.5 -45q0 -19 -11.5 -37t-30.5 -41l-42 -49h-47z" />
    <glyph glyph-name="uni021A" unicode="&#x21a;" horiz-adv-x="533" 
d="M217 0q4 149 4 322v151h-210v227h511v-227h-209q-1 -55 -1 -151q0 -186 5 -322h-100zM262 -150q-29 0 -45 14.5t-16 40.5q0 24 18.5 38.5t49.5 14.5q34 0 51.5 -15t17.5 -41q0 -18 -10.5 -34.5t-28.5 -36.5l-38 -45h-43z" />
    <glyph glyph-name="uni021B" unicode="&#x21b;" horiz-adv-x="380" 
d="M112.5 30q-36.5 40 -36.5 111q0 34 5 156q2 20 2 29h-67v204l67 4v97h86v-97h181v-208h-181q-2 -23 -2 -70q0 -41 17 -62.5t60 -21.5q35 0 62 2.5t59 10.5l-7 -172q-31 -10 -59 -16.5t-62 -6.5q-88 0 -124.5 40zM217 -143q-32 0 -49.5 16t-17.5 44q0 26 20 42t54 16
q38 0 56.5 -16t18.5 -45q0 -19 -11.5 -37t-30.5 -41l-42 -49h-47z" />
    <glyph glyph-name="uni0237" unicode="&#x237;" horiz-adv-x="167" 
d="M-44 -196l-4 171l38 -1q26 0 38 17t12 56l1 211q0 94 -2 276h89q-3 -118 -3 -276q0 -88 1 -136l1 -167q0 -74 -28 -115.5t-95 -41.5q-29 0 -48 6z" />
    <glyph glyph-name="circumflex" unicode="&#x2c6;" horiz-adv-x="384" 
d="M181 799l-132 -34l-6 41l124 96h51l123 -96l-5 -41l-134 34h-21z" />
    <glyph glyph-name="caron" unicode="&#x2c7;" horiz-adv-x="384" 
d="M43 865l6 41l132 -34h21l134 34l5 -41l-123 -96h-51z" />
    <glyph glyph-name="breve" unicode="&#x2d8;" horiz-adv-x="366" 
d="M46 923h62q0 -37 18.5 -51.5t57.5 -14.5q38 0 56 14.5t19 51.5h61q1 -8 1 -24q0 -72 -33 -108t-105 -36q-148 0 -137 168z" />
    <glyph glyph-name="dotaccent" unicode="&#x2d9;" horiz-adv-x="224" 
d="M61 786.5q-18 15.5 -18 43.5q0 27 18.5 42.5t50.5 15.5q33 0 51.5 -15.5t18.5 -42.5q0 -28 -18.5 -43.5t-51.5 -15.5t-51 15.5z" />
    <glyph glyph-name="ring" unicode="&#x2da;" horiz-adv-x="278" 
d="M67.5 779.5q-24.5 22.5 -24.5 65.5q0 44 24.5 67t71.5 23t71.5 -23t24.5 -67q0 -43 -24.5 -65.5t-71.5 -22.5t-71.5 22.5zM184 845q0 13 -10 20t-35 7q-45 0 -45 -27q0 -26 45 -26t45 26z" />
    <glyph glyph-name="ogonek" unicode="&#x2db;" horiz-adv-x="275" 
d="M233 -186q-46 -18 -85 -18q-50 0 -77.5 22t-27.5 64q0 40 27.5 72t78.5 51l68 -5q-36 -18 -60 -38t-24 -41q0 -16 9.5 -21t27.5 -5q29 0 63 8v-89z" />
    <glyph glyph-name="tilde" unicode="&#x2dc;" horiz-adv-x="328" 
d="M193 788q-17 3 -31 6q-32 9 -61 9q-33 0 -58 -8v69q33 10 55 10q32 0 70 -10q34 -8 59 -8q33 0 58 8v-69q-32 -10 -54 -10q-21 0 -38 3z" />
    <glyph glyph-name="hungarumlaut" unicode="&#x2dd;" horiz-adv-x="513" 
d="M87 747l-44 49l140 160l81 -95zM273 747l-34 49l153 144l78 -99z" />
    <glyph glyph-name="gravecomb" unicode="&#x300;" 
d="M-257 751l214 -97l-17 -57l-240 33z" />
    <glyph glyph-name="acutecomb" unicode="&#x301;" 
d="M-283 597l-17 56l214 97l43 -121z" />
    <glyph glyph-name="uni0302" unicode="&#x302;" 
d="M-203 628l-132 -34l-6 41l124 96h51l123 -96l-5 -41l-134 34h-21z" />
    <glyph glyph-name="tildecomb" unicode="&#x303;" 
d="M-135 598q-17 3 -31 6q-32 9 -61 9q-33 0 -58 -8v69q33 10 55 10q32 0 70 -10q34 -8 59 -8q33 0 58 8v-69q-32 -10 -54 -10q-21 0 -38 3z" />
    <glyph glyph-name="uni0304" unicode="&#x304;" 
d="M-43 677v-77h-302v77h302z" />
    <glyph glyph-name="uni0306" unicode="&#x306;" 
d="M-320 758h62q0 -37 18.5 -51.5t57.5 -14.5q38 0 56 14.5t19 51.5h61q1 -8 1 -24q0 -72 -33 -108t-105 -36q-148 0 -137 168z" />
    <glyph glyph-name="uni0307" unicode="&#x307;" 
d="M-128 613.5q-17 17.5 -17 50.5t17 50t47 17q31 0 47 -17.5t16 -49.5q0 -68 -63 -68q-30 0 -47 17.5z" />
    <glyph glyph-name="uni0308" unicode="&#x308;" 
d="M-347.5 612.5q-17.5 16.5 -17.5 47.5q0 29 18 46t49 17q32 0 50 -17t18 -46q0 -31 -18 -47.5t-50 -16.5t-49.5 16.5zM-160 612.5q-17 16.5 -17 47.5q0 29 17.5 46t48.5 17q32 0 50 -17t18 -46q0 -30 -18 -47t-50 -17t-49 16.5z" />
    <glyph glyph-name="uni030A" unicode="&#x30a;" 
d="M-210.5 617.5q-24.5 22.5 -24.5 65.5q0 44 24.5 67t71.5 23t71.5 -23t24.5 -67q0 -43 -24.5 -65.5t-71.5 -22.5t-71.5 22.5zM-94 683q0 13 -10 20t-35 7q-45 0 -45 -27q0 -26 45 -26t45 26z" />
    <glyph glyph-name="uni030B" unicode="&#x30b;" 
d="M-425 592l-44 49l139 160l81 -94zM-240 593l-33 49l153 142l77 -98z" />
    <glyph glyph-name="uni030C" unicode="&#x30c;" 
d="M-341 694l6 41l132 -34h21l134 34l5 -41l-123 -96h-51z" />
    <glyph glyph-name="uni0312" unicode="&#x312;" 
d="M-110 706q31 0 49 -16t18 -44q0 -26 -20.5 -42t-54.5 -16q-74 0 -74 61q0 19 12 37.5t30 39.5l42 50h47z" />
    <glyph glyph-name="dotbelowcomb" unicode="&#x323;" 
d="M-163 -153.5q-18 15.5 -18 43.5q0 27 18.5 42.5t50.5 15.5q33 0 51.5 -15.5t18.5 -42.5q0 -28 -18.5 -43.5t-51.5 -15.5t-51 15.5z" />
    <glyph glyph-name="uni0326" unicode="&#x326;" 
d="M-125 -143q-32 0 -49.5 16t-17.5 44q0 26 20 42t54 16q38 0 56.5 -16t18.5 -45q0 -19 -11.5 -37t-30.5 -41l-42 -49h-47z" />
    <glyph glyph-name="uni0327" unicode="&#x327;" 
d="M-284 -113q14 -4 42.5 -7.5t56.5 -3.5q29 0 40.5 5.5t11.5 15.5t-11 15t-40 5q-32 0 -67 -3l-20 -1l35 95l48 -7l-3 -40q11 3 40 3q52 0 80 -19t28 -56q0 -52 -36.5 -73.5t-104.5 -21.5q-57 0 -121 19z" />
    <glyph glyph-name="uni0328" unicode="&#x328;" 
d="M-42 -186q-46 -18 -85 -18q-50 0 -77.5 22t-27.5 64q0 40 27.5 72t78.5 51l68 -5q-36 -18 -60 -38t-24 -41q0 -16 9.5 -21t27.5 -5q29 0 63 8v-89z" />
    <glyph glyph-name="uni0335" unicode="&#x335;" 
d="M-368 328q104 -2 173 -2t173 2v-72q-52 2 -173 2t-173 -2v72z" />
    <glyph glyph-name="uni0336" unicode="&#x336;" 
d="M-22 280q-117 2 -353 2q-237 0 -354 -2v89q88 -1 176.5 -1.5t177.5 -0.5q88 0 176.5 0.5t176.5 1.5v-89z" />
    <glyph glyph-name="uni0337" unicode="&#x337;" 
d="M-22 321q-151 -65 -234 -111l-29 61l26 12q142 63 207 99z" />
    <glyph glyph-name="uni0338" unicode="&#x338;" 
d="M-466 -34q104 164 206.5 333t154.5 265h83q-228 -364 -361 -598h-83z" />
    <glyph glyph-name="uni0400" unicode="&#x400;" horiz-adv-x="575" 
d="M43 0q4 216 4 348q0 205 -4 352h499v-230h-404v-70h177.5t176.5 1v-78q-88 1 -176.5 1h-177.5v-94h417v-230h-512zM201 914l214 -97l-17 -57l-240 33z" />
    <glyph glyph-name="uni0401" unicode="&#x401;" horiz-adv-x="575" 
d="M43 0q4 216 4 348q0 205 -4 352h499v-230h-404v-70h177.5t176.5 1v-78q-88 1 -176.5 1h-177.5v-94h417v-230h-512zM145.5 771.5q-17.5 16.5 -17.5 47.5q0 29 18 46t49 17q32 0 50 -17t18 -46q0 -31 -18 -47.5t-50 -16.5t-49.5 16.5zM333 771.5q-17 16.5 -17 47.5
q0 29 17.5 46t48.5 17q32 0 50 -17t18 -46q0 -30 -18 -47t-50 -17t-49 16.5z" />
    <glyph glyph-name="uni0402" unicode="&#x402;" horiz-adv-x="778" 
d="M694 365q64 -52 64 -148q0 -114 -57 -173t-168 -59q-59 0 -121 13l-4 218q22 -3 46.5 -5.5t56.5 -2.5q74 0 104 14t30 44q-1 29 -37.5 50.5t-108.5 21.5q-109 0 -195 -38q0 -174 5 -300h-100q4 149 4 322v175h-202v203h494v-203h-200q0 -87 -1 -122q40 18 92 30t106 12
q128 0 192 -52z" />
    <glyph glyph-name="uni0403" unicode="&#x403;" horiz-adv-x="540" 
d="M529 700v-229h-391q0 -263 4 -471h-99q4 147 4 352q0 132 -4 348h486zM193 761l-17 58l217 98l45 -123z" />
    <glyph glyph-name="uni0404" unicode="&#x404;" horiz-adv-x="616" 
d="M472.5 219.5q54.5 7.5 112.5 22.5v-217q-96 -40 -223 -40q-163 0 -251.5 92.5t-88.5 270.5q0 180 89 271.5t260 91.5q124 0 208 -38l1 -217q-58 15 -112 22t-125 7q-104 0 -155.5 -24.5t-63.5 -74.5q122 3 262 17v-102q-115 13 -264 17q9 -52 61 -79t161 -27
q74 0 128.5 7.5z" />
    <glyph glyph-name="uni0405" unicode="&#x405;" horiz-adv-x="603" 
d="M164.5 1q-67.5 12 -129.5 33l-6 203q66 -15 130 -24t138 -9q75 0 105.5 13.5t30.5 37.5q0 17 -11.5 28t-44.5 17.5t-96 8.5q-91 4 -146.5 18.5t-86 52.5t-30.5 110q0 57 29 107t94 82t166 32q60 0 128 -13t111 -30l7 -213q-41 12 -106.5 22t-148.5 10q-72 0 -101.5 -11.5
t-29.5 -34.5q0 -15 10 -23.5t39.5 -14.5t88.5 -10q97 -6 155.5 -20.5t91.5 -53.5t33 -112q0 -115 -83 -166.5t-207 -51.5q-63 0 -130.5 12z" />
    <glyph glyph-name="uni0406" unicode="&#x406;" horiz-adv-x="185" 
d="M43 0q4 144 4 350q0 207 -4 350h99q-5 -177 -5 -350t5 -350h-99z" />
    <glyph glyph-name="uni0407" unicode="&#x407;" horiz-adv-x="185" 
d="M43 0q4 144 4 350q0 207 -4 350h99q-5 -177 -5 -350t5 -350h-99zM-50.5 771.5q-17.5 16.5 -17.5 47.5q0 29 18 46t49 17q32 0 50 -17t18 -46q0 -31 -18 -47.5t-50 -16.5t-49.5 16.5zM137 771.5q-17 16.5 -17 47.5q0 29 17.5 46t48.5 17q32 0 50 -17t18 -46q0 -30 -18 -47
t-50 -17t-49 16.5z" />
    <glyph glyph-name="uni0408" unicode="&#x408;" horiz-adv-x="282" 
d="M5 233q40 -9 71 -9q32 0 48.5 9t23.5 32t7 68q0 201 -4 367h99q-3 -60 -3 -208l1 -172q1 -54 1 -152q0 -99 -35 -139.5t-106 -40.5q-28 0 -49 3t-54 12v230z" />
    <glyph glyph-name="uni0409" unicode="&#x409;" horiz-adv-x="1092" 
d="M8 -10l1 231q14 -2 30 -2q46 0 70 14t34.5 51.5t10.5 110.5q0 136 -3 305h457q-2 -138 -2 -182l-1 -92h230q236 0 236 -206q0 -113 -64.5 -166.5t-196.5 -53.5h-300q4 188 4 303v47v120h-275q4 -105 4 -281q0 -74 -16.5 -118t-54.5 -65t-105 -21q-24 0 -59 5zM856 216
q39 0 59.5 16t20.5 48t-22.5 49.5t-66.5 17.5h-242v-131h251z" />
    <glyph glyph-name="uni040A" unicode="&#x40a;" horiz-adv-x="1088" 
d="M830 426q237 0 237 -206q0 -113 -64.5 -166.5t-196.5 -53.5h-300q2 86 4 289h-373q1 -123 5 -289h-99q4 216 4 350q0 136 -4 350h99l-4 -238h371q0 59 -2 169l-1 69h98q-2 -138 -2 -182l-1 -92h229zM852 216q39 0 59.5 16t20.5 48t-22.5 49.5t-66.5 17.5h-242v-131h251z
" />
    <glyph glyph-name="uni040B" unicode="&#x40b;" horiz-adv-x="764" 
d="M639 0q5 61 4 94q-1 61 -39 89.5t-125 28.5q-96 0 -174 -26q0 -64 4 -186h-100q4 149 4 322v175h-202v203h494v-203h-200q0 -74 -1 -105q38 17 86.5 29t98.5 12q128 0 187.5 -68.5t59.5 -208.5q0 -86 3 -156h-100z" />
    <glyph glyph-name="uni040C" unicode="&#x40c;" horiz-adv-x="619" 
d="M496 0q0 16 1 30l1 71q0 66 -49 94t-137 28h-173q2 -161 4 -223h-100q4 144 4 350q0 207 -4 350h100q-2 -65 -4 -240h81l210 240h125l-221 -242q135 -11 198 -77t63 -200q0 -101 2 -181h-101zM203 761l-17 58l217 98l45 -123z" />
    <glyph glyph-name="uni040D" unicode="&#x40d;" horiz-adv-x="680" 
d="M537 0q4 298 4 494h-21l-266 -494h-210l2 158q2 160 2 192q0 80 -5 350h101q-5 -226 -5 -347l1 -147h20l268 494h209q-4 -190 -4 -343q0 -74 2 -228q2 -90 2 -129h-100zM260 914l214 -97l-17 -57l-240 33z" />
    <glyph glyph-name="uni040E" unicode="&#x40e;" horiz-adv-x="641" 
d="M164 -4q-67 11 -117 29v206q68 -20 128 -30.5t121 -10.5q99 0 159 43t60 134v56q-13 -51 -49 -84.5t-82.5 -49t-91.5 -15.5q-105 0 -163 34.5t-81.5 105.5t-23.5 189l-2 97h99v-81q0 -49 14.5 -78.5t56 -45t119.5 -15.5q104 0 153 34.5t49 105.5v80h98q-3 -217 -3 -359
q0 -178 -70.5 -267t-240.5 -89q-66 0 -133 11zM211 791q-33 34 -33 105q0 19 1 29h62q2 -31 18.5 -45t57.5 -14q42 0 58 13.5t18 45.5h62q1 -10 1 -28q0 -71 -32.5 -105.5t-106.5 -34.5q-73 0 -106 34z" />
    <glyph glyph-name="uni040F" unicode="&#x40f;" horiz-adv-x="653" 
d="M610 700q-4 -206 -4 -350t4 -350h-236v-134h-97v134h-234q4 228 4 350t-4 350h99q0 -27 -2 -83q-1 -47 -2 -114.5t-1 -152.5q0 -68 1 -103h376q1 35 1 103q0 88 -1 163.5t-2 136.5l-1 50h99z" />
    <glyph glyph-name="uni0410" unicode="&#x410;" horiz-adv-x="652" 
d="M547 0l-37 118h-366l-36 -118h-103q95 288 221 700h199q107 -350 221 -700h-99zM252 474l-46 -153h241l-48 153h-147z" />
    <glyph glyph-name="uni0411" unicode="&#x411;" horiz-adv-x="659" 
d="M43 0q4 214 4 350t-4 350h512v-224h-417v-76h298q103 0 155.5 -51t52.5 -140q0 -102 -62.5 -155.5t-178.5 -53.5h-360zM441 224q37 0 54.5 14t17.5 35q0 22 -19 35t-58 13h-298v-97h303z" />
    <glyph glyph-name="uni0412" unicode="&#x412;" horiz-adv-x="659" 
d="M43 0q4 214 4 350t-4 350h347q108 0 166 -50t58 -141q0 -57 -28.5 -96t-84.5 -55v-1q65 -12 102 -57t37 -103q0 -94 -63 -145.5t-176 -51.5h-358zM420 397q27 0 44 13.5t17 33.5q0 44 -61 44h-282v-91h282zM434 212q31 0 49.5 13.5t18.5 40.5q0 24 -19.5 38t-50.5 14
h-294v-106h296z" />
    <glyph glyph-name="uni0413" unicode="&#x413;" horiz-adv-x="540" 
d="M529 700v-229h-391q0 -263 4 -471h-99q4 147 4 352q0 132 -4 348h486z" />
    <glyph glyph-name="uni0414" unicode="&#x414;" horiz-adv-x="742" 
d="M731 227v-361h-98q2 51 2 134h-531q0 -83 1 -134h-97v361h42q46 0 70.5 12t36.5 49t12 112q0 129 -3 300h460q-3 -223 -3 -473h108zM227 227h304v168v77h-273q1 -46 1 -116q0 -85 -32 -127v-2z" />
    <glyph glyph-name="uni0415" unicode="&#x415;" horiz-adv-x="575" 
d="M43 0q4 216 4 348q0 205 -4 352h499v-230h-404v-70h177.5t176.5 1v-78q-88 1 -176.5 1h-177.5v-94h417v-230h-512z" />
    <glyph glyph-name="uni0416" unicode="&#x416;" horiz-adv-x="962" 
d="M843 0q0 15 1 29l1 72q0 68 -45.5 102.5t-123.5 34.5h-149q2 -172 4 -238h-100q2 71 4 238h-149q-77 0 -123 -34t-46 -103l1 -72q1 -14 1 -29h-97q2 86 2 177q0 133 57 200.5t172 80.5l-196 242h118l187 -239h73q-2 168 -4 239h100q-2 -66 -4 -239h73l186 239h118
l-195 -242q115 -13 172 -80.5t57 -200.5q0 -93 2 -177h-97z" />
    <glyph glyph-name="uni0417" unicode="&#x417;" horiz-adv-x="611" 
d="M458 354q68 -14 99.5 -55.5t31.5 -98.5q0 -106 -83.5 -160t-236.5 -54q-142 0 -238 36v223q114 -39 240 -39q93 0 135.5 15t42.5 47q0 23 -28.5 36.5t-80.5 13.5q-68 0 -161 -13v98q102 -13 158 -13q106 0 106 50q0 26 -40.5 40t-122.5 14q-68 0 -125.5 -9.5
t-113.5 -29.5v220q101 38 233 38q144 0 226.5 -53.5t82.5 -155.5q0 -114 -125 -148v-2z" />
    <glyph glyph-name="uni0418" unicode="&#x418;" horiz-adv-x="680" 
d="M537 0q4 298 4 494h-21l-266 -494h-210l2 158q2 160 2 192q0 80 -5 350h101q-5 -226 -5 -347l1 -147h20l268 494h209q-4 -190 -4 -343q0 -74 2 -228q2 -90 2 -129h-100z" />
    <glyph glyph-name="uni0419" unicode="&#x419;" horiz-adv-x="680" 
d="M537 0q4 298 4 494h-21l-266 -494h-210l2 158q2 160 2 192q0 80 -5 350h101q-5 -226 -5 -347l1 -147h20l268 494h209q-4 -190 -4 -343q0 -74 2 -228q2 -90 2 -129h-100zM241 791q-33 34 -33 105q0 19 1 29h62q2 -31 18.5 -45t57.5 -14q42 0 58 13.5t18 45.5h62
q1 -10 1 -28q0 -71 -32.5 -105.5t-106.5 -34.5q-73 0 -106 34z" />
    <glyph glyph-name="uni041A" unicode="&#x41a;" horiz-adv-x="619" 
d="M496 0q0 16 1 30l1 71q0 66 -49 94t-137 28h-173q2 -161 4 -223h-100q4 144 4 350q0 207 -4 350h100q-2 -65 -4 -240h81l210 240h125l-221 -242q135 -11 198 -77t63 -200q0 -101 2 -181h-101z" />
    <glyph glyph-name="uni041B" unicode="&#x41b;" horiz-adv-x="664" 
d="M8 -10l1 231q14 -2 30 -2q46 0 70 14t34.5 51.5t10.5 110.5q0 136 -3 305h470q-3 -163 -3 -340q0 -197 4 -360h-98q2 192 2 293q0 121 -1 177h-286q4 -105 4 -281q0 -74 -16.5 -118t-54.5 -65t-105 -21q-24 0 -59 5z" />
    <glyph glyph-name="uni041C" unicode="&#x41c;" horiz-adv-x="872" 
d="M43 0l1 73q3 258 3 263q0 118 -3 271l-1 93h250l145 -561h9l131 561h251l-1 -62q-3 -171 -3 -294q0 -140 4 -344h-101q2 124 2 164q2 96 2 123v207h-31l-126 -494h-190l-131 493h-31l1 -196l1 -133q2 -92 2 -164h-184z" />
    <glyph glyph-name="uni041D" unicode="&#x41d;" horiz-adv-x="664" 
d="M621 700q-5 -237 -5 -350q0 -93 5 -328v-22h-99l4 255h-388l4 -255h-99q4 216 4 350q0 136 -4 350h99l-4 -215h387l-3 215h99z" />
    <glyph glyph-name="uni041E" unicode="&#x41e;" horiz-adv-x="716" 
d="M107 76.5q-85 91.5 -85 273.5q0 180 85 271t251 91t251 -91t85 -271q0 -182 -84.5 -273.5t-251.5 -91.5q-166 0 -251 91.5zM499 229.5q51 12.5 74 41t23 79.5q0 50 -23 78t-74 40t-141 12q-89 0 -140.5 -12t-74.5 -40.5t-23 -77.5q0 -51 23 -79.5t74 -41t141 -12.5
t141 12.5z" />
    <glyph glyph-name="uni041F" unicode="&#x41f;" horiz-adv-x="656" 
d="M610 350q0 -144 4 -350h-99l1 54q3 164 3 296q0 79 -1 121h-380q-1 -41 -1 -121q0 -84 1 -151t2 -113q2 -58 2 -86h-99q4 230 4 350q0 122 -4 350h571q-4 -206 -4 -350z" />
    <glyph glyph-name="uni0420" unicode="&#x420;" horiz-adv-x="610" 
d="M43 0q4 232 4 349t-4 351h279q135 0 205 -63t70 -173q0 -127 -68 -185t-211 -58h-179q2 -62 2 -110l2 -111h-100zM344 307q122 0 122 89q0 39 -31 59t-80 20h-218v-168h207z" />
    <glyph glyph-name="uni0421" unicode="&#x421;" horiz-adv-x="614" 
d="M110.5 80q-88.5 92 -88.5 268q0 178 88.5 270.5t251.5 92.5q130 0 214 -38l1 -223q-56 16 -109 23t-128 7q-112 0 -166 -32t-54 -99q0 -65 55 -97t167 -32q74 0 128.5 7.5t112.5 22.5l-1 -222q-47 -20 -100 -30t-121 -10q-162 0 -250.5 92z" />
    <glyph glyph-name="uni0422" unicode="&#x422;" horiz-adv-x="533" 
d="M217 0q4 149 4 322v151h-210v227h511v-227h-209q-1 -55 -1 -151q0 -186 5 -322h-100z" />
    <glyph glyph-name="uni0423" unicode="&#x423;" horiz-adv-x="641" 
d="M164 -4q-67 11 -117 29v206q68 -20 128 -30.5t121 -10.5q99 0 159 43t60 134v56q-13 -51 -49 -84.5t-82.5 -49t-91.5 -15.5q-105 0 -163 34.5t-81.5 105.5t-23.5 189l-2 97h99v-81q0 -49 14.5 -78.5t56 -45t119.5 -15.5q104 0 153 34.5t49 105.5v80h98q-3 -217 -3 -359
q0 -178 -70.5 -267t-240.5 -89q-66 0 -133 11z" />
    <glyph glyph-name="uni0424" unicode="&#x424;" horiz-adv-x="859" 
d="M751 127.5q-86 -74.5 -273 -75.5q0 -47 1 -70h-99q1 24 1 70q-187 1 -273 75.5t-86 224.5q0 151 86 225t273 75q0 44 -1 66h99q-1 -22 -1 -66q187 -2 273 -76t86 -224t-86 -224.5zM140 306q19 -17 75.5 -26t168.5 -9v79v83q-112 0 -169 -8.5t-75.5 -25.5t-18.5 -47
q0 -29 19 -46zM643.5 280q56.5 9 75.5 26t19 46q0 30 -18.5 47t-75.5 25.5t-169 8.5v-83v-79q112 0 168.5 9z" />
    <glyph glyph-name="uni0425" unicode="&#x425;" horiz-adv-x="648" 
d="M207 0h-202l207 385l-180 315h109l119 -208h61l111 208h202l-189 -347l190 -353h-108l-135 249h-54z" />
    <glyph glyph-name="uni0426" unicode="&#x426;" horiz-adv-x="686" 
d="M675 227v-361h-97q1 45 1 134h-536q4 228 4 350q0 120 -4 350h99q0 -28 -2 -86q-1 -46 -2 -113t-1 -151q0 -81 1 -123h349v123q0 152 -3 350h98q-4 -206 -4 -350q0 -83 1 -123h96z" />
    <glyph glyph-name="uni0427" unicode="&#x427;" horiz-adv-x="613" 
d="M570 700q-4 -149 -4 -350q0 -199 4 -350h-98q2 70 4 235q-36 -16 -83 -26.5t-92 -10.5q-144 0 -208 74.5t-64 227.5q0 77 -3 200h99q-4 -104 -4 -139q0 -68 39 -98.5t134 -30.5q110 0 182 23q-2 172 -4 245h98z" />
    <glyph glyph-name="uni0428" unicode="&#x428;" horiz-adv-x="951" 
d="M908 700q-4 -204 -4 -350t4 -350h-865q4 224 4 350q0 124 -4 350h99q-4 -234 -4 -350q0 -80 1 -121h290q1 42 1 121q0 127 -5 350h100l-1 -56q-4 -184 -4 -294q0 -81 1 -121h291q1 41 1 121q0 58 -2 188q-2 102 -2 162h99z" />
    <glyph glyph-name="uni0429" unicode="&#x429;" horiz-adv-x="1021" 
d="M1011 227v-361h-99q1 45 1 134h-870q4 228 4 350q0 120 -4 350h99q0 -28 -2 -86q-1 -46 -2 -113t-1 -151q0 -81 1 -123h291q1 42 1 123q0 132 -3 294l-1 56h99l-1 -52q-4 -182 -4 -298q0 -83 1 -123h291q1 42 1 123q0 62 -2 206l-1 144h98q0 -34 -2 -116q-2 -148 -2 -234
q0 -83 1 -123h106z" />
    <glyph glyph-name="uni042A" unicode="&#x42a;" horiz-adv-x="700" 
d="M443 426q237 0 237 -206q0 -113 -64.5 -166.5t-197.5 -53.5h-301l1 64q4 186 4 286q0 75 -1 114h-110v236h205q-3 -118 -3 -205l-1 -69h231zM465 216q39 0 59.5 16t20.5 48q0 31 -23 49t-66 18h-244v-131h253z" />
    <glyph glyph-name="uni042B" unicode="&#x42b;" horiz-adv-x="810" 
d="M43 0q4 218 4 350t-4 350h98q-2 -138 -2 -182l-1 -92h226q237 0 237 -206q0 -113 -64.5 -166.5t-197.5 -53.5h-296zM668 0q5 180 5 350q0 172 -5 350h99q-4 -141 -4 -350t4 -350h-99zM386 216q39 0 59.5 16t20.5 48t-22.5 49.5t-66.5 17.5h-239v-131h248z" />
    <glyph glyph-name="uni042C" unicode="&#x42c;" horiz-adv-x="639" 
d="M43 0q4 218 4 350t-4 350h98q-2 -138 -2 -182l-1 -92h244q236 0 236 -206q0 -113 -64.5 -166.5t-196.5 -53.5h-314zM403 216q39 0 59.5 16t20.5 48t-22.5 49.5t-66.5 17.5h-256v-131h265z" />
    <glyph glyph-name="uni042D" unicode="&#x42d;" horiz-adv-x="616" 
d="M505 620q89 -92 89 -271q0 -178 -88 -270.5t-252 -92.5q-128 0 -220 38v218q58 -16 111.5 -23t126.5 -7q106 0 157.5 25t62.5 76q-124 -4 -262 -17v101q159 -13 263 -16q-10 52 -61.5 78.5t-157.5 26.5q-71 0 -127 -8t-113 -23v217q88 40 212 40q170 0 259 -92z" />
    <glyph glyph-name="uni042E" unicode="&#x42e;" horiz-adv-x="898" 
d="M793.5 620.5q83.5 -91.5 83.5 -270.5q0 -181 -83 -273t-241 -92q-136 0 -216.5 68.5t-100.5 203.5h-99q1 -110 5 -257h-99q4 144 4 350q0 207 -4 350h99q-2 -68 -4 -218q70 0 106 1q28 114 106 171.5t203 57.5q157 0 240.5 -91.5zM684 229.5q49 12.5 71.5 41t22.5 79.5
q0 49 -22.5 77.5t-71.5 40.5t-133 12t-132.5 -12t-71 -40.5t-22.5 -77.5q0 -51 22.5 -79.5t71 -41t132.5 -12.5t133 12.5z" />
    <glyph glyph-name="uni042F" unicode="&#x42f;" horiz-adv-x="625" 
d="M28 0q1 38 1 93q0 77 28 120t86 61v2q-55 24 -81.5 67t-26.5 122q0 117 70.5 176t206.5 59h270q-4 -143 -4 -349q0 -142 3 -259l1 -92h-101q3 102 3 178q1 19 1 56h-201q-80 0 -118.5 -35t-38.5 -106q0 -62 1 -93h-100zM488 313v168h-199q-57 0 -88.5 -22t-31.5 -65
q0 -39 27.5 -60t81.5 -21h210z" />
    <glyph glyph-name="uni0430" unicode="&#x430;" horiz-adv-x="580" 
d="M541 534q-2 -144 -2 -268q0 -126 2 -266h-90l2 101q-26 -51 -72.5 -81t-112.5 -30q-116 0 -183.5 68.5t-67.5 203.5q0 143 68 212.5t189 69.5q63 0 108 -29t71 -80l-2 99h90zM414.5 206q38.5 18 38.5 61t-38.5 61t-133.5 18q-97 0 -138.5 -19.5t-41.5 -59.5t41.5 -59.5
t138.5 -19.5q95 0 133.5 18z" />
    <glyph glyph-name="uni0431" unicode="&#x431;" horiz-adv-x="568" 
d="M490 388q61 -56 61 -148q0 -250 -261 -250q-136 0 -202 71t-66 214q0 137 19.5 217.5t80 134t184.5 83.5q56 13 95.5 23.5t66.5 20.5l30 -197q-21 -9 -55 -18t-103 -23q-74 -14 -116 -27.5t-68.5 -37.5t-38.5 -64q30 26 80.5 41.5t107.5 15.5q124 0 185 -56zM421.5 209
q40.5 21 40.5 68q0 40 -40.5 67.5t-125.5 27.5q-92 0 -141 -29.5t-49 -75.5q0 -41 41.5 -60t139.5 -19q94 0 134.5 21z" />
    <glyph glyph-name="uni0432" unicode="&#x432;" horiz-adv-x="558" 
d="M39 0q3 141 3 266q0 127 -3 268h291q93 0 141.5 -34.5t48.5 -110.5q0 -44 -24 -75t-66 -39q47 -7 76.5 -41t29.5 -87q0 -70 -49.5 -108.5t-154.5 -38.5h-293zM345 302q30 0 43.5 8.5t13.5 25.5q0 16 -13.5 24.5t-43.5 8.5h-217v-67h217zM358 167q59 0 59 35q0 16 -15 26
t-45 10h-229v-71h230z" />
    <glyph glyph-name="uni0433" unicode="&#x433;" horiz-adv-x="454" 
d="M39 0q2 192 2 272q0 70 -2 240v22h384v-204h-299q-1 -59 -1 -153q0 -118 1 -177h-85z" />
    <glyph glyph-name="uni0434" unicode="&#x434;" horiz-adv-x="628" 
d="M618 193v-313h-84v120h-431v-120h-85v313h37q49 0 72 30.5t23 105.5q0 81 -7 205h392q-3 -132 -3 -284v-57h86zM447 193q0 103 -3 148h-210v-27q0 -44 -6.5 -72t-23.5 -49h243z" />
    <glyph glyph-name="uni0435" unicode="&#x435;" horiz-adv-x="532" 
d="M515 230h-414q12 -36 54.5 -51t131.5 -15q64 0 113 7t103 21l-14 -170q-43 -15 -95.5 -23.5t-103.5 -8.5q-138 0 -205.5 68t-67.5 206q0 280 265 280q122 0 177.5 -70.5t55.5 -189.5v-54zM430 300q0 35 -37.5 55.5t-116.5 20.5q-84 0 -125.5 -18.5t-51.5 -57.5h331z" />
    <glyph glyph-name="uni0436" unicode="&#x436;" horiz-adv-x="802" 
d="M603 358q92 0 131.5 -56t39.5 -159v-143h-87q1 25 1 65q0 39 -16.5 59t-47 26.5t-80.5 6.5h-100q0 -67 2 -157h-90l3 157h-101q-50 0 -80 -6.5t-47 -26.5t-17 -59q0 -40 1 -65h-87v143q0 103 39 159t132 56l-132 176h113l120 -174h59l-3 174h90q-2 -98 -2 -174h58
l120 174h113z" />
    <glyph glyph-name="uni0437" unicode="&#x437;" horiz-adv-x="487" 
d="M121.5 -4.5q-46.5 6.5 -90.5 20.5l-10 172q91 -20 199 -20q75 0 99.5 8.5t24.5 24.5q0 32 -88 32q-48 0 -115 -9v88q57 -10 115 -10q84 0 84 30q0 15 -26 24t-97 9q-55 0 -96.5 -4.5t-90.5 -15.5l9 171q46 14 88 21t96 7q122 0 181.5 -40t59.5 -110q0 -103 -123 -125
q63 -10 96 -43t33 -83q0 -71 -59.5 -112.5t-178.5 -41.5q-64 0 -110.5 6.5z" />
    <glyph glyph-name="uni0438" unicode="&#x438;" horiz-adv-x="565" 
d="M39 0q2 126 2 147q2 96 2 114q0 49 -4 273h91q-4 -127 -4 -205v-134h22l182 339h197l-4 -256q0 -93 2 -239q1 -14 1 -39h-89q3 134 3 187v152h-23l-181 -339h-197z" />
    <glyph glyph-name="uni0439" unicode="&#x439;" horiz-adv-x="565" 
d="M39 0q2 126 2 147q2 96 2 114q0 49 -4 273h91q-4 -127 -4 -205v-134h22l182 339h197l-4 -256q0 -93 2 -239q1 -14 1 -39h-89q3 134 3 187v152h-23l-181 -339h-197zM176 625q-33 34 -33 105q0 19 1 29h62q2 -31 18.5 -45t57.5 -14q42 0 58 13.5t18 45.5h62q1 -10 1 -28
q0 -71 -32.5 -105.5t-106.5 -34.5q-73 0 -106 34z" />
    <glyph glyph-name="uni043A" unicode="&#x43a;" horiz-adv-x="522" 
d="M407 0q1 25 1 65q0 54 -35 73t-109 19h-137q0 -67 2 -157h-90q2 74 2 267q0 194 -2 267h90q-2 -98 -2 -174h75l141 174h117l-152 -176q105 1 145 -58t40 -163l1 -137h-87z" />
    <glyph glyph-name="uni043B" unicode="&#x43b;" horiz-adv-x="570" 
d="M530 457q-2 -126 -2 -191q0 -64 2 -188l1 -78h-90q2 69 2 216q0 76 -1 109h-229q1 -24 1 -71q0 -98 -13.5 -154.5t-46 -83t-90.5 -26.5q-22 0 -46 4v183q18 -2 30 -2q30 0 49 9t29.5 35.5t10.5 77.5q0 99 -8 237h402z" />
    <glyph glyph-name="uni043C" unicode="&#x43c;" horiz-adv-x="744" 
d="M40 0q3 113 3 244q0 77 -2 157q0 19 -2 133h208l124 -385h8l105 385h221l-1 -88l-2 -183q0 -127 2 -263h-90q3 107 3 204v144h-22l-102 -348h-157l-116 348h-21l1 -136q0 -102 2 -212h-162z" />
    <glyph glyph-name="uni043D" unicode="&#x43d;" horiz-adv-x="542" 
d="M503 534q-3 -153 -3 -267q0 -111 3 -267h-91l3 168h-289l2 -168h-89q2 74 2 267q0 194 -2 267h89l-2 -157h289l-3 157h91z" />
    <glyph glyph-name="uni043E" unicode="&#x43e;" horiz-adv-x="558" 
d="M80.5 59.5q-63.5 69.5 -63.5 207.5q0 139 63.5 208.5t198.5 69.5q134 0 197.5 -69.5t63.5 -208.5q0 -138 -63.5 -207.5t-197.5 -69.5q-135 0 -198.5 69.5zM415.5 207q40.5 19 40.5 60t-41 60.5t-135 19.5q-96 0 -137.5 -19.5t-41.5 -60.5t41.5 -60t137.5 -19
q95 0 135.5 19z" />
    <glyph glyph-name="uni043F" unicode="&#x43f;" horiz-adv-x="530" 
d="M489 267q0 -117 3 -267h-90q2 146 2 267v59h-278v-59q0 -78 2 -208l1 -59h-90q2 74 2 267q0 194 -2 267h453q-3 -147 -3 -267z" />
    <glyph glyph-name="uni0440" unicode="&#x440;" horiz-adv-x="579" 
d="M494 474.5q68 -69.5 68 -208.5t-68 -207.5t-188 -68.5q-64 0 -108.5 29.5t-71.5 80.5q2 -178 2 -292h-89q2 146 2 377q0 272 -2 349h89q0 -57 -1 -98q27 50 71.5 79t107.5 29q120 0 188 -69.5zM437 207.5q41 19.5 41 59.5q0 41 -41.5 60.5t-137.5 19.5
q-93 0 -132.5 -19.5t-39.5 -60.5q0 -40 39.5 -59.5t132.5 -19.5q97 0 138 19.5z" />
    <glyph glyph-name="uni0441" unicode="&#x441;" horiz-adv-x="485" 
d="M82 58.5q-65 68.5 -65 208.5q0 141 65 209t203 68q83 0 169 -30l10 -188q-97 20 -194 20q-92 0 -130.5 -17.5t-38.5 -61.5t38.5 -62t129.5 -18q117 0 195 22l-10 -191q-89 -28 -169 -28q-138 0 -203 68.5z" />
    <glyph glyph-name="uni0442" unicode="&#x442;" horiz-adv-x="506" 
d="M490 326h-194v-59q0 -137 2 -267h-90q3 108 3 267v59h-195v208h474v-208z" />
    <glyph glyph-name="uni0443" unicode="&#x443;" horiz-adv-x="546" 
d="M508 534q-3 -117 -3 -266l1 -211q0 -136 -58.5 -199.5t-192.5 -63.5q-98 0 -191 24l-10 168q92 -34 183 -34q88 0 136 40.5t48 130.5v24q-27 -58 -76 -88.5t-112 -30.5q-109 0 -155 58t-42 177q2 118 2 219v52h88q-2 -78 -2 -121l1 -80q1 -55 37 -78t102 -23
q83 0 119.5 33.5t36.5 106.5l1 56q0 40 -3 106h90z" />
    <glyph glyph-name="uni0444" unicode="&#x444;" horiz-adv-x="646" 
d="M564 60.5q-64 -69.5 -198 -73.5l1 -179h-90q2 106 2 179q-134 4 -198 73.5t-64 205.5t64 205.5t198 73.5l-2 155h90l-1 -155q134 -4 198 -73.5t64 -205.5t-64 -205.5zM117.5 216q16.5 -18 55 -26.5t107.5 -9.5v87v84q-69 -1 -107.5 -9.5t-55 -26.5t-16.5 -49
q0 -32 16.5 -50zM499.5 200.5q44.5 18.5 44.5 65.5q0 46 -44.5 64.5t-134.5 20.5v-84v-87q90 2 134.5 20.5z" />
    <glyph glyph-name="uni0445" unicode="&#x445;" horiz-adv-x="535" 
d="M204 0h-197l133 283l-124 251h102l78 -166h51l71 166h198l-123 -256l135 -278h-102l-88 187h-52z" />
    <glyph glyph-name="uni0446" unicode="&#x446;" horiz-adv-x="568" 
d="M558 53l-17 -173l-67 53l-188 67l-158 80l1 -80h-90q2 73 2 267q0 193 -2 267h90l-1 -59q-2 -130 -2 -208l1 -158l177 91l83 -48v115q0 158 -3 267h90l-1 -97q-2 -108 -2 -170q0 -59 2 -165z" />
    <glyph glyph-name="uni0447" unicode="&#x447;" horiz-adv-x="533" 
d="M404 0q3 89 3 172q-63 -40 -162 -40q-101 0 -149.5 62t-48.5 171q0 82 -3 169h91q-3 -57 -3 -110q0 -52 32 -75.5t99 -23.5q96 0 144 37q0 66 -3 172h90q-3 -135 -3 -269q0 -128 3 -265h-90z" />
    <glyph glyph-name="uni0448" unicode="&#x448;" horiz-adv-x="772" 
d="M733 534l-1 -59q-2 -130 -2 -208q0 -79 2 -211l1 -56h-694q2 73 2 267q0 193 -2 267h90l-1 -59q-2 -130 -2 -208v-58h218v58q0 153 -3 267h90l-1 -59q-2 -130 -2 -208v-58h217v58q0 192 -2 267h90z" />
    <glyph glyph-name="uni0449" unicode="&#x449;" horiz-adv-x="821" 
d="M811 209v-329h-85v120h-687q2 73 2 267q0 193 -2 267h90l-1 -59q-2 -130 -2 -208v-58h218v58q0 153 -3 267h90q-2 -150 -2 -267v-58h217v58q0 192 -2 267h90l-1 -59q-2 -130 -2 -208v-58h80z" />
    <glyph glyph-name="uni044A" unicode="&#x44a;" horiz-adv-x="592" 
d="M327 360q227 0 227 -180q0 -87 -61 -133.5t-183 -46.5h-203q3 150 3 267v55h-94v212h181q0 -16 -1 -25q-2 -96 -2 -149h133zM333 192q51 0 75.5 11t24.5 37q0 51 -101 51h-138v-99h139z" />
    <glyph glyph-name="uni044B" unicode="&#x44b;" horiz-adv-x="677" 
d="M39 0v27q2 172 2 240q0 72 -2 244v23h90q-3 -73 -3 -174h138q226 0 226 -180q0 -87 -61 -133.5t-183 -46.5h-207zM548 0q2 74 2 267q0 194 -2 267h90l-1 -56q-2 -132 -2 -211q0 -78 2 -208l1 -59h-90zM288 192q81 0 81 47q0 52 -95 52h-148v-99h162z" />
    <glyph glyph-name="uni044C" unicode="&#x44c;" horiz-adv-x="541" 
d="M39 0v27q2 172 2 240q0 72 -2 244v23h90q-3 -73 -3 -174h150q227 0 227 -180q0 -86 -61.5 -133t-183.5 -47h-219zM300 192q81 0 81 47q0 52 -95 52h-160v-99h174z" />
    <glyph glyph-name="uni044D" unicode="&#x44d;" horiz-adv-x="485" 
d="M402.5 476q64.5 -68 64.5 -209q0 -140 -64 -208.5t-198 -68.5q-42 0 -88 7.5t-87 20.5l-9 173q83 -22 195 -22q78 0 117 16t47 55q-129 -4 -215 -16v90q100 -13 215 -16q-10 38 -49 52.5t-116 14.5q-46 0 -97.5 -5.5t-95.5 -16.5l8 172q85 29 170 29q138 0 202.5 -68z
" />
    <glyph glyph-name="uni044E" unicode="&#x44e;" horiz-adv-x="715" 
d="M636 475.5q61 -69.5 61 -208.5q0 -138 -61 -207.5t-188 -69.5q-102 0 -161 45t-78 134h-82q0 -73 2 -169h-90q2 74 2 267q0 194 -2 267h90q-2 -92 -2 -165h83q19 88 77.5 132t160.5 44q127 0 188 -69.5zM574 207.5q39 19.5 39 59.5t-39.5 60t-125.5 20q-89 0 -128 -19.5
t-39 -60.5q0 -40 39 -59.5t128 -19.5q87 0 126 19.5z" />
    <glyph glyph-name="uni044F" unicode="&#x44f;" horiz-adv-x="533" 
d="M31 0q1 31 1 72q0 48 20.5 77.5t64.5 45.5q-91 37 -91 153q0 95 66 140.5t176 45.5h226q-3 -114 -3 -267q0 -147 2 -267l-90 -1q3 53 3 160h-153q-66 0 -96.5 -26t-30.5 -79q0 -32 1 -54h-96zM407 227v99h-162q-42 0 -62 -12t-20 -37q0 -50 82 -50h162z" />
    <glyph glyph-name="uni0450" unicode="&#x450;" horiz-adv-x="532" 
d="M515 230h-414q12 -36 54.5 -51t131.5 -15q64 0 113 7t103 21l-14 -170q-43 -15 -95.5 -23.5t-103.5 -8.5q-138 0 -205.5 68t-67.5 206q0 280 265 280q122 0 177.5 -70.5t55.5 -189.5v-54zM430 300q0 35 -37.5 55.5t-116.5 20.5q-84 0 -125.5 -18.5t-51.5 -57.5h331z
M179 751l214 -97l-17 -57l-240 33z" />
    <glyph glyph-name="uni0451" unicode="&#x451;" horiz-adv-x="532" 
d="M515 230h-414q12 -36 54.5 -51t131.5 -15q64 0 113 7t103 21l-14 -170q-43 -15 -95.5 -23.5t-103.5 -8.5q-138 0 -205.5 68t-67.5 206q0 280 265 280q122 0 177.5 -70.5t55.5 -189.5v-54zM430 300q0 35 -37.5 55.5t-116.5 20.5q-84 0 -125.5 -18.5t-51.5 -57.5h331z
M123.5 612.5q-17.5 16.5 -17.5 47.5q0 29 18 46t49 17q32 0 50 -17t18 -46q0 -31 -18 -47.5t-50 -16.5t-49.5 16.5zM311 612.5q-17 16.5 -17 47.5q0 29 17.5 46t48.5 17q32 0 50 -17t18 -46q0 -30 -18 -47t-50 -17t-49 16.5z" />
    <glyph glyph-name="uni0452" unicode="&#x452;" horiz-adv-x="594" 
d="M434 -202q-33 0 -53 6l-3 185q19 -2 36 -2q28 0 42.5 22t14.5 74v38q0 63 -34.5 89.5t-111.5 26.5q-81 0 -116.5 -32t-36.5 -107l2 -98h-89q3 79 3 240q0 140 -1 261q-48 0 -71 -1v155q23 -1 70 -1v46h91l-1 -47q139 0 197 2v-155q-59 2 -198 2q-1 -62 -1 -160
q27 52 72.5 79t117.5 27q77 0 119 -28t58.5 -83t16.5 -146l1 -241q0 -152 -125 -152z" />
    <glyph glyph-name="uni0453" unicode="&#x453;" horiz-adv-x="454" 
d="M39 0q2 192 2 272q0 70 -2 240v22h384v-204h-299q-1 -59 -1 -153q0 -118 1 -177h-85zM116 597l-17 56l214 97l43 -121z" />
    <glyph glyph-name="uni0454" unicode="&#x454;" horiz-adv-x="484" 
d="M151.5 185q39.5 -16 117.5 -16q112 0 194 22l-9 -173q-41 -13 -86.5 -20.5t-87.5 -7.5q-134 0 -198.5 68.5t-64.5 208.5q0 141 65 209t203 68q85 0 169 -29l9 -172q-44 11 -95.5 16.5t-97.5 5.5q-77 0 -116.5 -14.5t-49.5 -52.5q116 3 216 16v-90q-86 12 -216 16
q8 -39 47.5 -55z" />
    <glyph glyph-name="uni0455" unicode="&#x455;" horiz-adv-x="492" 
d="M133 -8q-50 7 -98 22l-10 185q52 -14 107 -23t99 -9q47 0 65 8t18 26q0 16 -15 23.5t-56 11.5q-123 10 -172 47t-49 108q0 32 18 66.5t70 60.5t145 26q100 0 184 -26l4 -180q-105 25 -185 25q-37 0 -57 -6.5t-20 -22.5q0 -14 15 -21t60 -11q82 -7 129 -24.5t66.5 -47
t19.5 -73.5q0 -172 -251 -172q-37 0 -87 7z" />
    <glyph glyph-name="uni0456" unicode="&#x456;" horiz-adv-x="168" 
d="M37.5 612q-16.5 17 -16.5 50q0 32 16.5 49t46.5 17t46.5 -17t16.5 -49q0 -33 -16.5 -50t-46.5 -17t-46.5 17zM39 0q2 74 2 267q0 194 -2 267h90l-1 -56q-2 -132 -2 -211q0 -78 2 -208l1 -59h-90z" />
    <glyph glyph-name="uni0457" unicode="&#x457;" horiz-adv-x="168" 
d="M39 0q2 74 2 267q0 194 -2 267h90l-1 -56q-2 -132 -2 -211q0 -78 2 -208l1 -59h-90zM-58.5 612.5q-17.5 16.5 -17.5 47.5q0 29 18 46t49 17q32 0 50 -17t18 -46q0 -31 -18 -47.5t-50 -16.5t-49.5 16.5zM129 612.5q-17 16.5 -17 47.5q0 29 17.5 46t48.5 17q32 0 50 -17
t18 -46q0 -30 -18 -47t-50 -17t-49 16.5z" />
    <glyph glyph-name="uni0458" unicode="&#x458;" horiz-adv-x="167" 
d="M-44 -196l-4 171l38 -1q26 0 38 17t12 56l1 211q0 94 -2 276h89q-3 -118 -3 -276q0 -88 1 -136l1 -167q0 -74 -28 -115.5t-95 -41.5q-29 0 -48 6zM34 613.5q-17 17.5 -17 50.5t17 50t47 17q31 0 47 -17.5t16 -49.5q0 -68 -63 -68q-30 0 -47 17.5z" />
    <glyph glyph-name="uni0459" unicode="&#x459;" horiz-adv-x="909" 
d="M644 360q227 0 227 -180q0 -87 -61 -133.5t-183 -46.5h-204q2 194 2 325h-212q1 -24 1 -71q0 -98 -13.5 -154.5t-46 -83t-90.5 -26.5q-22 0 -46 4v183q18 -2 30 -2q30 0 49 9t29.5 35.5t10.5 77.5q0 99 -8 237h384q-3 -78 -3 -174h134zM668 192q82 0 82 47q0 52 -95 52
h-145v-99h158z" />
    <glyph glyph-name="uni045A" unicode="&#x45a;" horiz-adv-x="886" 
d="M625 351q223 0 223 -174q0 -85 -59.5 -131t-180.5 -46h-213q3 114 3 215h-272q0 -95 2 -215h-89q2 74 2 267q0 194 -2 267h89l-2 -166h272l-3 166h90q-2 -98 -2 -183h142zM649 192q78 0 78 44q0 46 -92 46h-152v-90h166z" />
    <glyph glyph-name="uni045B" unicode="&#x45b;" horiz-adv-x="594" 
d="M482 420q42 -28 59.5 -83.5t17.5 -143.5l-1 -101q-2 -71 -1 -92h-88q2 54 2 118q0 65 -33.5 92t-111.5 27q-83 0 -118 -31t-35 -104q0 -55 2 -102h-89q3 79 3 236l-1 265q-49 0 -72 -1v155q23 -1 71 -1v46h91q0 -32 -1 -47q138 0 196 2v-155q-58 2 -197 2l-2 -171
q27 57 73 87t118 30q75 0 117 -28z" />
    <glyph glyph-name="uni045C" unicode="&#x45c;" horiz-adv-x="522" 
d="M407 0q1 25 1 65q0 54 -35 73t-109 19h-137q0 -67 2 -157h-90q2 74 2 267q0 194 -2 267h90q-2 -98 -2 -174h75l141 174h117l-152 -176q105 1 145 -58t40 -163l1 -137h-87zM125 597l-17 56l214 97l43 -121z" />
    <glyph glyph-name="uni045D" unicode="&#x45d;" horiz-adv-x="565" 
d="M39 0q2 126 2 147q2 96 2 114q0 49 -4 273h91q-4 -127 -4 -205v-134h22l182 339h197l-4 -256q0 -93 2 -239q1 -14 1 -39h-89q3 134 3 187v152h-23l-181 -339h-197zM196 751l214 -97l-17 -57l-240 33z" />
    <glyph glyph-name="uni045E" unicode="&#x45e;" horiz-adv-x="546" 
d="M508 534q-3 -117 -3 -266l1 -211q0 -136 -58.5 -199.5t-192.5 -63.5q-98 0 -191 24l-10 168q92 -34 183 -34q88 0 136 40.5t48 130.5v24q-27 -58 -76 -88.5t-112 -30.5q-109 0 -155 58t-42 177q2 118 2 219v52h88q-2 -78 -2 -121l1 -80q1 -55 37 -78t102 -23
q83 0 119.5 33.5t36.5 106.5l1 56q0 40 -3 106h90zM168 625q-33 34 -33 105q0 19 1 29h62q2 -31 18.5 -45t57.5 -14q42 0 58 13.5t18 45.5h62q1 -10 1 -28q0 -71 -32.5 -105.5t-106.5 -34.5q-73 0 -106 34z" />
    <glyph glyph-name="uni045F" unicode="&#x45f;" horiz-adv-x="530" 
d="M492 534q-3 -150 -3 -267q0 -132 3 -267h-183v-119h-85v119h-185q2 73 2 267q0 193 -2 267h90l-1 -59q-2 -130 -2 -208v-58h278v58q0 158 -3 267h91z" />
    <glyph glyph-name="uni0490" unicode="&#x490;" horiz-adv-x="540" 
d="M43 0q4 147 4 352q0 132 -4 348h390v125h96v-354h-391q0 -263 4 -471h-99z" />
    <glyph glyph-name="uni0491" unicode="&#x491;" horiz-adv-x="454" 
d="M39 0q2 192 2 272q0 70 -2 240v22h299v100h85v-309h-299q-1 -54 -1 -148q0 -118 1 -177h-85z" />
    <glyph glyph-name="Wgrave" unicode="&#x1e80;" horiz-adv-x="956" 
d="M135 0q-7 43 -75 425q-13 72 -49 275h101q31 -203 82 -486h47q62 324 90 486h188q43 -216 101 -486h50q54 324 79 486h196l-30 -156q-84 -436 -104 -544h-240q-24 129 -43 225.5t-32 161.5l-26 129h-3q-68 -344 -100 -516h-232zM377 914l214 -97l-17 -57l-240 33z" />
    <glyph glyph-name="wgrave" unicode="&#x1e81;" horiz-adv-x="784" 
d="M306 0h-178l-121 534h95l66 -323h35l68 323h166l76 -323h36l64 323h164l-124 -534h-176l-87 389h-5zM297 751l214 -97l-17 -57l-240 33z" />
    <glyph glyph-name="Wacute" unicode="&#x1e82;" horiz-adv-x="956" 
d="M135 0q-7 43 -75 425q-13 72 -49 275h101q31 -203 82 -486h47q62 324 90 486h188q43 -216 101 -486h50q54 324 79 486h196l-30 -156q-84 -436 -104 -544h-240q-24 129 -43 225.5t-32 161.5l-26 129h-3q-68 -344 -100 -516h-232zM353 761l-17 58l217 98l45 -123z" />
    <glyph glyph-name="wacute" unicode="&#x1e83;" horiz-adv-x="784" 
d="M306 0h-178l-121 534h95l66 -323h35l68 323h166l76 -323h36l64 323h164l-124 -534h-176l-87 389h-5zM274 597l-17 56l214 97l43 -121z" />
    <glyph glyph-name="Wdieresis" unicode="&#x1e84;" horiz-adv-x="956" 
d="M135 0q-7 43 -75 425q-13 72 -49 275h101q31 -203 82 -486h47q62 324 90 486h188q43 -216 101 -486h50q54 324 79 486h196l-30 -156q-84 -436 -104 -544h-240q-24 129 -43 225.5t-32 161.5l-26 129h-3q-68 -344 -100 -516h-232zM322.5 771.5q-17.5 16.5 -17.5 47.5
q0 29 18 46t49 17q32 0 50 -17t18 -46q0 -31 -18 -47.5t-50 -16.5t-49.5 16.5zM510 771.5q-17 16.5 -17 47.5q0 29 17.5 46t48.5 17q32 0 50 -17t18 -46q0 -30 -18 -47t-50 -17t-49 16.5z" />
    <glyph glyph-name="wdieresis" unicode="&#x1e85;" horiz-adv-x="784" 
d="M306 0h-178l-121 534h95l66 -323h35l68 323h166l76 -323h36l64 323h164l-124 -534h-176l-87 389h-5zM241.5 612.5q-17.5 16.5 -17.5 47.5q0 29 18 46t49 17q32 0 50 -17t18 -46q0 -31 -18 -47.5t-50 -16.5t-49.5 16.5zM429 612.5q-17 16.5 -17 47.5q0 29 17.5 46t48.5 17
q32 0 50 -17t18 -46q0 -30 -18 -47t-50 -17t-49 16.5z" />
    <glyph glyph-name="uni1E9E" unicode="&#x1e9e;" horiz-adv-x="633" 
d="M170 21v214q65 -15 111.5 -20.5t98.5 -5.5q40 0 75 10.5t35 35.5q0 26 -59.5 38.5t-140.5 12.5l-37 -1v78q112 39 153 89q-25 10 -47.5 13.5t-48.5 3.5q-107 0 -145.5 -39.5t-38.5 -112.5q0 -170 4 -337h-100q4 91 4 263v130q0 104 23.5 172.5t85 106.5t171.5 38
q120 0 230 -55v-137q-23 -39 -61.5 -72.5t-76 -55.5t-58.5 -28v-3q61 -1 113.5 -9t101 -45.5t48.5 -116.5q0 -57 -29.5 -102.5t-84 -71.5t-127.5 -26q-97 0 -200 33z" />
    <glyph glyph-name="Ygrave" unicode="&#x1ef2;" horiz-adv-x="641" 
d="M164 -4q-67 11 -117 29v206q68 -20 128 -30.5t121 -10.5q99 0 159 43t60 134v56q-13 -51 -49 -84.5t-82.5 -49t-91.5 -15.5q-105 0 -163 34.5t-81.5 105.5t-23.5 189l-2 97h99v-81q0 -49 14.5 -78.5t56 -45t119.5 -15.5q104 0 153 34.5t49 105.5v80h98q-3 -217 -3 -359
q0 -178 -70.5 -267t-240.5 -89q-66 0 -133 11zM230 914l214 -97l-17 -57l-240 33z" />
    <glyph glyph-name="ygrave" unicode="&#x1ef3;" horiz-adv-x="546" 
d="M508 534q-3 -117 -3 -266l1 -211q0 -136 -58.5 -199.5t-192.5 -63.5q-98 0 -191 24l-10 168q92 -34 183 -34q88 0 136 40.5t48 130.5v24q-27 -58 -76 -88.5t-112 -30.5q-109 0 -155 58t-42 177q2 118 2 219v52h88q-2 -78 -2 -121l1 -80q1 -55 37 -78t102 -23
q83 0 119.5 33.5t36.5 106.5l1 56q0 40 -3 106h90zM196 751l214 -97l-17 -57l-240 33z" />
    <glyph glyph-name="endash" unicode="&#x2013;" horiz-adv-x="712" 
d="M648 197q-80 1 -160 1.5t-160 0.5q-88 0 -264 -2v126q196 -2 292 -2q98 0 292 2v-126z" />
    <glyph glyph-name="emdash" unicode="&#x2014;" horiz-adv-x="949" 
d="M864 197q-107 1 -213.5 1.5t-213.5 0.5q-88 0 -175.5 -0.5t-175.5 -1.5v126q97 -1 194.5 -1.5t194.5 -0.5t194.5 0.5t194.5 1.5v-126z" />
    <glyph glyph-name="quoteleft" unicode="&#x2018;" horiz-adv-x="238" 
d="M129 594q41 0 64 -24t23 -67q0 -41 -26.5 -65t-70.5 -24q-49 0 -73 24.5t-24 68.5q0 29 15.5 57.5t39.5 60.5l54 75l61 1z" />
    <glyph glyph-name="quoteright" unicode="&#x2019;" horiz-adv-x="238" 
d="M109 526q-41 0 -64 24t-23 67q0 41 26.5 65t70.5 24q48 0 72.5 -24.5t24.5 -69.5q0 -28 -15 -56t-40 -62l-54 -75h-61z" />
    <glyph glyph-name="quotesinglbase" unicode="&#x201a;" horiz-adv-x="238" 
d="M109 -14q-41 0 -64 24t-23 67q0 41 26.5 65t70.5 24q48 0 72.5 -24.5t24.5 -69.5q0 -29 -15 -56.5t-40 -61.5l-54 -75h-61z" />
    <glyph glyph-name="quotedblleft" unicode="&#x201c;" horiz-adv-x="466" 
d="M129 594q41 0 64 -24t23 -67q0 -41 -26.5 -65t-70.5 -24q-49 0 -73 24.5t-24 69.5q0 28 15 56t40 62l54 75h61zM357 594q41 0 64 -24t23 -67q0 -41 -26.5 -65t-70.5 -24q-49 0 -73 24.5t-24 69.5q0 29 15.5 58t39.5 60l54 75h61z" />
    <glyph glyph-name="quotedblright" unicode="&#x201d;" horiz-adv-x="466" 
d="M109 529q-41 0 -64 24t-23 67q0 41 26.5 65t70.5 24q48 0 72.5 -24.5t24.5 -69.5q0 -28 -15 -56t-40 -62l-54 -75h-61zM337 529q-41 0 -64 24t-23 67q0 41 26 65t71 24q48 0 72.5 -24.5t24.5 -69.5q0 -28 -15 -56t-40 -62l-54 -75h-62z" />
    <glyph glyph-name="quotedblbase" unicode="&#x201e;" horiz-adv-x="466" 
d="M109 -14q-41 0 -64 24t-23 67q0 41 26.5 65t70.5 24q48 0 72.5 -24.5t24.5 -69.5q0 -29 -15 -56.5t-40 -61.5l-54 -75h-61zM337 -14q-41 0 -64 24t-23 67q0 41 26.5 65t70.5 24q48 0 72.5 -24.5t24.5 -69.5q0 -29 -15 -56.5t-40 -61.5l-54 -75h-61z" />
    <glyph glyph-name="dagger" unicode="&#x2020;" horiz-adv-x="483" 
d="M286 390v-441h-94v441h-149v143h149v168h94v-168h154v-143h-154z" />
    <glyph glyph-name="daggerdbl" unicode="&#x2021;" horiz-adv-x="422" 
d="M258 -106h-93v326h-122v143h122v76h-122v143h122v119h93v-119h121v-143h-121v-76h121v-143h-121v-326z" />
    <glyph glyph-name="bullet" unicode="&#x2022;" horiz-adv-x="322" 
d="M61 242q-39 37 -39 97q0 61 39 99t100 38t100.5 -38t39.5 -99q0 -59 -39.5 -96.5t-100.5 -37.5t-100 37z" />
    <glyph glyph-name="ellipsis" unicode="&#x2026;" horiz-adv-x="712" 
d="M48.5 13q-26.5 24 -26.5 66q0 41 26 64.5t71 23.5t71 -23.5t26 -64.5q0 -42 -26.5 -66t-70.5 -24t-70.5 24zM285.5 13q-26.5 24 -26.5 66q0 41 26 64.5t71 23.5t71 -23.5t26 -64.5q0 -42 -26.5 -66t-70.5 -24t-70.5 24zM523.5 13q-26.5 24 -26.5 66q0 41 26 64.5t71 23.5
t71 -23.5t26 -64.5q0 -42 -26.5 -66t-70.5 -24t-70.5 24z" />
    <glyph glyph-name="perthousand" unicode="&#x2030;" horiz-adv-x="1374" 
 />
    <glyph glyph-name="guilsinglleft" unicode="&#x2039;" horiz-adv-x="287" 
d="M166 506h99l-104 -217v-40l104 -218h-99l-144 230v16z" />
    <glyph glyph-name="guilsinglright" unicode="&#x203a;" horiz-adv-x="287" 
d="M126 289l-104 217h99l144 -229v-16l-144 -230h-99l104 218v40z" />
    <glyph glyph-name="uni203D" unicode="&#x203d;" horiz-adv-x="496" 
d="M412 664q66 -47 66 -145q0 -83 -42.5 -127t-142.5 -69q-45 -12 -59.5 -32.5t-11.5 -55.5h-82l-31 209h135l-9 -62l10 3q49 15 73 30.5t24 36.5q0 20 -22.5 29t-67.5 9q-118 0 -234 -40v232q50 14 98.5 21.5t110.5 7.5q119 0 185 -47zM258 140.5q26 -23.5 26 -63.5
q0 -41 -26 -65t-71 -24q-46 0 -73 24t-27 65q0 40 27 63.5t73 23.5q45 0 71 -23.5z" />
    <glyph glyph-name="lira" unicode="&#x20a4;" horiz-adv-x="549" 
d="M518 217v-217h-499l-1 175q43 14 72 39.5t29 54.5q0 14 -3 26h-119v42h104q-9 21 -21 42h-83v44h64q-17 43 -17 88q0 87 62 143.5t194 56.5q58 0 103 -8.5t91 -26.5l1 -223q-104 47 -189 47q-66 0 -97.5 -17t-31.5 -53v-7h207v-44h-197q3 -7 7 -17.5t8 -24.5h182v-42
h-173v-6q0 -43 -21 -72h328z" />
    <glyph glyph-name="Euro" unicode="&#x20ac;" horiz-adv-x="614" 
d="M469 213.5q54 7.5 114 23.5l-1 -209q-47 -20 -100 -30t-121 -10q-146 0 -233 75.5t-103 221.5h-90v42h87v21v21h-87v44h90q16 147 103 222.5t234 75.5q130 0 214 -38l1 -209q-56 16 -109 23t-128 7q-86 0 -137 -19.5t-71 -61.5h289v-44h-300q-1 -6 -1 -20q0 -15 1 -22
h300v-42h-288q20 -41 71.5 -60t137.5 -19q73 0 127 7.5z" />
    <glyph glyph-name="uni20B9" unicode="&#x20b9;" horiz-adv-x="645" 
d="M634 700v-103h-131q32 -21 50 -53h81v-101h-66q-14 -76 -98.5 -110.5t-219.5 -34.5h-100q0 -28 47.5 -48t130.5 -20q109 0 214 24v-237q-109 -24 -227 -24q-95 0 -154.5 23.5t-88.5 78.5t-29 150v129h190q61 0 108.5 15.5t61.5 53.5h-360v101h351q-14 28 -45 40.5
t-83 12.5h-223v103h591z" />
    <glyph glyph-name="uni2116" unicode="&#x2116;" horiz-adv-x="1022" 
d="M43 0q0 39 2 129q2 154 2 228q0 153 -4 343h209l268 -494h20l1 147q0 121 -5 347h101q-5 -270 -5 -350q0 -32 2 -192l2 -158h-210l-266 494h-21q0 -196 4 -494h-100zM961.5 322q-43.5 -41 -111.5 -41q-67 0 -109.5 41.5t-42.5 108.5q0 65 43 106t109 41q69 0 112 -41.5
t43 -108.5q0 -65 -43.5 -106zM900.5 378.5q18.5 19.5 18.5 51.5t-18.5 51t-50.5 19q-31 0 -49.5 -19.5t-18.5 -50.5q0 -33 18.5 -52t49.5 -19q32 0 50.5 19.5z" />
    <glyph glyph-name="uni2117" unicode="&#x2117;" horiz-adv-x="530" 
d="M86 311q-64 60 -64 171q0 108 63 168t177 60q117 0 181.5 -59t64.5 -169t-63.5 -170.5t-179.5 -60.5q-115 0 -179 60zM396.5 356q48.5 39 48.5 126q0 82 -46.5 121.5t-133.5 39.5q-181 0 -181 -161q0 -84 48 -124.5t133 -40.5q83 0 131.5 39zM168 367l1 120q0 84 -1 119
h114q46 0 69.5 -20.5t23.5 -56.5q0 -42 -29.5 -61.5t-97.5 -19.5h-33q0 -55 1 -81h-48zM285 491q16 0 26 6.5t10 18.5q0 11 -9 17.5t-23 6.5h-75v-49h71z" />
    <glyph glyph-name="trademark" unicode="&#x2122;" horiz-adv-x="974" 
d="M138 256q3 110 3 222v45h-119v177h349v-177h-119q-1 -16 -1 -45q0 -129 4 -222h-117zM419 256q0 33 2 97q2 80 2 104q0 38 -2 120q-2 72 -2 123h208l56 -285h5l56 285h208l-2 -100q-2 -108 -2 -137q0 -22 2 -134l2 -73h-115q2 122 2 121q1 18 1 46v101h-33l-63 -268h-117
l-62 267h-34q1 -39 1 -94q0 -33 1 -56q-1 15 2 -117h-116z" />
    <glyph glyph-name="uni2126" unicode="&#x2126;" horiz-adv-x="804" 
d="M758 0h-322v162q9 34 23.5 59t37.5 56q27 37 40 64.5t13 68.5q0 73 -38 116t-111 43q-71 0 -110.5 -43.5t-39.5 -115.5q0 -41 13 -69t41 -65q23 -31 37.5 -56t23.5 -58v-162h-321v173h201q-11 19 -28.5 34.5t-46.5 35.5q-37 27 -60 49.5t-39.5 59t-16.5 89.5
q0 80 44 143.5t122.5 99t178.5 35.5q97 0 176.5 -34t125 -97t45.5 -147q0 -54 -16 -91t-39.5 -59t-60.5 -48q-29 -21 -46 -36t-28 -34h201v-173z" />
    <glyph glyph-name="estimated" unicode="&#x212e;" horiz-adv-x="672" 
d="M604 114q-42 -61 -109.5 -93.5t-152.5 -32.5q-86 0 -158 33.5t-114 97t-42 151.5t40.5 154t111.5 101.5t160 35.5q86 0 155.5 -33.5t109 -94.5t39.5 -139v-29h-457l3 -188q67 -49 153 -49q68 0 120.5 25t91.5 78zM482 301q16 0 16 30v108q0 46 -51 66.5t-108 20.5
q-30 0 -65.5 -8.5t-61.5 -28t-26 -50.5v-120q0 -13 4.5 -15.5t15.5 -2.5h276z" />
    <glyph glyph-name="arrowleft" unicode="&#x2190;" horiz-adv-x="752" 
d="M410 259q-83 0 -145 6l157 -194l-223 -1l-182 231l182 231l223 -1l-157 -196q64 6 145 8l325 -1v-83h-325z" />
    <glyph glyph-name="arrowup" unicode="&#x2191;" horiz-adv-x="498" 
d="M207 325q0 51 6 144l-195 -156l-1 223l232 181l232 -181l-2 -223l-196 156q7 -70 7 -144v-325h-83v325z" />
    <glyph glyph-name="arrowright" unicode="&#x2192;" horiz-adv-x="752" 
d="M342 347q81 0 145 -6l-156 194l222 1l182 -231l-182 -231l-222 1l156 196q-70 -7 -145 -7h-325v83h325z" />
    <glyph glyph-name="arrowdown" unicode="&#x2193;" horiz-adv-x="498" 
d="M291 375q0 -82 -6 -144l195 156l1 -223l-232 -181l-232 181l2 223l196 -156q-8 80 -8 144v325h84v-325z" />
    <glyph glyph-name="arrowboth" unicode="&#x2194;" horiz-adv-x="1119" 
d="M921 537l181 -232l-181 -231l-223 1l156 196q-63 -7 -135 -7h-319q-86 2 -135 7l157 -196l-223 -1l-182 231l182 232l223 -1l-157 -195q60 6 135 6h319q75 0 135 -6l-156 195z" />
    <glyph glyph-name="arrowupdn" unicode="&#x2195;" horiz-adv-x="498" 
d="M480 116l1 -190l-232 -159l-232 159l2 190l196 -136q-8 67 -8 120v281q2 65 8 119l-196 -136l-2 191l232 158l232 -158l-1 -191l-195 136q6 -50 6 -119v-281q0 -68 -6 -120z" />
    <glyph glyph-name="uni2196" unicode="&#x2196;" horiz-adv-x="606" 
d="M301 266q-49 48 -99 107l-27 -249l-158 157l36 292l292 35l156 -158l-249 -28q44 -35 108 -97l229 -230l-59 -59z" />
    <glyph glyph-name="uni2197" unicode="&#x2197;" horiz-adv-x="612" 
d="M249 341q63 63 108 99l-251 28l158 160l295 -36l36 -295l-160 -158l-28 252q-55 -66 -98 -109l-232 -232l-60 60z" />
    <glyph glyph-name="uni2198" unicode="&#x2198;" horiz-adv-x="606" 
d="M306 387q42 -42 98 -106l27 248l158 -157l-36 -292l-291 -35l-157 158l249 28q-57 47 -107 97l-230 230l59 59z" />
    <glyph glyph-name="uni2199" unicode="&#x2199;" horiz-adv-x="607" 
d="M360 313q-53 -53 -107 -98l249 -27l-157 -158l-292 35l-36 292l159 156l28 -249q35 44 97 108l229 229l59 -59z" />
    <glyph glyph-name="uni2206" unicode="&#x2206;" horiz-adv-x="714" 
d="M709 0h-704l289 700h130zM329 524l-141 -362h335l-136 362h-58z" />
    <glyph glyph-name="product" unicode="&#x220f;" horiz-adv-x="796" 
d="M687 699v-794h-118v624h-343v-624h-116v794h577z" />
    <glyph glyph-name="summation" unicode="&#x2211;" horiz-adv-x="672" 
d="M635 75v-165h-607v119l250 284l-237 264v122h591v-166h-413l194 -217l-209 -241h431z" />
    <glyph glyph-name="minus" unicode="&#x2212;" horiz-adv-x="475" 
d="M432 192q-65 2 -194 2t-195 -2v135q132 -2 195 -2q64 0 194 2v-135z" />
    <glyph glyph-name="infinity" unicode="&#x221e;" horiz-adv-x="681" 
d="M274 85.5q-37 -20.5 -86 -20.5q-75 0 -119.5 46.5t-44.5 126.5q0 81 44.5 128.5t118.5 47.5q97 0 154 -82q60 82 155 82q74 0 117.5 -46.5t43.5 -126.5q0 -81 -43 -128.5t-118 -47.5q-96 0 -155 82q-30 -41 -67 -61.5zM250.5 290q-20.5 17 -48.5 17q-29 0 -45 -17.5
t-16 -48.5q0 -33 16 -50.5t46 -17.5q53 0 85 67q-17 33 -37.5 50zM481 174q28 0 44.5 16.5t16.5 48.5t-16.5 50t-45.5 18q-28 0 -48.5 -17t-36.5 -51q31 -65 86 -65z" />
    <glyph glyph-name="approxequal" unicode="&#x2248;" horiz-adv-x="587" 
d="M43 272q2 80 41 120t109 40q30 0 54.5 -9t56.5 -25q23 -12 37.5 -18t28.5 -6q24 0 37 16t13 40l124 -1q-4 -79 -41.5 -120t-106.5 -41q-30 0 -55.5 9.5t-56.5 26.5q-22 12 -37 18t-29 6q-25 0 -38 -15t-14 -41h-123zM43 72q2 80 41.5 121t108.5 41q30 0 53.5 -9t57.5 -26
q23 -12 37.5 -18t28.5 -6q24 0 37 15.5t13 39.5h124q-4 -80 -41.5 -120.5t-106.5 -40.5q-30 0 -55.5 9.5t-56.5 26.5q-22 12 -37 18t-29 6q-25 0 -38 -15.5t-14 -41.5h-123z" />
    <glyph glyph-name="notequal" unicode="&#x2260;" horiz-adv-x="516" 
d="M473 248q-134 2 -203 2l-23 -43h66q107 0 160 1v-121q-140 2 -212 2h-79l-46 -84l-20 11l40 73l-113 -2v121q59 -1 178 -1l24 43q-68 0 -202 -2v121q130 -2 195 -2h71l72 131l19 -12l-65 -119q46 0 138 2v-121z" />
    <glyph glyph-name="lessequal" unicode="&#x2264;" horiz-adv-x="506" 
d="M467 67h2v-134q-126 2 -187 2q-72 0 -236 -2v134q78 -2 222 -2q117 0 175 1l-406 198v103l430 206v-143l-303 -131l303 -144v-88z" />
    <glyph glyph-name="greaterequal" unicode="&#x2265;" horiz-adv-x="517" 
d="M475 367v-103l-406 -198q58 -1 175 -1q144 0 222 2v-134q-164 2 -236 2q-61 0 -187 -2v134h2v88l303 144l-303 131v143z" />
    <glyph glyph-name="filledbox" unicode="&#x25a0;" horiz-adv-x="490" 
d="M43 79v398h405v-398h-405z" />
    <glyph glyph-name="uni25A1" unicode="&#x25a1;" horiz-adv-x="558" 
d="M43 42v465h472v-465h-472zM374 366h-190v-183h190v183z" />
    <glyph glyph-name="uni25B3" unicode="&#x25b3;" horiz-adv-x="750" 
d="M744 -1h-739l372 658zM376 341l-122 -217h244z" />
    <glyph glyph-name="uni25B4" unicode="&#x25b4;" horiz-adv-x="448" 
d="M22 188l201 398l204 -398h-405z" />
    <glyph glyph-name="uni25B8" unicode="&#x25b8;" horiz-adv-x="448" 
d="M22 586l405 -200l-405 -198v398z" />
    <glyph glyph-name="uni25BD" unicode="&#x25bd;" horiz-adv-x="750" 
d="M377 43l-372 658h739zM498 576h-244l122 -217z" />
    <glyph glyph-name="uni25BE" unicode="&#x25be;" horiz-adv-x="448" 
d="M427 477l-204 -398l-201 398h405z" />
    <glyph glyph-name="uni25C2" unicode="&#x25c2;" horiz-adv-x="584" 
d="M466 188l-404 198l404 200v-398z" />
    <glyph glyph-name="uni25C6" unicode="&#x25c6;" horiz-adv-x="566" 
d="M5 300l278 286l277 -286l-277 -292z" />
    <glyph glyph-name="uni25C7" unicode="&#x25c7;" horiz-adv-x="679" 
d="M5 290l334 329l334 -330l-334 -329zM473 289l-134 131l-134 -130l134 -131z" />
    <glyph glyph-name="circle" unicode="&#x25cb;" horiz-adv-x="556" 
d="M149 82q-59 34 -93 92.5t-34 127.5t34 127t93 92t129 34t129 -34t93 -92t34 -127t-34 -127.5t-93 -92.5t-129 -34t-129 34zM363 216.5q34 34.5 34 85.5t-34 85t-85 34t-85 -33.5t-34 -85.5t34 -86t85 -34t85 34.5z" />
    <glyph glyph-name="uni25CF" unicode="&#x25cf;" horiz-adv-x="556" 
d="M149 82q-59 34 -93 92.5t-34 127.5t34 127t93 92t129 34t128.5 -34t93 -92t34.5 -127t-34.5 -127.5t-93 -92.5t-128.5 -34t-129 34z" />
    <glyph glyph-name="uni2611" unicode="&#x2611;" horiz-adv-x="832" 
d="M789 0h-746v735h746v-735zM182 596v-458h468v458h-468zM384 312l81 228h127l-140 -341h-119l-92 179h105z" />
    <glyph glyph-name="uni2612" unicode="&#x2612;" horiz-adv-x="832" 
d="M789 0h-746v735h746v-735zM182 596v-457h468v457h-468zM476 370l108 -170h-113l-56 98l-58 -98h-105l106 165l-99 160h110l50 -90l51 90h105z" />
    <glyph glyph-name="uniF8FF" unicode="&#xf8ff;" horiz-adv-x="1347" 
d="M1301 462v-193h-1254v193h486q4 56 44.5 94t96.5 38t96.5 -38t44.5 -94h486zM759 547q-38 33 -85 33q-49 0 -85 -33h170zM772 371q29 35 29 81q0 48 -32 85l-166 -166h169zM575 533q-29 -35 -29 -81q0 -49 33 -85l167 166h-171zM938 321q19 18 19 46q0 27 -19 45t-47 18
t-46.5 -18t-18.5 -45q0 -28 18.5 -46t46.5 -18t47 18zM138 392h28v35h-96v-35h29v-86h39v86zM235 306h41l-21 46q14 12 14 32q0 18 -13.5 30.5t-32.5 12.5h-50v-121h39v35h8zM282 306h38v121h-38v-121zM407 325l5 -19h42l-41 121h-45l-41 -121h41l5 19h34zM461 306h82v33
h-43v88h-39v-121zM1041 306h40v121h-39v-64l-37 64h-40v-121h39l-1 59zM1093 306h82v33h-43v88h-39v-121zM1236 306v48l41 73h-45l-16 -36l-15 36h-46l42 -73v-48h39zM910.5 387q7.5 -8 7.5 -20q0 -13 -7.5 -21t-19.5 -8q-11 0 -19 8t-8 21q0 12 8 20t19 8q12 0 19.5 -8z
M222 394q3 0 5.5 -3t2.5 -7t-2.5 -7.5t-5.5 -3.5h-10v21h10zM381 357l8 29h1l8 -29h-17zM589 357q37 -32 85 -32t85 32h-170zM530 176q12 -7 26 -7q11 0 18.5 6t7.5 17q0 13 -23 22q-9 3 -12.5 5.5t-3.5 7.5t4 8t10 3q11 0 20 -7v13q-10 5 -20 5q-12 0 -19 -6t-7 -16
q0 -9 5 -13.5t17 -9.5q17 -5 17 -12q0 -12 -14 -12q-13 0 -26 9v-13zM630.5 180.5q11.5 -11.5 28.5 -11.5t28.5 11.5t11.5 28.5t-11.5 28.5t-28.5 11.5t-28.5 -11.5t-11.5 -28.5t11.5 -28.5zM778 168v79h-12v-54l-49 55h-6v-78h12v52l49 -54h6zM96 247h-50v-77h12v29h33v11
h-33v26h38v11zM106 200q0 -13 9 -22t22 -9q14 0 23 8.5t9 22.5v47h-12v-47q0 -8 -6 -14t-14 -6t-13.5 5.5t-5.5 14.5v47h-12v-47zM196 247h-12v-77h47v11h-35v66zM254 247h-12v-77h48v11h-36v66zM362 170l32 77h-14l-22 -57l-22 57h-14l32 -77h8zM454 247h-50v-77h50v11h-38
v23h33v10h-33v22h38v11zM510 170h14l-15 31q12 7 12 21q0 11 -7 18t-18 7h-29v-77h12v28h18zM606 247h-12v-77h12v77zM678 188q-8 -8 -19 -8q-12 0 -20 8t-8 21q0 12 8 20t20 8q11 0 19 -8t8 -20q0 -13 -8 -21zM505 212q-4 -4 -9 -4h-17v28h17q5 0 9 -4t4 -10t-4 -10z
M1265 183l25 24l-25 24l-8 -7l13 -11h-458v-12h458l-13 -11zM526 53.5q17 -16.5 42 -16.5t42 16.5t17 41.5q0 24 -17 40.5t-42 16.5t-42 -16.5t-17 -40.5q0 -25 17 -41.5zM836 47q16 -10 38 -10q19 0 31.5 10t12.5 27q0 27 -36 35q-3 1 -7 2t-5.5 2.5t-1.5 3.5q0 4 11 4
q7 0 16.5 -3t15.5 -8v34q-18 8 -32 8q-21 0 -33 -9t-12 -25q0 -14 7.5 -21.5t24.5 -13.5q3 -1 10 -3t7 -6q0 -6 -9 -6q-13 0 -38 16v-37zM981 53.5q17 -16.5 41 -16.5q12 0 26 7l1 35q-10 -10 -25 -10q-11 0 -18 7.5t-7 18.5t7.5 18t17.5 7t22 -7v33q-10 6 -23 6
q-25 0 -42 -16.5t-17 -40.5q0 -25 17 -41.5zM1069 53.5q17 -16.5 43 -16.5q25 0 42 16.5t17 41.5q0 24 -17 40.5t-42 16.5t-42.5 -16.5t-17.5 -40.5q0 -25 17 -41.5zM47 118h36l-41 -78h95v31h-38l41 78h-93v-31zM226 149h-79v-109h80v30h-45v10h38v30h-38v9h44v30zM231 118
h26v-78h35v78h26v31h-87v-31zM347 57h31l4 -17h38l-37 109h-40l-37 -109h36zM505 149h-79v-109h35v34h37v29h-37v16h44v30zM739 40v109h-35v-58l-33 58h-36v-109h35l-1 53l34 -53h36zM745 118h26v-78h35v78h25v31h-86v-31zM1213 149h-35v-109h35v43l14 -27h25l14 27v-43h34
v109h-35l-26 -50zM585 76.5q-7 -7.5 -17 -7.5t-17 7.5t-7 18.5t7 18t17 7t17 -7t7 -18t-7 -18.5zM1129 76.5q-7 -7.5 -17 -7.5q-11 0 -18 7.5t-7 18.5t7.5 18t17.5 7t17 -7.5t7 -17.5q0 -11 -7 -18.5zM363 112l7 -26h-15l7 26h1zM928 42q5 -5 13 -5q7 0 12 5t5 12t-5 11.5
t-12 4.5q-8 0 -13 -4.5t-5 -11.5t5 -12z" />
    <glyph glyph-name="E.ss01" horiz-adv-x="561" 
d="M423 225q57 8 116 26l-5 -228q-94 -35 -229 -35q-103 0 -162 35t-84 108t-25 192q0 220 -4 377h497l9 -220h-412v-80h363v-81h-363q1 -40 15 -61.5t50.5 -31t104.5 -9.5q72 0 129 8z" />
    <glyph glyph-name="F.ss01" horiz-adv-x="524" 
d="M126 348h323v-81h-323q0 -82 2 -202l1 -65h-99q5 180 5 366q0 125 18.5 198t71 111t153.5 38q133 0 225 -37l5 -225q-116 30 -228 30q-65 0 -98 -12t-44.5 -36t-11.5 -67v-18z" />
    <glyph glyph-name="a.ss01" horiz-adv-x="513" 
d="M478 19q-100 -29 -229 -29q-114 0 -171 41t-57 119q0 84 62.5 121.5t193.5 37.5q67 0 112 -8q-7 39 -41.5 53.5t-99.5 14.5q-91 0 -186 -25l10 173q83 27 180 27q110 0 167.5 -56.5t57.5 -193.5q0 -193 1 -275zM345.5 164.5q30.5 2.5 45.5 5.5v69q-42 5 -125 5
q-58 0 -84 -9.5t-26 -31.5q0 -24 27 -32.5t99 -8.5q33 0 63.5 2.5z" />
    <glyph glyph-name="b.ss01" horiz-adv-x="558" 
d="M477.5 475q62.5 -69 62.5 -206q0 -140 -70.5 -209.5t-201.5 -69.5q-65 0 -126 11.5t-103 27.5q2 47 2 320q0 231 -2 351h90l-2 -249q56 93 179 93q109 0 171.5 -69zM413 204q40 20 40 64q0 43 -33.5 62.5t-113.5 19.5q-75 0 -125 -29t-54 -84q0 -21 1 -31q68 -22 156 -22
q89 0 129 20z" />
    <glyph glyph-name="d.ss01" horiz-adv-x="558" 
d="M519 700q-2 -120 -2 -351q0 -273 2 -320q-42 -16 -103 -27.5t-126 -11.5q-131 0 -201.5 69.5t-70.5 209.5q0 137 62.5 206t171.5 69q123 0 179 -93l-2 249h90zM430 206q1 10 1 31q-4 55 -54 84t-125 29q-80 0 -113.5 -19.5t-33.5 -62.5q0 -44 40 -64t129 -20q88 0 156 22
z" />
    <glyph glyph-name="g.ss01" horiz-adv-x="570" 
d="M528 267l1 -220q0 -127 -62 -190t-196 -63q-50 0 -93 6t-93 18l-9 166q51 -17 88 -24.5t90 -7.5q92 0 140.5 34.5t48.5 118.5v19q-28 -52 -76 -83t-119 -31q-109 0 -170 63t-61 192q0 279 270 279q73 0 125.5 -10t118.5 -28q-3 -117 -3 -239zM391 214.5q52 31.5 53 89.5
v25q-65 21 -167 21q-92 0 -133 -21t-41 -68q0 -40 35.5 -59t118.5 -19q82 0 134 31.5z" />
    <glyph glyph-name="h.ss01" horiz-adv-x="542" 
d="M39 0q2 77 2 349l-2 351h90q0 -51 -2 -173q83 16 162 16q121 0 171 -61t46 -189q-2 -70 -2 -128q0 -117 2 -165h-89q1 47 1 169v69q-1 61 -38 85t-112 24q-80 0 -142 -13q0 -42 3 -309v-25h-90z" />
    <glyph glyph-name="m.ss01" horiz-adv-x="827" 
d="M39 0q2 81 2 267q0 184 -1 247q61 16 100.5 22.5t82.5 6.5q76 0 122 -25t69 -78q22 53 68 78t122 25q43 0 82.5 -6t100.5 -23q-2 -63 -2 -247q0 -147 3 -267h-88q2 100 2 258v70q-55 13 -129 13q-40 0 -64 -9t-37 -33.5t-14 -70.5q-2 -108 -2 -151l1 -77h-86l1 69
q0 48 -2 158q-1 67 -29 90.5t-88 23.5q-71 0 -128 -13q0 -212 2 -328h-88z" />
    <glyph glyph-name="n.ss01" horiz-adv-x="542" 
d="M39 0q2 79 2 267q0 182 -2 239q75 21 131.5 29t118.5 8q121 0 171 -61t46 -189q-2 -70 -2 -128q0 -117 2 -165h-89q1 47 1 169v69q-1 61 -38 85t-112 24q-80 0 -142 -13v-105q0 -125 2 -229h-89z" />
    <glyph glyph-name="p.ss01" horiz-adv-x="558" 
d="M469.5 474.5q70.5 -69.5 70.5 -209.5q0 -137 -62.5 -206t-171.5 -69q-123 0 -179 93l2 -249h-90q2 120 2 351q0 273 -2 320q42 16 103 27.5t126 11.5q131 0 201.5 -69.5zM419.5 203.5q33.5 19.5 33.5 62.5q0 44 -40 64t-129 20q-88 0 -156 -22q-1 -10 -1 -31
q4 -55 54 -84t125 -29q80 0 113.5 19.5z" />
    <glyph glyph-name="q.ss01" horiz-adv-x="558" 
d="M517 185q0 -231 2 -351h-90l2 249q-56 -93 -179 -93q-109 0 -171.5 69t-62.5 206q0 140 70.5 209.5t201.5 69.5q65 0 126 -11.5t103 -27.5q-2 -47 -2 -320zM377 213q50 29 54 84q0 21 -1 31q-68 22 -156 22q-89 0 -129 -20t-40 -64q0 -43 33.5 -62.5t113.5 -19.5
q75 0 125 29z" />
    <glyph glyph-name="r.ss01" horiz-adv-x="374" 
d="M39 0q2 176 2 260q0 120 -2 246q119 37 227 37q60 0 102 -8v-201q-54 8 -106 8q-28 0 -66.5 -4.5t-70.5 -12.5q0 -218 3 -325h-89z" />
    <glyph glyph-name="u.ss01" horiz-adv-x="543" 
d="M503 534q-2 -79 -2 -267q0 -182 2 -239q-75 -21 -131.5 -29t-118.5 -8q-121 0 -171 61t-45 189q1 28 1 99q0 140 -2 194h90q-2 -82 -2 -147q0 -63 1 -91q1 -61 38 -85t111 -24q80 0 142 13v105q0 125 -2 229h89z" />
    <glyph glyph-name="g.ss02" horiz-adv-x="510" 
d="M264 -206l-24 149q49 6 79 17.5t48.5 36t24.5 68.5q-57 -45 -134 -45q-124 0 -182.5 62.5t-58.5 184.5q0 141 64.5 209t200.5 68q84 0 170 -30l10 -180q-97 20 -185 20q-95 0 -134.5 -20t-39.5 -67t39.5 -68t133.5 -21q77 0 117 9v81h85q0 -153 2 -221q4 -250 -216 -253z
" />
    <glyph glyph-name="q.ss02" horiz-adv-x="559" 
d="M368 -28q78 0 161 26l-6 -162q-77 -21 -161 -21q-126 0 -203.5 63.5t-109.5 159t-32 199.5q0 151 62.5 229t198.5 78t200 -70.5t64 -206.5q0 -112 -58 -176.5t-172 -64.5q-49 0 -91.5 14.5t-73.5 38.5q67 -107 221 -107zM148 331.5q-38 -19.5 -40 -65.5q0 -44 40 -63
t134 -19q92 0 132 20t40 63q0 45 -40 64.5t-132 19.5q-96 0 -134 -19.5z" />
    <glyph glyph-name="f.ss03" horiz-adv-x="396" 
d="M371 531l6 -176l-127 -5q52 -59 80 -127.5t28 -136.5q0 -49 -14.5 -100t-47 -86.5t-82.5 -35.5q-66 0 -103.5 71t-37.5 214q0 74 2 190q-28 4 -46 4l-12 164h1v0l70 6q17 131 63 193t137 62q66 0 111 -22l-26 -177q-23 8 -49 11.5t-45 3.5q-39 0 -60.5 -13t-33.5 -50z
M254 80.5q11 19.5 11 44.5q0 55 -25 104.5t-76 79.5q-1 -39 -1 -133q0 -55 15 -85t40 -30t36 19.5z" />
    <glyph glyph-name="l.ss03" horiz-adv-x="474" 
d="M457 209l-17 -190q-38 -14 -77 -21.5t-70 -7.5q-88 0 -135 44.5t-62 137.5l-58 -15l-22 156q48 9 75 16q6 104 39 191.5t84.5 139.5t111.5 52q57 0 88.5 -41t31.5 -118q0 -133 -65 -215t-185 -131q11 -15 31 -22t51 -7q75 0 179 31zM233.5 473q-39.5 -45 -51.5 -119
q85 27 132.5 60.5t47.5 72.5q0 31 -43 31q-46 0 -85.5 -45z" />
    <glyph glyph-name="s.ss03" horiz-adv-x="502" 
d="M420.5 350.5q64.5 -99.5 64.5 -181.5q0 -102 -68.5 -143t-180.5 -41q-35 0 -85.5 7t-102.5 22l-16 183q49 -13 105.5 -21t105.5 -8q52 0 84.5 11t32.5 37q0 30 -44 60.5t-127 64.5q-19 -16 -38 -40t-47 -65l-83 59q68 92 116 153.5t84 95.5q135 -94 199.5 -193.5z" />
    <glyph glyph-name="M.ss04" horiz-adv-x="872" 
d="M43 0l1 73q3 258 3 263q0 118 -3 271l-1 93h250l139 -561h9l139 561h249l-1 -62q-3 -171 -3 -294q0 -140 4 -344h-184q2 124 2 164q2 96 2 123v207h-30l-125 -494h-115l-125 493h-31l1 -196l1 -133q2 -92 2 -164h-184z" />
    <glyph glyph-name="V.ss04" horiz-adv-x="659" 
d="M197 0q-97 374 -192 700h105q57 -226 116 -433h201q52 174 121 433h105q-105 -339 -203 -700h-253z" />
    <glyph glyph-name="W.ss04" horiz-adv-x="942" 
d="M127 0q-30 180 -94 542l-28 158h102q23 -163 73 -444l139 -1q18 89 25 121q44 216 64 324h108q24 -134 77 -382l13 -63h152q39 213 77 445h101l-30 -157q-68 -362 -101 -543h-240q-36 191 -82 424q-14 66 -20 99h-3q-63 -318 -101 -523h-232z" />
    <glyph glyph-name="X.ss04" horiz-adv-x="640" 
d="M116 0h-111l199 371l-185 329h111l106 -194h170l104 194h111l-183 -329l197 -371h-111l-123 238h-161z" />
    <glyph glyph-name="v.ss04" horiz-adv-x="500" 
d="M342 0h-183l-152 534h95l78 -282h140l79 282h95z" />
    <glyph glyph-name="w.ss04" horiz-adv-x="760" 
d="M302 0h-168l-127 534h90l61 -283h112l60 283h101l60 -283h111l59 283h92l-127 -534h-167l-76 388h-4z" />
    <glyph glyph-name="x.ss04" horiz-adv-x="482" 
d="M106 0h-99l130 278l-119 256h100l64 -150h117l65 150h100l-119 -256l130 -278h-101l-74 164h-119z" />
    <glyph glyph-name="f.ss06" horiz-adv-x="303" 
d="M73 0q3 91 3 231v94h-58v209h58v16q0 163 151 163q36 0 60 -7l2 -111q-33 5 -52 5q-43 0 -60 -14t-17 -44v-8h128v-209h-128v-89q0 -147 3 -236h-90z" />
    <glyph glyph-name="s.ss06" horiz-adv-x="496" 
d="M133.5 -8q-50.5 7 -98.5 22l-10 178q52 -14 108 -23t100 -9q47 0 66 8.5t19 26.5q0 16 -15.5 23t-57.5 11q-84 7 -133 26.5t-70 52t-21 82.5q0 32 18.5 67t71 61t145.5 26q101 0 187 -26l3 -173q-105 25 -187 25q-38 0 -58.5 -7t-20.5 -24q0 -15 15.5 -22t61.5 -11
q83 -6 130.5 -24t67.5 -48t20 -77q0 -172 -253 -172q-38 0 -88.5 7z" />
    <glyph glyph-name="K.ss08" horiz-adv-x="604" 
d="M599 0h-109q-65 123 -139 245h-212q2 -179 4 -245h-100q4 144 4 350q0 207 -4 350h100q-2 -63 -4 -232h209q60 123 104 232h106q-105 -207 -161 -338q66 -130 202 -362z" />
    <glyph glyph-name="R.ss08" horiz-adv-x="641" 
d="M613 0h-100l-141 237h-232q0 -38 1 -57q0 -79 3 -180h-101l1 92q3 117 3 259q0 206 -4 349h289q136 0 206 -58.5t70 -171.5q0 -84 -35.5 -137.5t-110.5 -77.5zM366 317q53 0 81 21t28 62q0 38 -30 59.5t-82 21.5h-226v-164h229z" />
    <glyph glyph-name="Y.ss08" horiz-adv-x="622" 
d="M264 0q1 47 1 135v67l-260 498h106l126 -257h148l125 257h106l-260 -498v-62q0 -87 1 -140h-93z" />
    <glyph glyph-name="k.ss08" horiz-adv-x="512" 
d="M323 284l182 -284h-102l-119 184h-156l1 -93q0 -67 1 -91h-91q3 111 3 350q0 235 -3 350h91q-3 -228 -3 -327h157l88 161h96v-3z" />
    <glyph glyph-name="Eacute.ss01" horiz-adv-x="561" 
d="M423 225q57 8 116 26l-5 -228q-94 -35 -229 -35q-103 0 -162 35t-84 108t-25 192q0 220 -4 377h497l9 -220h-412v-80h363v-81h-363q1 -40 15 -61.5t50.5 -31t104.5 -9.5q72 0 129 8zM167 761l-17 58l217 98l45 -123z" />
    <glyph glyph-name="Ecaron.ss01" horiz-adv-x="561" 
d="M423 225q57 8 116 26l-5 -228q-94 -35 -229 -35q-103 0 -162 35t-84 108t-25 192q0 220 -4 377h497l9 -220h-412v-80h363v-81h-363q1 -40 15 -61.5t50.5 -31t104.5 -9.5q72 0 129 8zM130 867l6 41l132 -34h21l134 34l5 -41l-123 -96h-51z" />
    <glyph glyph-name="Ecircumflex.ss01" horiz-adv-x="561" 
d="M423 225q57 8 116 26l-5 -228q-94 -35 -229 -35q-103 0 -162 35t-84 108t-25 192q0 220 -4 377h497l9 -220h-412v-80h363v-81h-363q1 -40 15 -61.5t50.5 -31t104.5 -9.5q72 0 129 8zM268 789l-132 -34l-6 41l124 96h51l123 -96l-5 -41l-134 34h-21z" />
    <glyph glyph-name="Edieresis.ss01" horiz-adv-x="561" 
d="M423 225q57 8 116 26l-5 -228q-94 -35 -229 -35q-103 0 -162 35t-84 108t-25 192q0 220 -4 377h497l9 -220h-412v-80h363v-81h-363q1 -40 15 -61.5t50.5 -31t104.5 -9.5q72 0 129 8zM135.5 771.5q-17.5 16.5 -17.5 47.5q0 29 18 46t49 17q32 0 50 -17t18 -46
q0 -31 -18 -47.5t-50 -16.5t-49.5 16.5zM323 771.5q-17 16.5 -17 47.5q0 29 17.5 46t48.5 17q32 0 50 -17t18 -46q0 -30 -18 -47t-50 -17t-49 16.5z" />
    <glyph glyph-name="Edotaccent.ss01" horiz-adv-x="561" 
d="M423 225q57 8 116 26l-5 -228q-94 -35 -229 -35q-103 0 -162 35t-84 108t-25 192q0 220 -4 377h497l9 -220h-412v-80h363v-81h-363q1 -40 15 -61.5t50.5 -31t104.5 -9.5q72 0 129 8zM232 772.5q-18 15.5 -18 43.5q0 27 18.5 42.5t50.5 15.5q33 0 51.5 -15.5t18.5 -42.5
q0 -28 -18.5 -43.5t-51.5 -15.5t-51 15.5z" />
    <glyph glyph-name="Egrave.ss01" horiz-adv-x="561" 
d="M423 225q57 8 116 26l-5 -228q-94 -35 -229 -35q-103 0 -162 35t-84 108t-25 192q0 220 -4 377h497l9 -220h-412v-80h363v-81h-363q1 -40 15 -61.5t50.5 -31t104.5 -9.5q72 0 129 8zM191 914l214 -97l-17 -57l-240 33z" />
    <glyph glyph-name="Emacron.ss01" horiz-adv-x="561" 
d="M423 225q57 8 116 26l-5 -228q-94 -35 -229 -35q-103 0 -162 35t-84 108t-25 192q0 220 -4 377h497l9 -220h-412v-80h363v-81h-363q1 -40 15 -61.5t50.5 -31t104.5 -9.5q72 0 129 8zM431 844v-77h-302v77h302z" />
    <glyph glyph-name="Eogonek.ss01" horiz-adv-x="561" 
d="M550 -74v-89q-46 -18 -85 -18q-50 0 -77.5 22t-27.5 64q0 51 44 89q-46 -6 -99 -6q-103 0 -162 35t-84 108t-25 192q0 220 -4 377h497l9 -220h-412v-80h363v-81h-363q1 -40 15 -61.5t50.5 -31t104.5 -9.5q72 0 129 8t116 26l-5 -228q-36 -18 -60 -38t-24 -41
q0 -16 9.5 -21t27.5 -5q29 0 63 8z" />
    <glyph glyph-name="Wacute.ss04" horiz-adv-x="942" 
d="M127 0q-30 180 -94 542l-28 158h102q23 -163 73 -444l139 -1q18 89 25 121q44 216 64 324h108q24 -134 77 -382l13 -63h152q39 213 77 445h101l-30 -157q-68 -362 -101 -543h-240q-36 191 -82 424q-14 66 -20 99h-3q-63 -318 -101 -523h-232zM346 761l-17 58l217 98
l45 -123z" />
    <glyph glyph-name="Wcircumflex.ss04" horiz-adv-x="942" 
d="M127 0q-30 180 -94 542l-28 158h102q23 -163 73 -444l139 -1q18 89 25 121q44 216 64 324h108q24 -134 77 -382l13 -63h152q39 213 77 445h101l-30 -157q-68 -362 -101 -543h-240q-36 191 -82 424q-14 66 -20 99h-3q-63 -318 -101 -523h-232zM447 789l-132 -34l-6 41
l124 96h51l123 -96l-5 -41l-134 34h-21z" />
    <glyph glyph-name="Wdieresis.ss04" horiz-adv-x="942" 
d="M127 0q-30 180 -94 542l-28 158h102q23 -163 73 -444l139 -1q18 89 25 121q44 216 64 324h108q24 -134 77 -382l13 -63h152q39 213 77 445h101l-30 -157q-68 -362 -101 -543h-240q-36 191 -82 424q-14 66 -20 99h-3q-63 -318 -101 -523h-232zM314.5 771.5
q-17.5 16.5 -17.5 47.5q0 29 18 46t49 17q32 0 50 -17t18 -46q0 -31 -18 -47.5t-50 -16.5t-49.5 16.5zM502 771.5q-17 16.5 -17 47.5q0 29 17.5 46t48.5 17q32 0 50 -17t18 -46q0 -30 -18 -47t-50 -17t-49 16.5z" />
    <glyph glyph-name="Wgrave.ss04" horiz-adv-x="942" 
d="M127 0q-30 180 -94 542l-28 158h102q23 -163 73 -444l139 -1q18 89 25 121q44 216 64 324h108q24 -134 77 -382l13 -63h152q39 213 77 445h101l-30 -157q-68 -362 -101 -543h-240q-36 191 -82 424q-14 66 -20 99h-3q-63 -318 -101 -523h-232zM370 914l214 -97l-17 -57
l-240 33z" />
    <glyph glyph-name="uni0136.ss08" horiz-adv-x="604" 
d="M599 0h-109q-65 123 -139 245h-212q2 -179 4 -245h-100q4 144 4 350q0 207 -4 350h100q-2 -63 -4 -232h209q60 123 104 232h106q-105 -207 -161 -338q66 -130 202 -362zM311 -150q-29 0 -45 14.5t-16 40.5q0 24 18.5 38.5t49.5 14.5q34 0 51.5 -15t17.5 -41
q0 -18 -10.5 -34.5t-28.5 -36.5l-38 -45h-43z" />
    <glyph glyph-name="Racute.ss08" horiz-adv-x="641" 
d="M613 0h-100l-141 237h-232q0 -38 1 -57q0 -79 3 -180h-101l1 92q3 117 3 259q0 206 -4 349h289q136 0 206 -58.5t70 -171.5q0 -84 -35.5 -137.5t-110.5 -77.5zM366 317q53 0 81 21t28 62q0 38 -30 59.5t-82 21.5h-226v-164h229zM211 761l-17 58l217 98l45 -123z" />
    <glyph glyph-name="Rcaron.ss08" horiz-adv-x="641" 
d="M613 0h-100l-141 237h-232q0 -38 1 -57q0 -79 3 -180h-101l1 92q3 117 3 259q0 206 -4 349h289q136 0 206 -58.5t70 -171.5q0 -84 -35.5 -137.5t-110.5 -77.5zM366 317q53 0 81 21t28 62q0 38 -30 59.5t-82 21.5h-226v-164h229zM174 867l6 41l132 -34h21l134 34l5 -41
l-123 -96h-51z" />
    <glyph glyph-name="uni0156.ss08" horiz-adv-x="641" 
d="M613 0h-100l-141 237h-232q0 -38 1 -57q0 -79 3 -180h-101l1 92q3 117 3 259q0 206 -4 349h289q136 0 206 -58.5t70 -171.5q0 -84 -35.5 -137.5t-110.5 -77.5zM366 317q53 0 81 21t28 62q0 38 -30 59.5t-82 21.5h-226v-164h229zM318 -150q-29 0 -45 14.5t-16 40.5
q0 24 18.5 38.5t49.5 14.5q34 0 51.5 -15t17.5 -41q0 -18 -10.5 -34.5t-28.5 -36.5l-38 -45h-43z" />
    <glyph glyph-name="Yacute.ss08" horiz-adv-x="622" 
d="M264 0q1 47 1 135v67l-260 498h106l126 -257h148l125 257h106l-260 -498v-62q0 -87 1 -140h-93zM199 761l-17 58l217 98l45 -123z" />
    <glyph glyph-name="Ycircumflex.ss08" horiz-adv-x="622" 
d="M264 0q1 47 1 135v67l-260 498h106l126 -257h148l125 257h106l-260 -498v-62q0 -87 1 -140h-93zM300 789l-132 -34l-6 41l124 96h51l123 -96l-5 -41l-134 34h-21z" />
    <glyph glyph-name="Ydieresis.ss08" horiz-adv-x="622" 
d="M264 0q1 47 1 135v67l-260 498h106l126 -257h148l125 257h106l-260 -498v-62q0 -87 1 -140h-93zM168.5 771.5q-17.5 16.5 -17.5 47.5q0 29 18 46t49 17q32 0 50 -17t18 -46q0 -31 -18 -47.5t-50 -16.5t-49.5 16.5zM356 771.5q-17 16.5 -17 47.5q0 29 17.5 46t48.5 17
q32 0 50 -17t18 -46q0 -30 -18 -47t-50 -17t-49 16.5z" />
    <glyph glyph-name="Ygrave.ss08" horiz-adv-x="622" 
d="M264 0q1 47 1 135v67l-260 498h106l126 -257h148l125 257h106l-260 -498v-62q0 -87 1 -140h-93zM223 914l214 -97l-17 -57l-240 33z" />
    <glyph glyph-name="A.unic" horiz-adv-x="622" 
d="M592 28q-69 -21 -136.5 -30.5t-144.5 -9.5q-145 0 -217.5 55.5t-72.5 153.5q0 105 78.5 156t239.5 51q94 0 158 -15q-6 50 -46 76t-131 26q-112 0 -232 -34l-1 217q56 20 109.5 29t125.5 9q140 0 204 -69.5t64 -228.5q0 -279 2 -386zM499 194v116q-60 13 -172 13
q-86 0 -126 -16.5t-40 -53.5q0 -39 42.5 -57.5t137.5 -18.5q105 0 158 17z" />
    <glyph glyph-name="E.unic" horiz-adv-x="561" 
d="M423 225q57 8 116 26l-5 -228q-94 -35 -229 -35q-103 0 -162 35t-84 108t-25 192q0 220 -4 377h497l9 -220h-412v-80h363v-81h-363q1 -40 15 -61.5t50.5 -31t104.5 -9.5q72 0 129 8z" />
    <glyph glyph-name="F.unic" horiz-adv-x="524" 
d="M126 348h323v-81h-323q0 -82 2 -202l1 -65h-99q5 180 5 366q0 125 18.5 198t71 111t153.5 38q133 0 225 -37l5 -225q-116 30 -228 30q-65 0 -98 -12t-44.5 -36t-11.5 -67v-18z" />
    <glyph glyph-name="G.unic" horiz-adv-x="586" 
d="M553 422l1 -153q0 -143 -70 -213.5t-211 -70.5q-52 0 -100.5 6.5t-108.5 18.5l-6 222q60 -17 107 -24.5t100 -7.5q90 0 140.5 28.5t54.5 97.5q-56 -71 -194 -71q-122 0 -183 49t-61 156q0 137 70.5 195t206.5 58q69 0 129.5 -10t127.5 -28q-3 -117 -3 -253zM406 388.5
q53 28.5 54 86.5v10q-62 25 -174 25q-89 0 -128 -19.5t-39 -59.5q0 -35 34.5 -53t111.5 -18q88 0 141 28.5z" />
    <glyph glyph-name="I.unic" horiz-adv-x="225" 
d="M60.5 572.5q-17.5 19.5 -17.5 60.5t17.5 60t52.5 19q69 0 69 -79q0 -80 -69 -80q-35 0 -52.5 19.5zM64 0q3 111 3 272q0 167 -6 259q20 -11 51 -11q32 0 51 11q-5 -97 -5 -259q0 -122 2 -272h-96z" />
    <glyph glyph-name="M.unic" horiz-adv-x="878" 
d="M43 0q4 145 4 350q0 236 -2 323q65 23 107 31.5t85 8.5q155 0 202 -134q24 67 71.5 100.5t125.5 33.5q42 0 87.5 -9t110.5 -31q-1 -87 -1 -323q0 -242 2 -350h-95q3 195 3 336l-1 148q-57 19 -130 19q-125 0 -126 -148v-126q0 -101 2 -229h-97q2 100 2 259v97
q-1 74 -34 110.5t-93 36.5q-72 0 -129 -19v-205q0 -188 2 -279h-96z" />
    <glyph glyph-name="N.unic" horiz-adv-x="652" 
d="M43 0q4 143 4 350q0 233 -3 315q91 26 158.5 37t135.5 11q110 0 173 -36.5t87.5 -106t21.5 -178.5l-1 -101q0 -153 3 -291h-99l1 35q3 95 3 183q0 62 -1 97q-1 86 -47 125.5t-147 39.5q-107 0 -195 -21v-107q0 -214 3 -352h-97z" />
    <glyph glyph-name="i.loclTRK" horiz-adv-x="168" 
d="M39 0q2 74 2 267q0 194 -2 267h90l-1 -56q-2 -132 -2 -211q0 -78 2 -208l1 -59h-90zM37 613.5q-17 17.5 -17 50.5t17 50t47 17q31 0 47 -17.5t16 -49.5q0 -68 -63 -68q-30 0 -47 17.5z" />
    <glyph glyph-name="aacute.ss01" horiz-adv-x="513" 
d="M478 19q-100 -29 -229 -29q-114 0 -171 41t-57 119q0 84 62.5 121.5t193.5 37.5q67 0 112 -8q-7 39 -41.5 53.5t-99.5 14.5q-91 0 -186 -25l10 173q83 27 180 27q110 0 167.5 -56.5t57.5 -193.5q0 -193 1 -275zM345.5 164.5q30.5 2.5 45.5 5.5v69q-42 5 -125 5
q-58 0 -84 -9.5t-26 -31.5q0 -24 27 -32.5t99 -8.5q33 0 63.5 2.5zM150 597l-17 56l214 97l43 -121z" />
    <glyph glyph-name="abreve.ss01" horiz-adv-x="513" 
d="M478 19q-100 -29 -229 -29q-114 0 -171 41t-57 119q0 84 62.5 121.5t193.5 37.5q67 0 112 -8q-7 39 -41.5 53.5t-99.5 14.5q-91 0 -186 -25l10 173q83 27 180 27q110 0 167.5 -56.5t57.5 -193.5q0 -193 1 -275zM345.5 164.5q30.5 2.5 45.5 5.5v69q-42 5 -125 5
q-58 0 -84 -9.5t-26 -31.5q0 -24 27 -32.5t99 -8.5q33 0 63.5 2.5zM124 758h62q0 -37 18.5 -51.5t57.5 -14.5q38 0 56 14.5t19 51.5h61q1 -8 1 -24q0 -72 -33 -108t-105 -36q-148 0 -137 168z" />
    <glyph glyph-name="acircumflex.ss01" horiz-adv-x="513" 
d="M478 19q-100 -29 -229 -29q-114 0 -171 41t-57 119q0 84 62.5 121.5t193.5 37.5q67 0 112 -8q-7 39 -41.5 53.5t-99.5 14.5q-91 0 -186 -25l10 173q83 27 180 27q110 0 167.5 -56.5t57.5 -193.5q0 -193 1 -275zM345.5 164.5q30.5 2.5 45.5 5.5v69q-42 5 -125 5
q-58 0 -84 -9.5t-26 -31.5q0 -24 27 -32.5t99 -8.5q33 0 63.5 2.5zM250 628l-132 -34l-6 41l124 96h51l123 -96l-5 -41l-134 34h-21z" />
    <glyph glyph-name="adieresis.ss01" horiz-adv-x="513" 
d="M478 19q-100 -29 -229 -29q-114 0 -171 41t-57 119q0 84 62.5 121.5t193.5 37.5q67 0 112 -8q-7 39 -41.5 53.5t-99.5 14.5q-91 0 -186 -25l10 173q83 27 180 27q110 0 167.5 -56.5t57.5 -193.5q0 -193 1 -275zM345.5 164.5q30.5 2.5 45.5 5.5v69q-42 5 -125 5
q-58 0 -84 -9.5t-26 -31.5q0 -24 27 -32.5t99 -8.5q33 0 63.5 2.5zM117.5 612.5q-17.5 16.5 -17.5 47.5q0 29 18 46t49 17q32 0 50 -17t18 -46q0 -31 -18 -47.5t-50 -16.5t-49.5 16.5zM305 612.5q-17 16.5 -17 47.5q0 29 17.5 46t48.5 17q32 0 50 -17t18 -46q0 -30 -18 -47
t-50 -17t-49 16.5z" />
    <glyph glyph-name="agrave.ss01" horiz-adv-x="513" 
d="M478 19q-100 -29 -229 -29q-114 0 -171 41t-57 119q0 84 62.5 121.5t193.5 37.5q67 0 112 -8q-7 39 -41.5 53.5t-99.5 14.5q-91 0 -186 -25l10 173q83 27 180 27q110 0 167.5 -56.5t57.5 -193.5q0 -193 1 -275zM345.5 164.5q30.5 2.5 45.5 5.5v69q-42 5 -125 5
q-58 0 -84 -9.5t-26 -31.5q0 -24 27 -32.5t99 -8.5q33 0 63.5 2.5zM173 751l214 -97l-17 -57l-240 33z" />
    <glyph glyph-name="amacron.ss01" horiz-adv-x="513" 
d="M478 19q-100 -29 -229 -29q-114 0 -171 41t-57 119q0 84 62.5 121.5t193.5 37.5q67 0 112 -8q-7 39 -41.5 53.5t-99.5 14.5q-91 0 -186 -25l10 173q83 27 180 27q110 0 167.5 -56.5t57.5 -193.5q0 -193 1 -275zM345.5 164.5q30.5 2.5 45.5 5.5v69q-42 5 -125 5
q-58 0 -84 -9.5t-26 -31.5q0 -24 27 -32.5t99 -8.5q33 0 63.5 2.5zM413 677v-77h-302v77h302z" />
    <glyph glyph-name="aogonek.ss01" horiz-adv-x="513" 
d="M494 -78v-89q-46 -18 -85 -18q-50 0 -77.5 22t-27.5 64q0 57 52 94q-44 -5 -107 -5q-114 0 -171 41t-57 119q0 84 62.5 121.5t193.5 37.5q67 0 112 -8q-7 39 -41.5 53.5t-99.5 14.5q-91 0 -186 -25l10 173q83 27 180 27q110 0 167.5 -56.5t57.5 -193.5q0 -193 1 -275
q-36 -18 -60 -38t-24 -41q0 -16 9.5 -21t27.5 -5q29 0 63 8zM183 170.5q27 -8.5 99 -8.5q33 0 63.5 2.5t45.5 5.5v69q-42 5 -125 5q-58 0 -84 -9.5t-26 -31.5q0 -24 27 -32.5z" />
    <glyph glyph-name="aring.ss01" horiz-adv-x="513" 
d="M478 19q-100 -29 -229 -29q-114 0 -171 41t-57 119q0 84 62.5 121.5t193.5 37.5q67 0 112 -8q-7 39 -41.5 53.5t-99.5 14.5q-91 0 -186 -25l10 173q83 27 180 27q110 0 167.5 -56.5t57.5 -193.5q0 -193 1 -275zM345.5 164.5q30.5 2.5 45.5 5.5v69q-42 5 -125 5
q-58 0 -84 -9.5t-26 -31.5q0 -24 27 -32.5t99 -8.5q33 0 63.5 2.5zM189.5 617.5q-24.5 22.5 -24.5 65.5q0 44 24.5 67t71.5 23t71.5 -23t24.5 -67q0 -43 -24.5 -65.5t-71.5 -22.5t-71.5 22.5zM306 683q0 13 -10 20t-35 7q-45 0 -45 -27q0 -26 45 -26t45 26z" />
    <glyph glyph-name="atilde.ss01" horiz-adv-x="513" 
d="M478 19q-100 -29 -229 -29q-114 0 -171 41t-57 119q0 84 62.5 121.5t193.5 37.5q67 0 112 -8q-7 39 -41.5 53.5t-99.5 14.5q-91 0 -186 -25l10 173q83 27 180 27q110 0 167.5 -56.5t57.5 -193.5q0 -193 1 -275zM345.5 164.5q30.5 2.5 45.5 5.5v69q-42 5 -125 5
q-58 0 -84 -9.5t-26 -31.5q0 -24 27 -32.5t99 -8.5q33 0 63.5 2.5zM290 598q-17 3 -31 6q-32 9 -61 9q-33 0 -58 -8v69q33 10 55 10q32 0 70 -10q34 -8 59 -8q33 0 58 8v-69q-32 -10 -54 -10q-21 0 -38 3z" />
    <glyph glyph-name="dcaron.ss01" horiz-adv-x="558" 
d="M519 700q-2 -120 -2 -351q0 -273 2 -320q-42 -16 -103 -27.5t-126 -11.5q-131 0 -201.5 69.5t-70.5 209.5q0 137 62.5 206t171.5 69q123 0 179 -93l-2 249h90zM430 206q1 10 1 31q-4 55 -54 84t-125 29q-80 0 -113.5 -19.5t-33.5 -62.5q0 -44 40 -64t129 -20q88 0 156 22
zM630 700l-9 -202h-66l-10 202h85z" />
    <glyph glyph-name="dcroat.ss01" horiz-adv-x="558" 
d="M604 575l-86 2q-1 -83 -1 -228q0 -273 2 -320q-42 -16 -103 -27.5t-126 -11.5q-131 0 -201.5 69.5t-70.5 209.5q0 137 62.5 206t171.5 69q123 0 179 -93l-1 126q-68 0 -172 -2v72q104 -2 171 -2v55h90l-1 -55l86 2v-72zM430 206q1 10 1 31q-4 55 -54 84t-125 29
q-80 0 -113.5 -19.5t-33.5 -62.5q0 -44 40 -64t129 -20q88 0 156 22z" />
    <glyph glyph-name="gbreve.ss01" horiz-adv-x="570" 
d="M528 267l1 -220q0 -127 -62 -190t-196 -63q-50 0 -93 6t-93 18l-9 166q51 -17 88 -24.5t90 -7.5q92 0 140.5 34.5t48.5 118.5v19q-28 -52 -76 -83t-119 -31q-109 0 -170 63t-61 192q0 279 270 279q73 0 125.5 -10t118.5 -28q-3 -117 -3 -239zM391 214.5q52 31.5 53 89.5
v25q-65 21 -167 21q-92 0 -133 -21t-41 -68q0 -40 35.5 -59t118.5 -19q82 0 134 31.5zM154 758h62q0 -37 18.5 -51.5t57.5 -14.5q38 0 56 14.5t19 51.5h61q1 -8 1 -24q0 -72 -33 -108t-105 -36q-148 0 -137 168z" />
    <glyph glyph-name="uni0123.ss01" horiz-adv-x="570" 
d="M528 267l1 -220q0 -127 -62 -190t-196 -63q-50 0 -93 6t-93 18l-9 166q51 -17 88 -24.5t90 -7.5q92 0 140.5 34.5t48.5 118.5v19q-28 -52 -76 -83t-119 -31q-109 0 -170 63t-61 192q0 279 270 279q73 0 125.5 -10t118.5 -28q-3 -117 -3 -239zM391 214.5q52 31.5 53 89.5
v25q-65 21 -167 21q-92 0 -133 -21t-41 -68q0 -40 35.5 -59t118.5 -19q82 0 134 31.5zM296 706q31 0 49 -16t18 -44q0 -26 -20.5 -42t-54.5 -16q-74 0 -74 61q0 19 12 37.5t30 39.5l42 50h47z" />
    <glyph glyph-name="gdotaccent.ss01" horiz-adv-x="570" 
d="M528 267l1 -220q0 -127 -62 -190t-196 -63q-50 0 -93 6t-93 18l-9 166q51 -17 88 -24.5t90 -7.5q92 0 140.5 34.5t48.5 118.5v19q-28 -52 -76 -83t-119 -31q-109 0 -170 63t-61 192q0 279 270 279q73 0 125.5 -10t118.5 -28q-3 -117 -3 -239zM391 214.5q52 31.5 53 89.5
v25q-65 21 -167 21q-92 0 -133 -21t-41 -68q0 -40 35.5 -59t118.5 -19q82 0 134 31.5zM244 613.5q-17 17.5 -17 50.5t17 50t47 17q31 0 47 -17.5t16 -49.5q0 -68 -63 -68q-30 0 -47 17.5z" />
    <glyph glyph-name="hbar.ss01" horiz-adv-x="542" 
d="M460 482q50 -61 46 -189q-2 -70 -2 -128q0 -117 2 -165h-89q1 47 1 169v69q-1 61 -38 85t-112 24q-80 0 -142 -13q0 -42 3 -309v-25h-90q2 77 2 349q-1 81 -1 244l-79 -2v72l78 -2v39h90v-39q125 0 178 2v-72q-54 2 -179 2l-1 -66q83 16 162 16q121 0 171 -61z" />
    <glyph glyph-name="nacute.ss01" horiz-adv-x="542" 
d="M39 0q2 79 2 267q0 182 -2 239q75 21 131.5 29t118.5 8q121 0 171 -61t46 -189q-2 -70 -2 -128q0 -117 2 -165h-89q1 47 1 169v69q-1 61 -38 85t-112 24q-80 0 -142 -13v-105q0 -125 2 -229h-89zM160 597l-17 56l214 97l43 -121z" />
    <glyph glyph-name="ncaron.ss01" horiz-adv-x="542" 
d="M39 0q2 79 2 267q0 182 -2 239q75 21 131.5 29t118.5 8q121 0 171 -61t46 -189q-2 -70 -2 -128q0 -117 2 -165h-89q1 47 1 169v69q-1 61 -38 85t-112 24q-80 0 -142 -13v-105q0 -125 2 -229h-89zM122 694l6 41l132 -34h21l134 34l5 -41l-123 -96h-51z" />
    <glyph glyph-name="uni0146.ss01" horiz-adv-x="542" 
d="M39 0q2 79 2 267q0 182 -2 239q75 21 131.5 29t118.5 8q121 0 171 -61t46 -189q-2 -70 -2 -128q0 -117 2 -165h-89q1 47 1 169v69q-1 61 -38 85t-112 24q-80 0 -142 -13v-105q0 -125 2 -229h-89zM267 -143q-32 0 -49.5 16t-17.5 44q0 26 20 42t54 16q38 0 56.5 -16
t18.5 -45q0 -19 -11.5 -37t-30.5 -41l-42 -49h-47z" />
    <glyph glyph-name="ntilde.ss01" horiz-adv-x="542" 
d="M39 0q2 79 2 267q0 182 -2 239q75 21 131.5 29t118.5 8q121 0 171 -61t46 -189q-2 -70 -2 -128q0 -117 2 -165h-89q1 47 1 169v69q-1 61 -38 85t-112 24q-80 0 -142 -13v-105q0 -125 2 -229h-89zM301 598q-17 3 -31 6q-32 9 -61 9q-33 0 -58 -8v69q33 10 55 10
q32 0 70 -10q34 -8 59 -8q33 0 58 8v-69q-32 -10 -54 -10q-21 0 -38 3z" />
    </font>
</defs>
</svg>
